ISO-10303-21;
HEADER;
FILE_DESCRIPTION(('FreeCAD Model'),'2;1');
FILE_NAME('Open CASCADE Shape Model','2026-10-07T18:27:40',(''),(''),
  'Open CASCADE STEP processor 7.8','FreeCAD','Unknown');
FILE_SCHEMA(('AUTOMOTIVE_DESIGN { 1 0 10303 214 1 1 1 1 }'));
ENDSEC;
DATA;
#1 = APPLICATION_PROTOCOL_DEFINITION('international standard',
  'automotive_design',2000,#2);
#2 = APPLICATION_CONTEXT(
  'core data for automotive mechanical design processes');
#3 = SHAPE_DEFINITION_REPRESENTATION(#4,#10);
#4 = PRODUCT_DEFINITION_SHAPE('','',#5);
#5 = PRODUCT_DEFINITION('design','',#6,#9);
#6 = PRODUCT_DEFINITION_FORMATION('','',#7);
#7 = PRODUCT('Top','Top','',(#8));
#8 = PRODUCT_CONTEXT('',#2,'mechanical');
#9 = PRODUCT_DEFINITION_CONTEXT('part definition',#2,'design');
#10 = ADVANCED_BREP_SHAPE_REPRESENTATION('',(#11,#15),#1630);
#11 = AXIS2_PLACEMENT_3D('',#12,#13,#14);
#12 = CARTESIAN_POINT('',(0.,0.,0.));
#13 = DIRECTION('',(0.,0.,1.));
#14 = DIRECTION('',(1.,0.,-0.));
#15 = MANIFOLD_SOLID_BREP('',#16);
#16 = CLOSED_SHELL('',(#17,#105,#216,#240,#264,#295,#319,#350,#374,#478,
    #502,#519,#556,#603,#632,#655,#678,#741,#765,#828,#852,#901,#918,
    #949,#973,#1022,#1039,#1056,#1096,#1125,#1148,#1171,#1199,#1216,
    #1233,#1245,#1257,#1274,#1291,#1303,#1334,#1351,#1368,#1392,#1409,
    #1433,#1450,#1467,#1489,#1501,#1518,#1530,#1555,#1567,#1587,#1612));
#17 = ADVANCED_FACE('',(#18),#100,.T.);
#18 = FACE_BOUND('',#19,.T.);
#19 = EDGE_LOOP('',(#20,#30,#38,#46,#54,#62,#70,#78,#86,#94));
#20 = ORIENTED_EDGE('',*,*,#21,.F.);
#21 = EDGE_CURVE('',#22,#24,#26,.T.);
#22 = VERTEX_POINT('',#23);
#23 = CARTESIAN_POINT('',(-11.905,22.78,2.6));
#24 = VERTEX_POINT('',#25);
#25 = CARTESIAN_POINT('',(-6.095,22.78,2.6));
#26 = LINE('',#27,#28);
#27 = CARTESIAN_POINT('',(-12.305,22.78,2.6));
#28 = VECTOR('',#29,1.);
#29 = DIRECTION('',(1.,0.,0.));
#30 = ORIENTED_EDGE('',*,*,#31,.T.);
#31 = EDGE_CURVE('',#22,#32,#34,.T.);
#32 = VERTEX_POINT('',#33);
#33 = CARTESIAN_POINT('',(-11.905,22.78,5.19));
#34 = LINE('',#35,#36);
#35 = CARTESIAN_POINT('',(-11.905,22.78,2.6));
#36 = VECTOR('',#37,1.);
#37 = DIRECTION('',(0.,0.,1.));
#38 = ORIENTED_EDGE('',*,*,#39,.F.);
#39 = EDGE_CURVE('',#40,#32,#42,.T.);
#40 = VERTEX_POINT('',#41);
#41 = CARTESIAN_POINT('',(11.905,22.78,5.19));
#42 = LINE('',#43,#44);
#43 = CARTESIAN_POINT('',(12.305,22.78,5.19));
#44 = VECTOR('',#45,1.);
#45 = DIRECTION('',(-1.,0.,0.));
#46 = ORIENTED_EDGE('',*,*,#47,.F.);
#47 = EDGE_CURVE('',#48,#40,#50,.T.);
#48 = VERTEX_POINT('',#49);
#49 = CARTESIAN_POINT('',(11.905,22.78,2.6));
#50 = LINE('',#51,#52);
#51 = CARTESIAN_POINT('',(11.905,22.78,2.6));
#52 = VECTOR('',#53,1.);
#53 = DIRECTION('',(0.,0.,1.));
#54 = ORIENTED_EDGE('',*,*,#55,.F.);
#55 = EDGE_CURVE('',#56,#48,#58,.T.);
#56 = VERTEX_POINT('',#57);
#57 = CARTESIAN_POINT('',(6.105,22.78,2.6));
#58 = LINE('',#59,#60);
#59 = CARTESIAN_POINT('',(-12.305,22.78,2.6));
#60 = VECTOR('',#61,1.);
#61 = DIRECTION('',(1.,0.,0.));
#62 = ORIENTED_EDGE('',*,*,#63,.T.);
#63 = EDGE_CURVE('',#56,#64,#66,.T.);
#64 = VERTEX_POINT('',#65);
#65 = CARTESIAN_POINT('',(6.105,22.78,4.65));
#66 = LINE('',#67,#68);
#67 = CARTESIAN_POINT('',(6.105,22.78,2.6));
#68 = VECTOR('',#69,1.);
#69 = DIRECTION('',(0.,0.,1.));
#70 = ORIENTED_EDGE('',*,*,#71,.F.);
#71 = EDGE_CURVE('',#72,#64,#74,.T.);
#72 = VERTEX_POINT('',#73);
#73 = CARTESIAN_POINT('',(5.805,22.78,4.95));
#74 = LINE('',#75,#76);
#75 = CARTESIAN_POINT('',(1.94,22.78,8.815));
#76 = VECTOR('',#77,1.);
#77 = DIRECTION('',(0.707106781187,0.,-0.707106781187));
#78 = ORIENTED_EDGE('',*,*,#79,.F.);
#79 = EDGE_CURVE('',#80,#72,#82,.T.);
#80 = VERTEX_POINT('',#81);
#81 = CARTESIAN_POINT('',(-5.795,22.78,4.95));
#82 = LINE('',#83,#84);
#83 = CARTESIAN_POINT('',(-6.095,22.78,4.95));
#84 = VECTOR('',#85,1.);
#85 = DIRECTION('',(1.,0.,0.));
#86 = ORIENTED_EDGE('',*,*,#87,.F.);
#87 = EDGE_CURVE('',#88,#80,#90,.T.);
#88 = VERTEX_POINT('',#89);
#89 = CARTESIAN_POINT('',(-6.095,22.78,4.65));
#90 = LINE('',#91,#92);
#91 = CARTESIAN_POINT('',(-8.085,22.78,2.66));
#92 = VECTOR('',#93,1.);
#93 = DIRECTION('',(0.707106781187,0.,0.707106781187));
#94 = ORIENTED_EDGE('',*,*,#95,.F.);
#95 = EDGE_CURVE('',#24,#88,#96,.T.);
#96 = LINE('',#97,#98);
#97 = CARTESIAN_POINT('',(-6.095,22.78,2.6));
#98 = VECTOR('',#99,1.);
#99 = DIRECTION('',(0.,0.,1.));
#100 = PLANE('',#101);
#101 = AXIS2_PLACEMENT_3D('',#102,#103,#104);
#102 = CARTESIAN_POINT('',(-12.305,22.78,2.6));
#103 = DIRECTION('',(0.,1.,0.));
#104 = DIRECTION('',(1.,0.,0.));
#105 = ADVANCED_FACE('',(#106),#211,.F.);
#106 = FACE_BOUND('',#107,.F.);
#107 = EDGE_LOOP('',(#108,#109,#117,#125,#133,#141,#149,#157,#165,#173,
    #181,#189,#197,#205));
#108 = ORIENTED_EDGE('',*,*,#21,.F.);
#109 = ORIENTED_EDGE('',*,*,#110,.T.);
#110 = EDGE_CURVE('',#22,#111,#113,.T.);
#111 = VERTEX_POINT('',#112);
#112 = CARTESIAN_POINT('',(-12.305,22.38,2.6));
#113 = LINE('',#114,#115);
#114 = CARTESIAN_POINT('',(-15.30875,19.37625,2.6));
#115 = VECTOR('',#116,1.);
#116 = DIRECTION('',(-0.707106781187,-0.707106781187,0.));
#117 = ORIENTED_EDGE('',*,*,#118,.T.);
#118 = EDGE_CURVE('',#111,#119,#121,.T.);
#119 = VERTEX_POINT('',#120);
#120 = CARTESIAN_POINT('',(-12.305,-27.06,2.6));
#121 = LINE('',#122,#123);
#122 = CARTESIAN_POINT('',(-12.305,22.78,2.6));
#123 = VECTOR('',#124,1.);
#124 = DIRECTION('',(0.,-1.,0.));
#125 = ORIENTED_EDGE('',*,*,#126,.F.);
#126 = EDGE_CURVE('',#127,#119,#129,.T.);
#127 = VERTEX_POINT('',#128);
#128 = CARTESIAN_POINT('',(-11.905,-27.46,2.6));
#129 = LINE('',#130,#131);
#130 = CARTESIAN_POINT('',(-15.30875,-24.05625,2.6));
#131 = VECTOR('',#132,1.);
#132 = DIRECTION('',(-0.707106781187,0.707106781187,0.));
#133 = ORIENTED_EDGE('',*,*,#134,.T.);
#134 = EDGE_CURVE('',#127,#135,#137,.T.);
#135 = VERTEX_POINT('',#136);
#136 = CARTESIAN_POINT('',(-6.665,-27.46,2.6));
#137 = LINE('',#138,#139);
#138 = CARTESIAN_POINT('',(-12.305,-27.46,2.6));
#139 = VECTOR('',#140,1.);
#140 = DIRECTION('',(1.,2.02E-15,0.));
#141 = ORIENTED_EDGE('',*,*,#142,.T.);
#142 = EDGE_CURVE('',#135,#143,#145,.T.);
#143 = VERTEX_POINT('',#144);
#144 = CARTESIAN_POINT('',(-6.665,-25.46,2.6));
#145 = LINE('',#146,#147);
#146 = CARTESIAN_POINT('',(-6.665,-27.46,2.6));
#147 = VECTOR('',#148,1.);
#148 = DIRECTION('',(0.,1.,0.));
#149 = ORIENTED_EDGE('',*,*,#150,.F.);
#150 = EDGE_CURVE('',#151,#143,#153,.T.);
#151 = VERTEX_POINT('',#152);
#152 = CARTESIAN_POINT('',(-10.305,-25.46,2.6));
#153 = LINE('',#154,#155);
#154 = CARTESIAN_POINT('',(-12.305,-25.46,2.6));
#155 = VECTOR('',#156,1.);
#156 = DIRECTION('',(1.,2.02E-15,0.));
#157 = ORIENTED_EDGE('',*,*,#158,.F.);
#158 = EDGE_CURVE('',#159,#151,#161,.T.);
#159 = VERTEX_POINT('',#160);
#160 = CARTESIAN_POINT('',(-10.305,-5.,2.6));
#161 = LINE('',#162,#163);
#162 = CARTESIAN_POINT('',(-10.305,22.78,2.6));
#163 = VECTOR('',#164,1.);
#164 = DIRECTION('',(0.,-1.,0.));
#165 = ORIENTED_EDGE('',*,*,#166,.F.);
#166 = EDGE_CURVE('',#167,#159,#169,.T.);
#167 = VERTEX_POINT('',#168);
#168 = CARTESIAN_POINT('',(-11.305,-5.,2.6));
#169 = LINE('',#170,#171);
#170 = CARTESIAN_POINT('',(-11.305,-5.,2.6));
#171 = VECTOR('',#172,1.);
#172 = DIRECTION('',(1.,0.,0.));
#173 = ORIENTED_EDGE('',*,*,#174,.F.);
#174 = EDGE_CURVE('',#175,#167,#177,.T.);
#175 = VERTEX_POINT('',#176);
#176 = CARTESIAN_POINT('',(-11.305,5.,2.6));
#177 = LINE('',#178,#179);
#178 = CARTESIAN_POINT('',(-11.305,5.,2.6));
#179 = VECTOR('',#180,1.);
#180 = DIRECTION('',(0.,-1.,0.));
#181 = ORIENTED_EDGE('',*,*,#182,.F.);
#182 = EDGE_CURVE('',#183,#175,#185,.T.);
#183 = VERTEX_POINT('',#184);
#184 = CARTESIAN_POINT('',(-10.305,5.,2.6));
#185 = LINE('',#186,#187);
#186 = CARTESIAN_POINT('',(-10.305,5.,2.6));
#187 = VECTOR('',#188,1.);
#188 = DIRECTION('',(-1.,0.,0.));
#189 = ORIENTED_EDGE('',*,*,#190,.F.);
#190 = EDGE_CURVE('',#191,#183,#193,.T.);
#191 = VERTEX_POINT('',#192);
#192 = CARTESIAN_POINT('',(-10.305,20.78,2.6));
#193 = LINE('',#194,#195);
#194 = CARTESIAN_POINT('',(-10.305,22.78,2.6));
#195 = VECTOR('',#196,1.);
#196 = DIRECTION('',(0.,-1.,0.));
#197 = ORIENTED_EDGE('',*,*,#198,.T.);
#198 = EDGE_CURVE('',#191,#199,#201,.T.);
#199 = VERTEX_POINT('',#200);
#200 = CARTESIAN_POINT('',(-6.095,20.78,2.6));
#201 = LINE('',#202,#203);
#202 = CARTESIAN_POINT('',(-12.305,20.78,2.6));
#203 = VECTOR('',#204,1.);
#204 = DIRECTION('',(1.,0.,0.));
#205 = ORIENTED_EDGE('',*,*,#206,.T.);
#206 = EDGE_CURVE('',#199,#24,#207,.T.);
#207 = LINE('',#208,#209);
#208 = CARTESIAN_POINT('',(-6.095,20.78,2.6));
#209 = VECTOR('',#210,1.);
#210 = DIRECTION('',(0.,1.,0.));
#211 = PLANE('',#212);
#212 = AXIS2_PLACEMENT_3D('',#213,#214,#215);
#213 = CARTESIAN_POINT('',(-4.56E-15,-2.34,2.6));
#214 = DIRECTION('',(0.,0.,1.));
#215 = DIRECTION('',(1.,0.,0.));
#216 = ADVANCED_FACE('',(#217),#235,.T.);
#217 = FACE_BOUND('',#218,.F.);
#218 = EDGE_LOOP('',(#219,#220,#221,#229));
#219 = ORIENTED_EDGE('',*,*,#110,.F.);
#220 = ORIENTED_EDGE('',*,*,#31,.T.);
#221 = ORIENTED_EDGE('',*,*,#222,.T.);
#222 = EDGE_CURVE('',#32,#223,#225,.T.);
#223 = VERTEX_POINT('',#224);
#224 = CARTESIAN_POINT('',(-12.305,22.38,5.024314575051));
#225 = LINE('',#226,#227);
#226 = CARTESIAN_POINT('',(-12.63563608738,22.049363912619,
    4.887360623447));
#227 = VECTOR('',#228,1.);
#228 = DIRECTION('',(-0.678598344546,-0.678598344546,-0.281084637715));
#229 = ORIENTED_EDGE('',*,*,#230,.F.);
#230 = EDGE_CURVE('',#111,#223,#231,.T.);
#231 = LINE('',#232,#233);
#232 = CARTESIAN_POINT('',(-12.305,22.38,2.6));
#233 = VECTOR('',#234,1.);
#234 = DIRECTION('',(0.,0.,1.));
#235 = PLANE('',#236);
#236 = AXIS2_PLACEMENT_3D('',#237,#238,#239);
#237 = CARTESIAN_POINT('',(-12.105,22.58,2.6));
#238 = DIRECTION('',(-0.707106781187,0.707106781187,0.));
#239 = DIRECTION('',(-0.,-0.,-1.));
#240 = ADVANCED_FACE('',(#241),#259,.F.);
#241 = FACE_BOUND('',#242,.F.);
#242 = EDGE_LOOP('',(#243,#251,#257,#258));
#243 = ORIENTED_EDGE('',*,*,#244,.T.);
#244 = EDGE_CURVE('',#199,#245,#247,.T.);
#245 = VERTEX_POINT('',#246);
#246 = CARTESIAN_POINT('',(-6.095,20.78,4.65));
#247 = LINE('',#248,#249);
#248 = CARTESIAN_POINT('',(-6.095,20.78,2.6));
#249 = VECTOR('',#250,1.);
#250 = DIRECTION('',(0.,0.,1.));
#251 = ORIENTED_EDGE('',*,*,#252,.T.);
#252 = EDGE_CURVE('',#245,#88,#253,.T.);
#253 = LINE('',#254,#255);
#254 = CARTESIAN_POINT('',(-6.095,20.78,4.65));
#255 = VECTOR('',#256,1.);
#256 = DIRECTION('',(0.,1.,0.));
#257 = ORIENTED_EDGE('',*,*,#95,.F.);
#258 = ORIENTED_EDGE('',*,*,#206,.F.);
#259 = PLANE('',#260);
#260 = AXIS2_PLACEMENT_3D('',#261,#262,#263);
#261 = CARTESIAN_POINT('',(-6.095,20.78,2.6));
#262 = DIRECTION('',(-1.,0.,0.));
#263 = DIRECTION('',(0.,1.,0.));
#264 = ADVANCED_FACE('',(#265),#290,.F.);
#265 = FACE_BOUND('',#266,.F.);
#266 = EDGE_LOOP('',(#267,#277,#283,#284));
#267 = ORIENTED_EDGE('',*,*,#268,.T.);
#268 = EDGE_CURVE('',#269,#271,#273,.T.);
#269 = VERTEX_POINT('',#270);
#270 = CARTESIAN_POINT('',(11.905,20.56,7.41));
#271 = VERTEX_POINT('',#272);
#272 = CARTESIAN_POINT('',(-11.905,20.56,7.41));
#273 = LINE('',#274,#275);
#274 = CARTESIAN_POINT('',(12.305,20.56,7.41));
#275 = VECTOR('',#276,1.);
#276 = DIRECTION('',(-1.,0.,0.));
#277 = ORIENTED_EDGE('',*,*,#278,.T.);
#278 = EDGE_CURVE('',#271,#32,#279,.T.);
#279 = LINE('',#280,#281);
#280 = CARTESIAN_POINT('',(-11.905,20.56,7.41));
#281 = VECTOR('',#282,1.);
#282 = DIRECTION('',(0.,0.707106781187,-0.707106781187));
#283 = ORIENTED_EDGE('',*,*,#39,.F.);
#284 = ORIENTED_EDGE('',*,*,#285,.F.);
#285 = EDGE_CURVE('',#269,#40,#286,.T.);
#286 = LINE('',#287,#288);
#287 = CARTESIAN_POINT('',(11.905,20.56,7.41));
#288 = VECTOR('',#289,1.);
#289 = DIRECTION('',(0.,0.707106781187,-0.707106781187));
#290 = PLANE('',#291);
#291 = AXIS2_PLACEMENT_3D('',#292,#293,#294);
#292 = CARTESIAN_POINT('',(12.305,21.67,6.3));
#293 = DIRECTION('',(0.,-0.707106781187,-0.707106781187));
#294 = DIRECTION('',(-1.,0.,0.));
#295 = ADVANCED_FACE('',(#296),#314,.F.);
#296 = FACE_BOUND('',#297,.T.);
#297 = EDGE_LOOP('',(#298,#306,#307,#308));
#298 = ORIENTED_EDGE('',*,*,#299,.F.);
#299 = EDGE_CURVE('',#245,#300,#302,.T.);
#300 = VERTEX_POINT('',#301);
#301 = CARTESIAN_POINT('',(-5.795,20.78,4.95));
#302 = LINE('',#303,#304);
#303 = CARTESIAN_POINT('',(-8.085,20.78,2.66));
#304 = VECTOR('',#305,1.);
#305 = DIRECTION('',(0.707106781187,0.,0.707106781187));
#306 = ORIENTED_EDGE('',*,*,#252,.T.);
#307 = ORIENTED_EDGE('',*,*,#87,.T.);
#308 = ORIENTED_EDGE('',*,*,#309,.F.);
#309 = EDGE_CURVE('',#300,#80,#310,.T.);
#310 = LINE('',#311,#312);
#311 = CARTESIAN_POINT('',(-5.795,20.78,4.95));
#312 = VECTOR('',#313,1.);
#313 = DIRECTION('',(0.,1.,0.));
#314 = PLANE('',#315);
#315 = AXIS2_PLACEMENT_3D('',#316,#317,#318);
#316 = CARTESIAN_POINT('',(-5.945,20.78,4.8));
#317 = DIRECTION('',(-0.707106781187,0.,0.707106781187));
#318 = DIRECTION('',(-0.,-1.,-0.));
#319 = ADVANCED_FACE('',(#320),#345,.T.);
#320 = FACE_BOUND('',#321,.T.);
#321 = EDGE_LOOP('',(#322,#330,#331,#339));
#322 = ORIENTED_EDGE('',*,*,#323,.F.);
#323 = EDGE_CURVE('',#48,#324,#326,.T.);
#324 = VERTEX_POINT('',#325);
#325 = CARTESIAN_POINT('',(12.305,22.38,2.6));
#326 = LINE('',#327,#328);
#327 = CARTESIAN_POINT('',(15.30875,19.37625,2.6));
#328 = VECTOR('',#329,1.);
#329 = DIRECTION('',(0.707106781187,-0.707106781187,0.));
#330 = ORIENTED_EDGE('',*,*,#47,.T.);
#331 = ORIENTED_EDGE('',*,*,#332,.T.);
#332 = EDGE_CURVE('',#40,#333,#335,.T.);
#333 = VERTEX_POINT('',#334);
#334 = CARTESIAN_POINT('',(12.305,22.38,5.024314575051));
#335 = LINE('',#336,#337);
#336 = CARTESIAN_POINT('',(12.635636087381,22.049363912619,
    4.887360623447));
#337 = VECTOR('',#338,1.);
#338 = DIRECTION('',(0.678598344546,-0.678598344546,-0.281084637715));
#339 = ORIENTED_EDGE('',*,*,#340,.F.);
#340 = EDGE_CURVE('',#324,#333,#341,.T.);
#341 = LINE('',#342,#343);
#342 = CARTESIAN_POINT('',(12.305,22.38,2.6));
#343 = VECTOR('',#344,1.);
#344 = DIRECTION('',(0.,0.,1.));
#345 = PLANE('',#346);
#346 = AXIS2_PLACEMENT_3D('',#347,#348,#349);
#347 = CARTESIAN_POINT('',(12.105,22.58,2.6));
#348 = DIRECTION('',(0.707106781187,0.707106781187,0.));
#349 = DIRECTION('',(0.,0.,1.));
#350 = ADVANCED_FACE('',(#351),#369,.F.);
#351 = FACE_BOUND('',#352,.F.);
#352 = EDGE_LOOP('',(#353,#361,#367,#368));
#353 = ORIENTED_EDGE('',*,*,#354,.T.);
#354 = EDGE_CURVE('',#300,#355,#357,.T.);
#355 = VERTEX_POINT('',#356);
#356 = CARTESIAN_POINT('',(5.805,20.78,4.95));
#357 = LINE('',#358,#359);
#358 = CARTESIAN_POINT('',(-6.095,20.78,4.95));
#359 = VECTOR('',#360,1.);
#360 = DIRECTION('',(1.,0.,0.));
#361 = ORIENTED_EDGE('',*,*,#362,.T.);
#362 = EDGE_CURVE('',#355,#72,#363,.T.);
#363 = LINE('',#364,#365);
#364 = CARTESIAN_POINT('',(5.805,20.78,4.95));
#365 = VECTOR('',#366,1.);
#366 = DIRECTION('',(0.,1.,0.));
#367 = ORIENTED_EDGE('',*,*,#79,.F.);
#368 = ORIENTED_EDGE('',*,*,#309,.F.);
#369 = PLANE('',#370);
#370 = AXIS2_PLACEMENT_3D('',#371,#372,#373);
#371 = CARTESIAN_POINT('',(4.999999999999E-03,21.78,4.95));
#372 = DIRECTION('',(0.,0.,1.));
#373 = DIRECTION('',(1.,0.,0.));
#374 = ADVANCED_FACE('',(#375),#473,.F.);
#375 = FACE_BOUND('',#376,.F.);
#376 = EDGE_LOOP('',(#377,#378,#379,#387,#395,#403,#411,#419,#427,#435,
    #443,#451,#459,#467));
#377 = ORIENTED_EDGE('',*,*,#323,.F.);
#378 = ORIENTED_EDGE('',*,*,#55,.F.);
#379 = ORIENTED_EDGE('',*,*,#380,.F.);
#380 = EDGE_CURVE('',#381,#56,#383,.T.);
#381 = VERTEX_POINT('',#382);
#382 = CARTESIAN_POINT('',(6.105,20.78,2.6));
#383 = LINE('',#384,#385);
#384 = CARTESIAN_POINT('',(6.105,20.78,2.6));
#385 = VECTOR('',#386,1.);
#386 = DIRECTION('',(0.,1.,0.));
#387 = ORIENTED_EDGE('',*,*,#388,.T.);
#388 = EDGE_CURVE('',#381,#389,#391,.T.);
#389 = VERTEX_POINT('',#390);
#390 = CARTESIAN_POINT('',(10.305,20.78,2.6));
#391 = LINE('',#392,#393);
#392 = CARTESIAN_POINT('',(-12.305,20.78,2.6));
#393 = VECTOR('',#394,1.);
#394 = DIRECTION('',(1.,0.,0.));
#395 = ORIENTED_EDGE('',*,*,#396,.T.);
#396 = EDGE_CURVE('',#389,#397,#399,.T.);
#397 = VERTEX_POINT('',#398);
#398 = CARTESIAN_POINT('',(10.305,5.,2.6));
#399 = LINE('',#400,#401);
#400 = CARTESIAN_POINT('',(10.305,22.78,2.6));
#401 = VECTOR('',#402,1.);
#402 = DIRECTION('',(0.,-1.,0.));
#403 = ORIENTED_EDGE('',*,*,#404,.F.);
#404 = EDGE_CURVE('',#405,#397,#407,.T.);
#405 = VERTEX_POINT('',#406);
#406 = CARTESIAN_POINT('',(11.305,5.,2.6));
#407 = LINE('',#408,#409);
#408 = CARTESIAN_POINT('',(11.305,5.,2.6));
#409 = VECTOR('',#410,1.);
#410 = DIRECTION('',(-1.,0.,0.));
#411 = ORIENTED_EDGE('',*,*,#412,.F.);
#412 = EDGE_CURVE('',#413,#405,#415,.T.);
#413 = VERTEX_POINT('',#414);
#414 = CARTESIAN_POINT('',(11.305,-5.,2.6));
#415 = LINE('',#416,#417);
#416 = CARTESIAN_POINT('',(11.305,-5.,2.6));
#417 = VECTOR('',#418,1.);
#418 = DIRECTION('',(0.,1.,0.));
#419 = ORIENTED_EDGE('',*,*,#420,.F.);
#420 = EDGE_CURVE('',#421,#413,#423,.T.);
#421 = VERTEX_POINT('',#422);
#422 = CARTESIAN_POINT('',(10.305,-5.,2.6));
#423 = LINE('',#424,#425);
#424 = CARTESIAN_POINT('',(10.305,-5.,2.6));
#425 = VECTOR('',#426,1.);
#426 = DIRECTION('',(1.,0.,0.));
#427 = ORIENTED_EDGE('',*,*,#428,.T.);
#428 = EDGE_CURVE('',#421,#429,#431,.T.);
#429 = VERTEX_POINT('',#430);
#430 = CARTESIAN_POINT('',(10.305,-25.46,2.6));
#431 = LINE('',#432,#433);
#432 = CARTESIAN_POINT('',(10.305,22.78,2.6));
#433 = VECTOR('',#434,1.);
#434 = DIRECTION('',(0.,-1.,0.));
#435 = ORIENTED_EDGE('',*,*,#436,.F.);
#436 = EDGE_CURVE('',#437,#429,#439,.T.);
#437 = VERTEX_POINT('',#438);
#438 = CARTESIAN_POINT('',(6.665,-25.46,2.6));
#439 = LINE('',#440,#441);
#440 = CARTESIAN_POINT('',(-12.305,-25.46,2.6));
#441 = VECTOR('',#442,1.);
#442 = DIRECTION('',(1.,2.02E-15,0.));
#443 = ORIENTED_EDGE('',*,*,#444,.F.);
#444 = EDGE_CURVE('',#445,#437,#447,.T.);
#445 = VERTEX_POINT('',#446);
#446 = CARTESIAN_POINT('',(6.665,-27.46,2.6));
#447 = LINE('',#448,#449);
#448 = CARTESIAN_POINT('',(6.665,-27.46,2.6));
#449 = VECTOR('',#450,1.);
#450 = DIRECTION('',(0.,1.,0.));
#451 = ORIENTED_EDGE('',*,*,#452,.T.);
#452 = EDGE_CURVE('',#445,#453,#455,.T.);
#453 = VERTEX_POINT('',#454);
#454 = CARTESIAN_POINT('',(11.905,-27.46,2.6));
#455 = LINE('',#456,#457);
#456 = CARTESIAN_POINT('',(-12.305,-27.46,2.6));
#457 = VECTOR('',#458,1.);
#458 = DIRECTION('',(1.,2.02E-15,0.));
#459 = ORIENTED_EDGE('',*,*,#460,.T.);
#460 = EDGE_CURVE('',#453,#461,#463,.T.);
#461 = VERTEX_POINT('',#462);
#462 = CARTESIAN_POINT('',(12.305,-27.06,2.6));
#463 = LINE('',#464,#465);
#464 = CARTESIAN_POINT('',(15.30875,-24.05625,2.6));
#465 = VECTOR('',#466,1.);
#466 = DIRECTION('',(0.707106781187,0.707106781187,0.));
#467 = ORIENTED_EDGE('',*,*,#468,.F.);
#468 = EDGE_CURVE('',#324,#461,#469,.T.);
#469 = LINE('',#470,#471);
#470 = CARTESIAN_POINT('',(12.305,22.78,2.6));
#471 = VECTOR('',#472,1.);
#472 = DIRECTION('',(0.,-1.,0.));
#473 = PLANE('',#474);
#474 = AXIS2_PLACEMENT_3D('',#475,#476,#477);
#475 = CARTESIAN_POINT('',(-4.56E-15,-2.34,2.6));
#476 = DIRECTION('',(0.,0.,1.));
#477 = DIRECTION('',(1.,0.,0.));
#478 = ADVANCED_FACE('',(#479),#497,.T.);
#479 = FACE_BOUND('',#480,.T.);
#480 = EDGE_LOOP('',(#481,#489,#490,#491));
#481 = ORIENTED_EDGE('',*,*,#482,.F.);
#482 = EDGE_CURVE('',#355,#483,#485,.T.);
#483 = VERTEX_POINT('',#484);
#484 = CARTESIAN_POINT('',(6.105,20.78,4.65));
#485 = LINE('',#486,#487);
#486 = CARTESIAN_POINT('',(1.94,20.78,8.815));
#487 = VECTOR('',#488,1.);
#488 = DIRECTION('',(0.707106781187,0.,-0.707106781187));
#489 = ORIENTED_EDGE('',*,*,#362,.T.);
#490 = ORIENTED_EDGE('',*,*,#71,.T.);
#491 = ORIENTED_EDGE('',*,*,#492,.F.);
#492 = EDGE_CURVE('',#483,#64,#493,.T.);
#493 = LINE('',#494,#495);
#494 = CARTESIAN_POINT('',(6.105,20.78,4.65));
#495 = VECTOR('',#496,1.);
#496 = DIRECTION('',(0.,1.,0.));
#497 = PLANE('',#498);
#498 = AXIS2_PLACEMENT_3D('',#499,#500,#501);
#499 = CARTESIAN_POINT('',(5.955,20.78,4.8));
#500 = DIRECTION('',(-0.707106781187,0.,-0.707106781187));
#501 = DIRECTION('',(0.,1.,0.));
#502 = ADVANCED_FACE('',(#503),#514,.T.);
#503 = FACE_BOUND('',#504,.T.);
#504 = EDGE_LOOP('',(#505,#511,#512,#513));
#505 = ORIENTED_EDGE('',*,*,#506,.T.);
#506 = EDGE_CURVE('',#381,#483,#507,.T.);
#507 = LINE('',#508,#509);
#508 = CARTESIAN_POINT('',(6.105,20.78,2.6));
#509 = VECTOR('',#510,1.);
#510 = DIRECTION('',(0.,0.,1.));
#511 = ORIENTED_EDGE('',*,*,#492,.T.);
#512 = ORIENTED_EDGE('',*,*,#63,.F.);
#513 = ORIENTED_EDGE('',*,*,#380,.F.);
#514 = PLANE('',#515);
#515 = AXIS2_PLACEMENT_3D('',#516,#517,#518);
#516 = CARTESIAN_POINT('',(6.105,20.78,2.6));
#517 = DIRECTION('',(-1.,0.,0.));
#518 = DIRECTION('',(0.,1.,0.));
#519 = ADVANCED_FACE('',(#520),#551,.F.);
#520 = FACE_BOUND('',#521,.F.);
#521 = EDGE_LOOP('',(#522,#523,#524,#532,#540,#546,#547,#548,#549,#550)
  );
#522 = ORIENTED_EDGE('',*,*,#244,.F.);
#523 = ORIENTED_EDGE('',*,*,#198,.F.);
#524 = ORIENTED_EDGE('',*,*,#525,.F.);
#525 = EDGE_CURVE('',#526,#191,#528,.T.);
#526 = VERTEX_POINT('',#527);
#527 = CARTESIAN_POINT('',(-10.305,20.78,5.41));
#528 = LINE('',#529,#530);
#529 = CARTESIAN_POINT('',(-10.305,20.78,2.6));
#530 = VECTOR('',#531,1.);
#531 = DIRECTION('',(0.,0.,-1.));
#532 = ORIENTED_EDGE('',*,*,#533,.T.);
#533 = EDGE_CURVE('',#526,#534,#536,.T.);
#534 = VERTEX_POINT('',#535);
#535 = CARTESIAN_POINT('',(10.305,20.78,5.41));
#536 = LINE('',#537,#538);
#537 = CARTESIAN_POINT('',(-10.305,20.78,5.41));
#538 = VECTOR('',#539,1.);
#539 = DIRECTION('',(1.,0.,0.));
#540 = ORIENTED_EDGE('',*,*,#541,.T.);
#541 = EDGE_CURVE('',#534,#389,#542,.T.);
#542 = LINE('',#543,#544);
#543 = CARTESIAN_POINT('',(10.305,20.78,2.6));
#544 = VECTOR('',#545,1.);
#545 = DIRECTION('',(0.,0.,-1.));
#546 = ORIENTED_EDGE('',*,*,#388,.F.);
#547 = ORIENTED_EDGE('',*,*,#506,.T.);
#548 = ORIENTED_EDGE('',*,*,#482,.F.);
#549 = ORIENTED_EDGE('',*,*,#354,.F.);
#550 = ORIENTED_EDGE('',*,*,#299,.F.);
#551 = PLANE('',#552);
#552 = AXIS2_PLACEMENT_3D('',#553,#554,#555);
#553 = CARTESIAN_POINT('',(-12.305,20.78,2.6));
#554 = DIRECTION('',(0.,1.,0.));
#555 = DIRECTION('',(1.,0.,0.));
#556 = ADVANCED_FACE('',(#557),#598,.T.);
#557 = FACE_BOUND('',#558,.T.);
#558 = EDGE_LOOP('',(#559,#560,#561,#569,#577,#585,#591,#592));
#559 = ORIENTED_EDGE('',*,*,#190,.F.);
#560 = ORIENTED_EDGE('',*,*,#525,.F.);
#561 = ORIENTED_EDGE('',*,*,#562,.F.);
#562 = EDGE_CURVE('',#563,#526,#565,.T.);
#563 = VERTEX_POINT('',#564);
#564 = CARTESIAN_POINT('',(-10.305,-13.,5.41));
#565 = LINE('',#566,#567);
#566 = CARTESIAN_POINT('',(-10.305,-13.,5.41));
#567 = VECTOR('',#568,1.);
#568 = DIRECTION('',(0.,1.,0.));
#569 = ORIENTED_EDGE('',*,*,#570,.F.);
#570 = EDGE_CURVE('',#571,#563,#573,.T.);
#571 = VERTEX_POINT('',#572);
#572 = CARTESIAN_POINT('',(-10.305,-13.,9.71));
#573 = LINE('',#574,#575);
#574 = CARTESIAN_POINT('',(-10.305,-13.,9.71));
#575 = VECTOR('',#576,1.);
#576 = DIRECTION('',(0.,0.,-1.));
#577 = ORIENTED_EDGE('',*,*,#578,.T.);
#578 = EDGE_CURVE('',#571,#579,#581,.T.);
#579 = VERTEX_POINT('',#580);
#580 = CARTESIAN_POINT('',(-10.305,-25.46,9.71));
#581 = LINE('',#582,#583);
#582 = CARTESIAN_POINT('',(-10.305,10.22,9.71));
#583 = VECTOR('',#584,1.);
#584 = DIRECTION('',(0.,-1.,0.));
#585 = ORIENTED_EDGE('',*,*,#586,.T.);
#586 = EDGE_CURVE('',#579,#151,#587,.T.);
#587 = LINE('',#588,#589);
#588 = CARTESIAN_POINT('',(-10.305,-25.46,2.6));
#589 = VECTOR('',#590,1.);
#590 = DIRECTION('',(0.,0.,-1.));
#591 = ORIENTED_EDGE('',*,*,#158,.F.);
#592 = ORIENTED_EDGE('',*,*,#593,.F.);
#593 = EDGE_CURVE('',#183,#159,#594,.T.);
#594 = LINE('',#595,#596);
#595 = CARTESIAN_POINT('',(-10.305,22.78,2.6));
#596 = VECTOR('',#597,1.);
#597 = DIRECTION('',(0.,-1.,0.));
#598 = PLANE('',#599);
#599 = AXIS2_PLACEMENT_3D('',#600,#601,#602);
#600 = CARTESIAN_POINT('',(-10.305,22.78,2.6));
#601 = DIRECTION('',(1.,0.,0.));
#602 = DIRECTION('',(0.,-1.,0.));
#603 = ADVANCED_FACE('',(#604),#627,.F.);
#604 = FACE_BOUND('',#605,.F.);
#605 = EDGE_LOOP('',(#606,#607,#614,#622));
#606 = ORIENTED_EDGE('',*,*,#182,.T.);
#607 = ORIENTED_EDGE('',*,*,#608,.T.);
#608 = EDGE_CURVE('',#175,#609,#611,.T.);
#609 = VERTEX_POINT('',#610);
#610 = CARTESIAN_POINT('',(-11.23515846101,4.930158461017,0.6));
#611 = B_SPLINE_CURVE_WITH_KNOTS('',1,(#612,#613),.UNSPECIFIED.,.F.,.F.,
  (2,2),(0.,1.),.PIECEWISE_BEZIER_KNOTS.);
#612 = CARTESIAN_POINT('',(-11.305,5.,2.6));
#613 = CARTESIAN_POINT('',(-11.23515846101,4.930158461017,0.6));
#614 = ORIENTED_EDGE('',*,*,#615,.F.);
#615 = EDGE_CURVE('',#616,#609,#618,.T.);
#616 = VERTEX_POINT('',#617);
#617 = CARTESIAN_POINT('',(-10.37484153898,4.930158461017,0.6));
#618 = LINE('',#619,#620);
#619 = CARTESIAN_POINT('',(-10.305,4.930158461017,0.6));
#620 = VECTOR('',#621,1.);
#621 = DIRECTION('',(-1.,0.,0.));
#622 = ORIENTED_EDGE('',*,*,#623,.F.);
#623 = EDGE_CURVE('',#183,#616,#624,.T.);
#624 = B_SPLINE_CURVE_WITH_KNOTS('',1,(#625,#626),.UNSPECIFIED.,.F.,.F.,
  (2,2),(0.,1.),.PIECEWISE_BEZIER_KNOTS.);
#625 = CARTESIAN_POINT('',(-10.305,5.,2.6));
#626 = CARTESIAN_POINT('',(-10.37484153898,4.930158461017,0.6));
#627 = B_SPLINE_SURFACE_WITH_KNOTS('',1,1,(
    (#628,#629)
    ,(#630,#631)),.UNSPECIFIED.,.F.,.F.,.F.,(2,2),(2,2),(0.,1.),(0.,1.),
  .PIECEWISE_BEZIER_KNOTS.);
#628 = CARTESIAN_POINT('',(-10.305,5.,2.6));
#629 = CARTESIAN_POINT('',(-10.37484153898,4.930158461017,0.6));
#630 = CARTESIAN_POINT('',(-11.305,5.,2.6));
#631 = CARTESIAN_POINT('',(-11.23515846101,4.930158461017,0.6));
#632 = ADVANCED_FACE('',(#633),#650,.F.);
#633 = FACE_BOUND('',#634,.F.);
#634 = EDGE_LOOP('',(#635,#636,#643,#649));
#635 = ORIENTED_EDGE('',*,*,#174,.T.);
#636 = ORIENTED_EDGE('',*,*,#637,.T.);
#637 = EDGE_CURVE('',#167,#638,#640,.T.);
#638 = VERTEX_POINT('',#639);
#639 = CARTESIAN_POINT('',(-11.23515846101,-4.930158461017,0.6));
#640 = B_SPLINE_CURVE_WITH_KNOTS('',1,(#641,#642),.UNSPECIFIED.,.F.,.F.,
  (2,2),(0.,1.),.PIECEWISE_BEZIER_KNOTS.);
#641 = CARTESIAN_POINT('',(-11.305,-5.,2.6));
#642 = CARTESIAN_POINT('',(-11.23515846101,-4.930158461017,0.6));
#643 = ORIENTED_EDGE('',*,*,#644,.F.);
#644 = EDGE_CURVE('',#609,#638,#645,.T.);
#645 = LINE('',#646,#647);
#646 = CARTESIAN_POINT('',(-11.23515846101,5.,0.6));
#647 = VECTOR('',#648,1.);
#648 = DIRECTION('',(0.,-1.,0.));
#649 = ORIENTED_EDGE('',*,*,#608,.F.);
#650 = B_SPLINE_SURFACE_WITH_KNOTS('',1,1,(
    (#651,#652)
    ,(#653,#654
  )),.UNSPECIFIED.,.F.,.F.,.F.,(2,2),(2,2),(0.,10.),(0.,1.),
  .PIECEWISE_BEZIER_KNOTS.);
#651 = CARTESIAN_POINT('',(-11.305,5.,2.6));
#652 = CARTESIAN_POINT('',(-11.23515846101,4.930158461017,0.6));
#653 = CARTESIAN_POINT('',(-11.305,-5.,2.6));
#654 = CARTESIAN_POINT('',(-11.23515846101,-4.930158461017,0.6));
#655 = ADVANCED_FACE('',(#656),#673,.F.);
#656 = FACE_BOUND('',#657,.F.);
#657 = EDGE_LOOP('',(#658,#659,#666,#672));
#658 = ORIENTED_EDGE('',*,*,#166,.T.);
#659 = ORIENTED_EDGE('',*,*,#660,.T.);
#660 = EDGE_CURVE('',#159,#661,#663,.T.);
#661 = VERTEX_POINT('',#662);
#662 = CARTESIAN_POINT('',(-10.37484153898,-4.930158461017,0.6));
#663 = B_SPLINE_CURVE_WITH_KNOTS('',1,(#664,#665),.UNSPECIFIED.,.F.,.F.,
  (2,2),(0.,1.),.PIECEWISE_BEZIER_KNOTS.);
#664 = CARTESIAN_POINT('',(-10.305,-5.,2.6));
#665 = CARTESIAN_POINT('',(-10.37484153898,-4.930158461017,0.6));
#666 = ORIENTED_EDGE('',*,*,#667,.F.);
#667 = EDGE_CURVE('',#638,#661,#668,.T.);
#668 = LINE('',#669,#670);
#669 = CARTESIAN_POINT('',(-11.305,-4.930158461017,0.6));
#670 = VECTOR('',#671,1.);
#671 = DIRECTION('',(1.,0.,0.));
#672 = ORIENTED_EDGE('',*,*,#637,.F.);
#673 = B_SPLINE_SURFACE_WITH_KNOTS('',1,1,(
    (#674,#675)
    ,(#676,#677)),.UNSPECIFIED.,.F.,.F.,.F.,(2,2),(2,2),(0.,1.),(0.,1.),
  .PIECEWISE_BEZIER_KNOTS.);
#674 = CARTESIAN_POINT('',(-11.305,-5.,2.6));
#675 = CARTESIAN_POINT('',(-11.23515846101,-4.930158461017,0.6));
#676 = CARTESIAN_POINT('',(-10.305,-5.,2.6));
#677 = CARTESIAN_POINT('',(-10.37484153898,-4.930158461017,0.6));
#678 = ADVANCED_FACE('',(#679),#736,.T.);
#679 = FACE_BOUND('',#680,.T.);
#680 = EDGE_LOOP('',(#681,#689,#690,#691,#699,#705,#706,#714,#722,#730)
  );
#681 = ORIENTED_EDGE('',*,*,#682,.F.);
#682 = EDGE_CURVE('',#143,#683,#685,.T.);
#683 = VERTEX_POINT('',#684);
#684 = CARTESIAN_POINT('',(-6.665,-25.46,8.33));
#685 = LINE('',#686,#687);
#686 = CARTESIAN_POINT('',(-6.665,-25.46,2.6));
#687 = VECTOR('',#688,1.);
#688 = DIRECTION('',(0.,0.,1.));
#689 = ORIENTED_EDGE('',*,*,#150,.F.);
#690 = ORIENTED_EDGE('',*,*,#586,.F.);
#691 = ORIENTED_EDGE('',*,*,#692,.T.);
#692 = EDGE_CURVE('',#579,#693,#695,.T.);
#693 = VERTEX_POINT('',#694);
#694 = CARTESIAN_POINT('',(10.305,-25.46,9.71));
#695 = LINE('',#696,#697);
#696 = CARTESIAN_POINT('',(-6.1525,-25.46,9.71));
#697 = VECTOR('',#698,1.);
#698 = DIRECTION('',(1.,2.02E-15,0.));
#699 = ORIENTED_EDGE('',*,*,#700,.F.);
#700 = EDGE_CURVE('',#429,#693,#701,.T.);
#701 = LINE('',#702,#703);
#702 = CARTESIAN_POINT('',(10.305,-25.46,2.6));
#703 = VECTOR('',#704,1.);
#704 = DIRECTION('',(0.,0.,1.));
#705 = ORIENTED_EDGE('',*,*,#436,.F.);
#706 = ORIENTED_EDGE('',*,*,#707,.T.);
#707 = EDGE_CURVE('',#437,#708,#710,.T.);
#708 = VERTEX_POINT('',#709);
#709 = CARTESIAN_POINT('',(6.665,-25.46,8.33));
#710 = LINE('',#711,#712);
#711 = CARTESIAN_POINT('',(6.665,-25.46,2.6));
#712 = VECTOR('',#713,1.);
#713 = DIRECTION('',(0.,0.,1.));
#714 = ORIENTED_EDGE('',*,*,#715,.T.);
#715 = EDGE_CURVE('',#708,#716,#718,.T.);
#716 = VERTEX_POINT('',#717);
#717 = CARTESIAN_POINT('',(6.225,-25.46,8.77));
#718 = LINE('',#719,#720);
#719 = CARTESIAN_POINT('',(3.245,-25.46,11.75));
#720 = VECTOR('',#721,1.);
#721 = DIRECTION('',(-0.707106781187,-1.43E-15,0.707106781187));
#722 = ORIENTED_EDGE('',*,*,#723,.T.);
#723 = EDGE_CURVE('',#716,#724,#726,.T.);
#724 = VERTEX_POINT('',#725);
#725 = CARTESIAN_POINT('',(-6.225,-25.46,8.77));
#726 = LINE('',#727,#728);
#727 = CARTESIAN_POINT('',(6.665,-25.46,8.77));
#728 = VECTOR('',#729,1.);
#729 = DIRECTION('',(-1.,-2.4E-15,0.));
#730 = ORIENTED_EDGE('',*,*,#731,.F.);
#731 = EDGE_CURVE('',#683,#724,#732,.T.);
#732 = LINE('',#733,#734);
#733 = CARTESIAN_POINT('',(-9.3975,-25.46,5.5975));
#734 = VECTOR('',#735,1.);
#735 = DIRECTION('',(0.707106781187,1.43E-15,0.707106781187));
#736 = PLANE('',#737);
#737 = AXIS2_PLACEMENT_3D('',#738,#739,#740);
#738 = CARTESIAN_POINT('',(-12.305,-25.46,2.6));
#739 = DIRECTION('',(-2.02E-15,1.,0.));
#740 = DIRECTION('',(1.,2.02E-15,0.));
#741 = ADVANCED_FACE('',(#742),#760,.F.);
#742 = FACE_BOUND('',#743,.F.);
#743 = EDGE_LOOP('',(#744,#752,#758,#759));
#744 = ORIENTED_EDGE('',*,*,#745,.T.);
#745 = EDGE_CURVE('',#135,#746,#748,.T.);
#746 = VERTEX_POINT('',#747);
#747 = CARTESIAN_POINT('',(-6.665,-27.46,8.33));
#748 = LINE('',#749,#750);
#749 = CARTESIAN_POINT('',(-6.665,-27.46,2.6));
#750 = VECTOR('',#751,1.);
#751 = DIRECTION('',(0.,0.,1.));
#752 = ORIENTED_EDGE('',*,*,#753,.T.);
#753 = EDGE_CURVE('',#746,#683,#754,.T.);
#754 = LINE('',#755,#756);
#755 = CARTESIAN_POINT('',(-6.665,-27.46,8.33));
#756 = VECTOR('',#757,1.);
#757 = DIRECTION('',(0.,1.,0.));
#758 = ORIENTED_EDGE('',*,*,#682,.F.);
#759 = ORIENTED_EDGE('',*,*,#142,.F.);
#760 = PLANE('',#761);
#761 = AXIS2_PLACEMENT_3D('',#762,#763,#764);
#762 = CARTESIAN_POINT('',(-6.665,-27.46,2.6));
#763 = DIRECTION('',(-1.,0.,0.));
#764 = DIRECTION('',(0.,1.,0.));
#765 = ADVANCED_FACE('',(#766),#823,.F.);
#766 = FACE_BOUND('',#767,.F.);
#767 = EDGE_LOOP('',(#768,#778,#784,#785,#793,#801,#809,#815,#816,#817)
  );
#768 = ORIENTED_EDGE('',*,*,#769,.T.);
#769 = EDGE_CURVE('',#770,#772,#774,.T.);
#770 = VERTEX_POINT('',#771);
#771 = CARTESIAN_POINT('',(-11.905,-27.46,9.01));
#772 = VERTEX_POINT('',#773);
#773 = CARTESIAN_POINT('',(11.905,-27.46,9.01));
#774 = LINE('',#775,#776);
#775 = CARTESIAN_POINT('',(-12.305,-27.46,9.01));
#776 = VECTOR('',#777,1.);
#777 = DIRECTION('',(1.,2.02E-15,0.));
#778 = ORIENTED_EDGE('',*,*,#779,.F.);
#779 = EDGE_CURVE('',#453,#772,#780,.T.);
#780 = LINE('',#781,#782);
#781 = CARTESIAN_POINT('',(11.905,-27.46,2.6));
#782 = VECTOR('',#783,1.);
#783 = DIRECTION('',(0.,0.,1.));
#784 = ORIENTED_EDGE('',*,*,#452,.F.);
#785 = ORIENTED_EDGE('',*,*,#786,.T.);
#786 = EDGE_CURVE('',#445,#787,#789,.T.);
#787 = VERTEX_POINT('',#788);
#788 = CARTESIAN_POINT('',(6.665,-27.46,8.33));
#789 = LINE('',#790,#791);
#790 = CARTESIAN_POINT('',(6.665,-27.46,2.6));
#791 = VECTOR('',#792,1.);
#792 = DIRECTION('',(0.,0.,1.));
#793 = ORIENTED_EDGE('',*,*,#794,.T.);
#794 = EDGE_CURVE('',#787,#795,#797,.T.);
#795 = VERTEX_POINT('',#796);
#796 = CARTESIAN_POINT('',(6.225,-27.46,8.77));
#797 = LINE('',#798,#799);
#798 = CARTESIAN_POINT('',(3.245,-27.46,11.75));
#799 = VECTOR('',#800,1.);
#800 = DIRECTION('',(-0.707106781187,-1.43E-15,0.707106781187));
#801 = ORIENTED_EDGE('',*,*,#802,.F.);
#802 = EDGE_CURVE('',#803,#795,#805,.T.);
#803 = VERTEX_POINT('',#804);
#804 = CARTESIAN_POINT('',(-6.225,-27.46,8.77));
#805 = LINE('',#806,#807);
#806 = CARTESIAN_POINT('',(-6.665,-27.46,8.77));
#807 = VECTOR('',#808,1.);
#808 = DIRECTION('',(1.,0.,0.));
#809 = ORIENTED_EDGE('',*,*,#810,.F.);
#810 = EDGE_CURVE('',#746,#803,#811,.T.);
#811 = LINE('',#812,#813);
#812 = CARTESIAN_POINT('',(-9.3975,-27.46,5.5975));
#813 = VECTOR('',#814,1.);
#814 = DIRECTION('',(0.707106781187,1.43E-15,0.707106781187));
#815 = ORIENTED_EDGE('',*,*,#745,.F.);
#816 = ORIENTED_EDGE('',*,*,#134,.F.);
#817 = ORIENTED_EDGE('',*,*,#818,.T.);
#818 = EDGE_CURVE('',#127,#770,#819,.T.);
#819 = LINE('',#820,#821);
#820 = CARTESIAN_POINT('',(-11.905,-27.46,2.6));
#821 = VECTOR('',#822,1.);
#822 = DIRECTION('',(0.,0.,1.));
#823 = PLANE('',#824);
#824 = AXIS2_PLACEMENT_3D('',#825,#826,#827);
#825 = CARTESIAN_POINT('',(-12.305,-27.46,2.6));
#826 = DIRECTION('',(-2.02E-15,1.,0.));
#827 = DIRECTION('',(1.,2.02E-15,0.));
#828 = ADVANCED_FACE('',(#829),#847,.F.);
#829 = FACE_BOUND('',#830,.T.);
#830 = EDGE_LOOP('',(#831,#832,#833,#841));
#831 = ORIENTED_EDGE('',*,*,#126,.F.);
#832 = ORIENTED_EDGE('',*,*,#818,.T.);
#833 = ORIENTED_EDGE('',*,*,#834,.T.);
#834 = EDGE_CURVE('',#770,#835,#837,.T.);
#835 = VERTEX_POINT('',#836);
#836 = CARTESIAN_POINT('',(-12.305,-27.06,8.844314575051));
#837 = LINE('',#838,#839);
#838 = CARTESIAN_POINT('',(-12.70053142659,-26.6644685734,8.68048009381)
  );
#839 = VECTOR('',#840,1.);
#840 = DIRECTION('',(-0.678598344546,0.678598344546,-0.281084637715));
#841 = ORIENTED_EDGE('',*,*,#842,.F.);
#842 = EDGE_CURVE('',#119,#835,#843,.T.);
#843 = LINE('',#844,#845);
#844 = CARTESIAN_POINT('',(-12.305,-27.06,2.6));
#845 = VECTOR('',#846,1.);
#846 = DIRECTION('',(0.,0.,1.));
#847 = PLANE('',#848);
#848 = AXIS2_PLACEMENT_3D('',#849,#850,#851);
#849 = CARTESIAN_POINT('',(-12.105,-27.26,2.6));
#850 = DIRECTION('',(0.707106781187,0.707106781187,0.));
#851 = DIRECTION('',(-0.,-0.,-1.));
#852 = ADVANCED_FACE('',(#853),#896,.T.);
#853 = FACE_BOUND('',#854,.T.);
#854 = EDGE_LOOP('',(#855,#856,#857,#865,#873,#881,#889,#895));
#855 = ORIENTED_EDGE('',*,*,#118,.T.);
#856 = ORIENTED_EDGE('',*,*,#842,.T.);
#857 = ORIENTED_EDGE('',*,*,#858,.T.);
#858 = EDGE_CURVE('',#835,#859,#861,.T.);
#859 = VERTEX_POINT('',#860);
#860 = CARTESIAN_POINT('',(-12.305,-24.59431457505,11.31));
#861 = LINE('',#862,#863);
#862 = CARTESIAN_POINT('',(-12.305,-27.17715728752,8.727157287525));
#863 = VECTOR('',#864,1.);
#864 = DIRECTION('',(0.,0.707106781187,0.707106781187));
#865 = ORIENTED_EDGE('',*,*,#866,.F.);
#866 = EDGE_CURVE('',#867,#859,#869,.T.);
#867 = VERTEX_POINT('',#868);
#868 = CARTESIAN_POINT('',(-12.305,-11.16568542494,11.31));
#869 = LINE('',#870,#871);
#870 = CARTESIAN_POINT('',(-12.305,-11.,11.31));
#871 = VECTOR('',#872,1.);
#872 = DIRECTION('',(0.,-1.,0.));
#873 = ORIENTED_EDGE('',*,*,#874,.F.);
#874 = EDGE_CURVE('',#875,#867,#877,.T.);
#875 = VERTEX_POINT('',#876);
#876 = CARTESIAN_POINT('',(-12.305,-6.865685424949,7.01));
#877 = LINE('',#878,#879);
#878 = CARTESIAN_POINT('',(-12.305,-6.982842712475,7.127157287525));
#879 = VECTOR('',#880,1.);
#880 = DIRECTION('',(0.,-0.707106781187,0.707106781187));
#881 = ORIENTED_EDGE('',*,*,#882,.F.);
#882 = EDGE_CURVE('',#883,#875,#885,.T.);
#883 = VERTEX_POINT('',#884);
#884 = CARTESIAN_POINT('',(-12.305,20.394314575051,7.01));
#885 = LINE('',#886,#887);
#886 = CARTESIAN_POINT('',(-12.305,20.56,7.01));
#887 = VECTOR('',#888,1.);
#888 = DIRECTION('',(0.,-1.,2.2E-16));
#889 = ORIENTED_EDGE('',*,*,#890,.T.);
#890 = EDGE_CURVE('',#883,#223,#891,.T.);
#891 = LINE('',#892,#893);
#892 = CARTESIAN_POINT('',(-12.305,20.277157287525,7.127157287525));
#893 = VECTOR('',#894,1.);
#894 = DIRECTION('',(0.,0.707106781187,-0.707106781187));
#895 = ORIENTED_EDGE('',*,*,#230,.F.);
#896 = PLANE('',#897);
#897 = AXIS2_PLACEMENT_3D('',#898,#899,#900);
#898 = CARTESIAN_POINT('',(-12.305,-3.32905329984,5.812240873355));
#899 = DIRECTION('',(-1.,-0.,-0.));
#900 = DIRECTION('',(0.,0.,-1.));
#901 = ADVANCED_FACE('',(#902),#913,.F.);
#902 = FACE_BOUND('',#903,.T.);
#903 = EDGE_LOOP('',(#904,#910,#911,#912));
#904 = ORIENTED_EDGE('',*,*,#905,.F.);
#905 = EDGE_CURVE('',#271,#883,#906,.T.);
#906 = LINE('',#907,#908);
#907 = CARTESIAN_POINT('',(-12.08919828528,20.483702572068,
    7.225801714712));
#908 = VECTOR('',#909,1.);
#909 = DIRECTION('',(-0.678598344546,-0.281084637715,-0.678598344546));
#910 = ORIENTED_EDGE('',*,*,#278,.T.);
#911 = ORIENTED_EDGE('',*,*,#222,.T.);
#912 = ORIENTED_EDGE('',*,*,#890,.F.);
#913 = PLANE('',#914);
#914 = AXIS2_PLACEMENT_3D('',#915,#916,#917);
#915 = CARTESIAN_POINT('',(-12.105,20.418578643763,7.268578643763));
#916 = DIRECTION('',(0.707106781187,-0.5,-0.5));
#917 = DIRECTION('',(0.,-0.707106781187,0.707106781187));
#918 = ADVANCED_FACE('',(#919),#944,.F.);
#919 = FACE_BOUND('',#920,.F.);
#920 = EDGE_LOOP('',(#921,#931,#937,#938));
#921 = ORIENTED_EDGE('',*,*,#922,.T.);
#922 = EDGE_CURVE('',#923,#925,#927,.T.);
#923 = VERTEX_POINT('',#924);
#924 = CARTESIAN_POINT('',(11.905,-6.7,7.41));
#925 = VERTEX_POINT('',#926);
#926 = CARTESIAN_POINT('',(-11.905,-6.7,7.41));
#927 = LINE('',#928,#929);
#928 = CARTESIAN_POINT('',(12.305,-6.7,7.41));
#929 = VECTOR('',#930,1.);
#930 = DIRECTION('',(-1.,-0.,-0.));
#931 = ORIENTED_EDGE('',*,*,#932,.F.);
#932 = EDGE_CURVE('',#271,#925,#933,.T.);
#933 = LINE('',#934,#935);
#934 = CARTESIAN_POINT('',(-11.905,20.56,7.41));
#935 = VECTOR('',#936,1.);
#936 = DIRECTION('',(0.,-1.,2.2E-16));
#937 = ORIENTED_EDGE('',*,*,#268,.F.);
#938 = ORIENTED_EDGE('',*,*,#939,.T.);
#939 = EDGE_CURVE('',#269,#923,#940,.T.);
#940 = LINE('',#941,#942);
#941 = CARTESIAN_POINT('',(11.905,20.56,7.41));
#942 = VECTOR('',#943,1.);
#943 = DIRECTION('',(0.,-1.,2.2E-16));
#944 = PLANE('',#945);
#945 = AXIS2_PLACEMENT_3D('',#946,#947,#948);
#946 = CARTESIAN_POINT('',(12.305,22.78,7.41));
#947 = DIRECTION('',(-0.,-2.2E-16,-1.));
#948 = DIRECTION('',(-1.,0.,0.));
#949 = ADVANCED_FACE('',(#950),#968,.F.);
#950 = FACE_BOUND('',#951,.F.);
#951 = EDGE_LOOP('',(#952,#960,#961,#962));
#952 = ORIENTED_EDGE('',*,*,#953,.F.);
#953 = EDGE_CURVE('',#269,#954,#956,.T.);
#954 = VERTEX_POINT('',#955);
#955 = CARTESIAN_POINT('',(12.305,20.394314575051,7.01));
#956 = LINE('',#957,#958);
#957 = CARTESIAN_POINT('',(12.089198285288,20.483702572068,
    7.225801714712));
#958 = VECTOR('',#959,1.);
#959 = DIRECTION('',(0.678598344546,-0.281084637715,-0.678598344546));
#960 = ORIENTED_EDGE('',*,*,#285,.T.);
#961 = ORIENTED_EDGE('',*,*,#332,.T.);
#962 = ORIENTED_EDGE('',*,*,#963,.F.);
#963 = EDGE_CURVE('',#954,#333,#964,.T.);
#964 = LINE('',#965,#966);
#965 = CARTESIAN_POINT('',(12.305,20.277157287525,7.127157287525));
#966 = VECTOR('',#967,1.);
#967 = DIRECTION('',(0.,0.707106781187,-0.707106781187));
#968 = PLANE('',#969);
#969 = AXIS2_PLACEMENT_3D('',#970,#971,#972);
#970 = CARTESIAN_POINT('',(12.105,20.418578643763,7.268578643763));
#971 = DIRECTION('',(-0.707106781187,-0.5,-0.5));
#972 = DIRECTION('',(1.387778780781E-16,0.707106781187,-0.707106781187)
  );
#973 = ADVANCED_FACE('',(#974),#1017,.T.);
#974 = FACE_BOUND('',#975,.T.);
#975 = EDGE_LOOP('',(#976,#977,#978,#979,#987,#995,#1003,#1011));
#976 = ORIENTED_EDGE('',*,*,#468,.F.);
#977 = ORIENTED_EDGE('',*,*,#340,.T.);
#978 = ORIENTED_EDGE('',*,*,#963,.F.);
#979 = ORIENTED_EDGE('',*,*,#980,.T.);
#980 = EDGE_CURVE('',#954,#981,#983,.T.);
#981 = VERTEX_POINT('',#982);
#982 = CARTESIAN_POINT('',(12.305,-6.865685424949,7.01));
#983 = LINE('',#984,#985);
#984 = CARTESIAN_POINT('',(12.305,20.56,7.01));
#985 = VECTOR('',#986,1.);
#986 = DIRECTION('',(0.,-1.,2.2E-16));
#987 = ORIENTED_EDGE('',*,*,#988,.F.);
#988 = EDGE_CURVE('',#989,#981,#991,.T.);
#989 = VERTEX_POINT('',#990);
#990 = CARTESIAN_POINT('',(12.305,-11.16568542494,11.31));
#991 = LINE('',#992,#993);
#992 = CARTESIAN_POINT('',(12.305,-11.28284271247,11.427157287525));
#993 = VECTOR('',#994,1.);
#994 = DIRECTION('',(0.,0.707106781187,-0.707106781187));
#995 = ORIENTED_EDGE('',*,*,#996,.T.);
#996 = EDGE_CURVE('',#989,#997,#999,.T.);
#997 = VERTEX_POINT('',#998);
#998 = CARTESIAN_POINT('',(12.305,-24.59431457505,11.31));
#999 = LINE('',#1000,#1001);
#1000 = CARTESIAN_POINT('',(12.305,-11.,11.31));
#1001 = VECTOR('',#1002,1.);
#1002 = DIRECTION('',(0.,-1.,0.));
#1003 = ORIENTED_EDGE('',*,*,#1004,.F.);
#1004 = EDGE_CURVE('',#1005,#997,#1007,.T.);
#1005 = VERTEX_POINT('',#1006);
#1006 = CARTESIAN_POINT('',(12.305,-27.06,8.844314575051));
#1007 = LINE('',#1008,#1009);
#1008 = CARTESIAN_POINT('',(12.305,-27.17715728752,8.727157287525));
#1009 = VECTOR('',#1010,1.);
#1010 = DIRECTION('',(0.,0.707106781187,0.707106781187));
#1011 = ORIENTED_EDGE('',*,*,#1012,.F.);
#1012 = EDGE_CURVE('',#461,#1005,#1013,.T.);
#1013 = LINE('',#1014,#1015);
#1014 = CARTESIAN_POINT('',(12.305,-27.06,2.6));
#1015 = VECTOR('',#1016,1.);
#1016 = DIRECTION('',(0.,0.,1.));
#1017 = PLANE('',#1018);
#1018 = AXIS2_PLACEMENT_3D('',#1019,#1020,#1021);
#1019 = CARTESIAN_POINT('',(12.305,-3.32905329984,5.812240873355));
#1020 = DIRECTION('',(1.,0.,0.));
#1021 = DIRECTION('',(0.,0.,1.));
#1022 = ADVANCED_FACE('',(#1023),#1034,.F.);
#1023 = FACE_BOUND('',#1024,.F.);
#1024 = EDGE_LOOP('',(#1025,#1026,#1027,#1033));
#1025 = ORIENTED_EDGE('',*,*,#460,.F.);
#1026 = ORIENTED_EDGE('',*,*,#779,.T.);
#1027 = ORIENTED_EDGE('',*,*,#1028,.T.);
#1028 = EDGE_CURVE('',#772,#1005,#1029,.T.);
#1029 = LINE('',#1030,#1031);
#1030 = CARTESIAN_POINT('',(12.700531426595,-26.6644685734,8.68048009381
    ));
#1031 = VECTOR('',#1032,1.);
#1032 = DIRECTION('',(0.678598344546,0.678598344546,-0.281084637715));
#1033 = ORIENTED_EDGE('',*,*,#1012,.F.);
#1034 = PLANE('',#1035);
#1035 = AXIS2_PLACEMENT_3D('',#1036,#1037,#1038);
#1036 = CARTESIAN_POINT('',(12.105,-27.26,2.6));
#1037 = DIRECTION('',(-0.707106781187,0.707106781187,0.));
#1038 = DIRECTION('',(0.,0.,1.));
#1039 = ADVANCED_FACE('',(#1040),#1051,.T.);
#1040 = FACE_BOUND('',#1041,.T.);
#1041 = EDGE_LOOP('',(#1042,#1043,#1049,#1050));
#1042 = ORIENTED_EDGE('',*,*,#786,.T.);
#1043 = ORIENTED_EDGE('',*,*,#1044,.T.);
#1044 = EDGE_CURVE('',#787,#708,#1045,.T.);
#1045 = LINE('',#1046,#1047);
#1046 = CARTESIAN_POINT('',(6.665,-27.46,8.33));
#1047 = VECTOR('',#1048,1.);
#1048 = DIRECTION('',(0.,1.,0.));
#1049 = ORIENTED_EDGE('',*,*,#707,.F.);
#1050 = ORIENTED_EDGE('',*,*,#444,.F.);
#1051 = PLANE('',#1052);
#1052 = AXIS2_PLACEMENT_3D('',#1053,#1054,#1055);
#1053 = CARTESIAN_POINT('',(6.665,-27.46,2.6));
#1054 = DIRECTION('',(-1.,0.,0.));
#1055 = DIRECTION('',(0.,1.,0.));
#1056 = ADVANCED_FACE('',(#1057),#1091,.F.);
#1057 = FACE_BOUND('',#1058,.F.);
#1058 = EDGE_LOOP('',(#1059,#1060,#1061,#1069,#1077,#1083,#1084,#1085));
#1059 = ORIENTED_EDGE('',*,*,#396,.F.);
#1060 = ORIENTED_EDGE('',*,*,#541,.F.);
#1061 = ORIENTED_EDGE('',*,*,#1062,.T.);
#1062 = EDGE_CURVE('',#534,#1063,#1065,.T.);
#1063 = VERTEX_POINT('',#1064);
#1064 = CARTESIAN_POINT('',(10.305,-13.,5.41));
#1065 = LINE('',#1066,#1067);
#1066 = CARTESIAN_POINT('',(10.305,20.78,5.41));
#1067 = VECTOR('',#1068,1.);
#1068 = DIRECTION('',(0.,-1.,0.));
#1069 = ORIENTED_EDGE('',*,*,#1070,.F.);
#1070 = EDGE_CURVE('',#1071,#1063,#1073,.T.);
#1071 = VERTEX_POINT('',#1072);
#1072 = CARTESIAN_POINT('',(10.305,-13.,9.71));
#1073 = LINE('',#1074,#1075);
#1074 = CARTESIAN_POINT('',(10.305,-13.,9.71));
#1075 = VECTOR('',#1076,1.);
#1076 = DIRECTION('',(0.,0.,-1.));
#1077 = ORIENTED_EDGE('',*,*,#1078,.T.);
#1078 = EDGE_CURVE('',#1071,#693,#1079,.T.);
#1079 = LINE('',#1080,#1081);
#1080 = CARTESIAN_POINT('',(10.305,10.22,9.71));
#1081 = VECTOR('',#1082,1.);
#1082 = DIRECTION('',(0.,-1.,0.));
#1083 = ORIENTED_EDGE('',*,*,#700,.F.);
#1084 = ORIENTED_EDGE('',*,*,#428,.F.);
#1085 = ORIENTED_EDGE('',*,*,#1086,.F.);
#1086 = EDGE_CURVE('',#397,#421,#1087,.T.);
#1087 = LINE('',#1088,#1089);
#1088 = CARTESIAN_POINT('',(10.305,22.78,2.6));
#1089 = VECTOR('',#1090,1.);
#1090 = DIRECTION('',(0.,-1.,0.));
#1091 = PLANE('',#1092);
#1092 = AXIS2_PLACEMENT_3D('',#1093,#1094,#1095);
#1093 = CARTESIAN_POINT('',(10.305,22.78,2.6));
#1094 = DIRECTION('',(1.,0.,0.));
#1095 = DIRECTION('',(0.,-1.,0.));
#1096 = ADVANCED_FACE('',(#1097),#1120,.F.);
#1097 = FACE_BOUND('',#1098,.F.);
#1098 = EDGE_LOOP('',(#1099,#1100,#1107,#1115));
#1099 = ORIENTED_EDGE('',*,*,#420,.T.);
#1100 = ORIENTED_EDGE('',*,*,#1101,.T.);
#1101 = EDGE_CURVE('',#413,#1102,#1104,.T.);
#1102 = VERTEX_POINT('',#1103);
#1103 = CARTESIAN_POINT('',(11.235158461017,-4.930158461017,0.6));
#1104 = B_SPLINE_CURVE_WITH_KNOTS('',1,(#1105,#1106),.UNSPECIFIED.,.F.,
  .F.,(2,2),(0.,1.),.PIECEWISE_BEZIER_KNOTS.);
#1105 = CARTESIAN_POINT('',(11.305,-5.,2.6));
#1106 = CARTESIAN_POINT('',(11.235158461017,-4.930158461017,0.6));
#1107 = ORIENTED_EDGE('',*,*,#1108,.F.);
#1108 = EDGE_CURVE('',#1109,#1102,#1111,.T.);
#1109 = VERTEX_POINT('',#1110);
#1110 = CARTESIAN_POINT('',(10.374841538983,-4.930158461017,0.6));
#1111 = LINE('',#1112,#1113);
#1112 = CARTESIAN_POINT('',(10.305,-4.930158461017,0.6));
#1113 = VECTOR('',#1114,1.);
#1114 = DIRECTION('',(1.,0.,0.));
#1115 = ORIENTED_EDGE('',*,*,#1116,.F.);
#1116 = EDGE_CURVE('',#421,#1109,#1117,.T.);
#1117 = B_SPLINE_CURVE_WITH_KNOTS('',1,(#1118,#1119),.UNSPECIFIED.,.F.,
  .F.,(2,2),(0.,1.),.PIECEWISE_BEZIER_KNOTS.);
#1118 = CARTESIAN_POINT('',(10.305,-5.,2.6));
#1119 = CARTESIAN_POINT('',(10.374841538983,-4.930158461017,0.6));
#1120 = B_SPLINE_SURFACE_WITH_KNOTS('',1,1,(
    (#1121,#1122)
    ,(#1123,#1124
    )),.UNSPECIFIED.,.F.,.F.,.F.,(2,2),(2,2),(0.,1.),(0.,1.),
  .PIECEWISE_BEZIER_KNOTS.);
#1121 = CARTESIAN_POINT('',(10.305,-5.,2.6));
#1122 = CARTESIAN_POINT('',(10.374841538983,-4.930158461017,0.6));
#1123 = CARTESIAN_POINT('',(11.305,-5.,2.6));
#1124 = CARTESIAN_POINT('',(11.235158461017,-4.930158461017,0.6));
#1125 = ADVANCED_FACE('',(#1126),#1143,.F.);
#1126 = FACE_BOUND('',#1127,.F.);
#1127 = EDGE_LOOP('',(#1128,#1129,#1136,#1142));
#1128 = ORIENTED_EDGE('',*,*,#412,.T.);
#1129 = ORIENTED_EDGE('',*,*,#1130,.T.);
#1130 = EDGE_CURVE('',#405,#1131,#1133,.T.);
#1131 = VERTEX_POINT('',#1132);
#1132 = CARTESIAN_POINT('',(11.235158461017,4.930158461017,0.6));
#1133 = B_SPLINE_CURVE_WITH_KNOTS('',1,(#1134,#1135),.UNSPECIFIED.,.F.,
  .F.,(2,2),(0.,1.),.PIECEWISE_BEZIER_KNOTS.);
#1134 = CARTESIAN_POINT('',(11.305,5.,2.6));
#1135 = CARTESIAN_POINT('',(11.235158461017,4.930158461017,0.6));
#1136 = ORIENTED_EDGE('',*,*,#1137,.F.);
#1137 = EDGE_CURVE('',#1102,#1131,#1138,.T.);
#1138 = LINE('',#1139,#1140);
#1139 = CARTESIAN_POINT('',(11.235158461017,-5.,0.6));
#1140 = VECTOR('',#1141,1.);
#1141 = DIRECTION('',(0.,1.,0.));
#1142 = ORIENTED_EDGE('',*,*,#1101,.F.);
#1143 = B_SPLINE_SURFACE_WITH_KNOTS('',1,1,(
    (#1144,#1145)
    ,(#1146,#1147
    )),.UNSPECIFIED.,.F.,.F.,.F.,(2,2),(2,2),(0.,10.),(0.,1.),
  .PIECEWISE_BEZIER_KNOTS.);
#1144 = CARTESIAN_POINT('',(11.305,-5.,2.6));
#1145 = CARTESIAN_POINT('',(11.235158461017,-4.930158461017,0.6));
#1146 = CARTESIAN_POINT('',(11.305,5.,2.6));
#1147 = CARTESIAN_POINT('',(11.235158461017,4.930158461017,0.6));
#1148 = ADVANCED_FACE('',(#1149),#1166,.F.);
#1149 = FACE_BOUND('',#1150,.F.);
#1150 = EDGE_LOOP('',(#1151,#1152,#1159,#1165));
#1151 = ORIENTED_EDGE('',*,*,#404,.T.);
#1152 = ORIENTED_EDGE('',*,*,#1153,.T.);
#1153 = EDGE_CURVE('',#397,#1154,#1156,.T.);
#1154 = VERTEX_POINT('',#1155);
#1155 = CARTESIAN_POINT('',(10.374841538983,4.930158461017,0.6));
#1156 = B_SPLINE_CURVE_WITH_KNOTS('',1,(#1157,#1158),.UNSPECIFIED.,.F.,
  .F.,(2,2),(0.,1.),.PIECEWISE_BEZIER_KNOTS.);
#1157 = CARTESIAN_POINT('',(10.305,5.,2.6));
#1158 = CARTESIAN_POINT('',(10.374841538983,4.930158461017,0.6));
#1159 = ORIENTED_EDGE('',*,*,#1160,.F.);
#1160 = EDGE_CURVE('',#1131,#1154,#1161,.T.);
#1161 = LINE('',#1162,#1163);
#1162 = CARTESIAN_POINT('',(11.305,4.930158461017,0.6));
#1163 = VECTOR('',#1164,1.);
#1164 = DIRECTION('',(-1.,0.,0.));
#1165 = ORIENTED_EDGE('',*,*,#1130,.F.);
#1166 = B_SPLINE_SURFACE_WITH_KNOTS('',1,1,(
    (#1167,#1168)
    ,(#1169,#1170
    )),.UNSPECIFIED.,.F.,.F.,.F.,(2,2),(2,2),(0.,1.),(0.,1.),
  .PIECEWISE_BEZIER_KNOTS.);
#1167 = CARTESIAN_POINT('',(11.305,5.,2.6));
#1168 = CARTESIAN_POINT('',(11.235158461017,4.930158461017,0.6));
#1169 = CARTESIAN_POINT('',(10.305,5.,2.6));
#1170 = CARTESIAN_POINT('',(10.374841538983,4.930158461017,0.6));
#1171 = ADVANCED_FACE('',(#1172,#1183),#1194,.F.);
#1172 = FACE_BOUND('',#1173,.F.);
#1173 = EDGE_LOOP('',(#1174,#1180,#1181,#1182));
#1174 = ORIENTED_EDGE('',*,*,#1175,.T.);
#1175 = EDGE_CURVE('',#563,#1063,#1176,.T.);
#1176 = LINE('',#1177,#1178);
#1177 = CARTESIAN_POINT('',(-10.305,-13.,5.41));
#1178 = VECTOR('',#1179,1.);
#1179 = DIRECTION('',(1.,0.,0.));
#1180 = ORIENTED_EDGE('',*,*,#1062,.F.);
#1181 = ORIENTED_EDGE('',*,*,#533,.F.);
#1182 = ORIENTED_EDGE('',*,*,#562,.F.);
#1183 = FACE_BOUND('',#1184,.F.);
#1184 = EDGE_LOOP('',(#1185));
#1185 = ORIENTED_EDGE('',*,*,#1186,.T.);
#1186 = EDGE_CURVE('',#1187,#1187,#1189,.T.);
#1187 = VERTEX_POINT('',#1188);
#1188 = CARTESIAN_POINT('',(9.005,-6.88,5.41));
#1189 = CIRCLE('',#1190,2.5);
#1190 = AXIS2_PLACEMENT_3D('',#1191,#1192,#1193);
#1191 = CARTESIAN_POINT('',(6.505,-6.88,5.41));
#1192 = DIRECTION('',(0.,0.,-1.));
#1193 = DIRECTION('',(1.,0.,0.));
#1194 = PLANE('',#1195);
#1195 = AXIS2_PLACEMENT_3D('',#1196,#1197,#1198);
#1196 = CARTESIAN_POINT('',(0.,3.89,5.41));
#1197 = DIRECTION('',(0.,0.,1.));
#1198 = DIRECTION('',(1.,0.,0.));
#1199 = ADVANCED_FACE('',(#1200),#1211,.F.);
#1200 = FACE_BOUND('',#1201,.F.);
#1201 = EDGE_LOOP('',(#1202,#1203,#1204,#1210));
#1202 = ORIENTED_EDGE('',*,*,#593,.F.);
#1203 = ORIENTED_EDGE('',*,*,#623,.T.);
#1204 = ORIENTED_EDGE('',*,*,#1205,.F.);
#1205 = EDGE_CURVE('',#661,#616,#1206,.T.);
#1206 = LINE('',#1207,#1208);
#1207 = CARTESIAN_POINT('',(-10.37484153898,-5.,0.6));
#1208 = VECTOR('',#1209,1.);
#1209 = DIRECTION('',(0.,1.,0.));
#1210 = ORIENTED_EDGE('',*,*,#660,.F.);
#1211 = B_SPLINE_SURFACE_WITH_KNOTS('',1,1,(
    (#1212,#1213)
    ,(#1214,#1215
    )),.UNSPECIFIED.,.F.,.F.,.F.,(2,2),(2,2),(0.,10.),(0.,1.),
  .PIECEWISE_BEZIER_KNOTS.);
#1212 = CARTESIAN_POINT('',(-10.305,-5.,2.6));
#1213 = CARTESIAN_POINT('',(-10.37484153898,-4.930158461017,0.6));
#1214 = CARTESIAN_POINT('',(-10.305,5.,2.6));
#1215 = CARTESIAN_POINT('',(-10.37484153898,4.930158461017,0.6));
#1216 = ADVANCED_FACE('',(#1217),#1228,.F.);
#1217 = FACE_BOUND('',#1218,.F.);
#1218 = EDGE_LOOP('',(#1219,#1225,#1226,#1227));
#1219 = ORIENTED_EDGE('',*,*,#1220,.F.);
#1220 = EDGE_CURVE('',#571,#1071,#1221,.T.);
#1221 = LINE('',#1222,#1223);
#1222 = CARTESIAN_POINT('',(-10.305,-13.,9.71));
#1223 = VECTOR('',#1224,1.);
#1224 = DIRECTION('',(1.,0.,0.));
#1225 = ORIENTED_EDGE('',*,*,#578,.T.);
#1226 = ORIENTED_EDGE('',*,*,#692,.T.);
#1227 = ORIENTED_EDGE('',*,*,#1078,.F.);
#1228 = PLANE('',#1229);
#1229 = AXIS2_PLACEMENT_3D('',#1230,#1231,#1232);
#1230 = CARTESIAN_POINT('',(-4.56E-15,-2.34,9.71));
#1231 = DIRECTION('',(0.,0.,1.));
#1232 = DIRECTION('',(1.,0.,0.));
#1233 = ADVANCED_FACE('',(#1234),#1240,.T.);
#1234 = FACE_BOUND('',#1235,.T.);
#1235 = EDGE_LOOP('',(#1236,#1237,#1238,#1239));
#1236 = ORIENTED_EDGE('',*,*,#570,.T.);
#1237 = ORIENTED_EDGE('',*,*,#1175,.T.);
#1238 = ORIENTED_EDGE('',*,*,#1070,.F.);
#1239 = ORIENTED_EDGE('',*,*,#1220,.F.);
#1240 = PLANE('',#1241);
#1241 = AXIS2_PLACEMENT_3D('',#1242,#1243,#1244);
#1242 = CARTESIAN_POINT('',(-10.305,-13.,9.71));
#1243 = DIRECTION('',(0.,-1.,0.));
#1244 = DIRECTION('',(1.,0.,0.));
#1245 = ADVANCED_FACE('',(#1246),#1252,.T.);
#1246 = FACE_BOUND('',#1247,.F.);
#1247 = EDGE_LOOP('',(#1248,#1249,#1250,#1251));
#1248 = ORIENTED_EDGE('',*,*,#644,.T.);
#1249 = ORIENTED_EDGE('',*,*,#667,.T.);
#1250 = ORIENTED_EDGE('',*,*,#1205,.T.);
#1251 = ORIENTED_EDGE('',*,*,#615,.T.);
#1252 = PLANE('',#1253);
#1253 = AXIS2_PLACEMENT_3D('',#1254,#1255,#1256);
#1254 = CARTESIAN_POINT('',(-11.23515846101,4.930158461017,0.6));
#1255 = DIRECTION('',(0.,0.,-1.));
#1256 = DIRECTION('',(8.692021430932E-02,-0.996215276105,0.));
#1257 = ADVANCED_FACE('',(#1258),#1269,.F.);
#1258 = FACE_BOUND('',#1259,.T.);
#1259 = EDGE_LOOP('',(#1260,#1261,#1262,#1263));
#1260 = ORIENTED_EDGE('',*,*,#810,.F.);
#1261 = ORIENTED_EDGE('',*,*,#753,.T.);
#1262 = ORIENTED_EDGE('',*,*,#731,.T.);
#1263 = ORIENTED_EDGE('',*,*,#1264,.F.);
#1264 = EDGE_CURVE('',#803,#724,#1265,.T.);
#1265 = LINE('',#1266,#1267);
#1266 = CARTESIAN_POINT('',(-6.225,-27.46,8.77));
#1267 = VECTOR('',#1268,1.);
#1268 = DIRECTION('',(0.,1.,0.));
#1269 = PLANE('',#1270);
#1270 = AXIS2_PLACEMENT_3D('',#1271,#1272,#1273);
#1271 = CARTESIAN_POINT('',(-6.445,-27.46,8.55));
#1272 = DIRECTION('',(-0.707106781187,0.,0.707106781187));
#1273 = DIRECTION('',(-0.,-1.,-0.));
#1274 = ADVANCED_FACE('',(#1275),#1286,.F.);
#1275 = FACE_BOUND('',#1276,.F.);
#1276 = EDGE_LOOP('',(#1277,#1278,#1284,#1285));
#1277 = ORIENTED_EDGE('',*,*,#802,.T.);
#1278 = ORIENTED_EDGE('',*,*,#1279,.T.);
#1279 = EDGE_CURVE('',#795,#716,#1280,.T.);
#1280 = LINE('',#1281,#1282);
#1281 = CARTESIAN_POINT('',(6.225,-27.46,8.77));
#1282 = VECTOR('',#1283,1.);
#1283 = DIRECTION('',(0.,1.,0.));
#1284 = ORIENTED_EDGE('',*,*,#723,.T.);
#1285 = ORIENTED_EDGE('',*,*,#1264,.F.);
#1286 = PLANE('',#1287);
#1287 = AXIS2_PLACEMENT_3D('',#1288,#1289,#1290);
#1288 = CARTESIAN_POINT('',(6.95E-15,-26.46,8.77));
#1289 = DIRECTION('',(0.,0.,1.));
#1290 = DIRECTION('',(1.,0.,0.));
#1291 = ADVANCED_FACE('',(#1292),#1298,.T.);
#1292 = FACE_BOUND('',#1293,.F.);
#1293 = EDGE_LOOP('',(#1294,#1295,#1296,#1297));
#1294 = ORIENTED_EDGE('',*,*,#794,.F.);
#1295 = ORIENTED_EDGE('',*,*,#1044,.T.);
#1296 = ORIENTED_EDGE('',*,*,#715,.T.);
#1297 = ORIENTED_EDGE('',*,*,#1279,.F.);
#1298 = PLANE('',#1299);
#1299 = AXIS2_PLACEMENT_3D('',#1300,#1301,#1302);
#1300 = CARTESIAN_POINT('',(6.445,-27.46,8.55));
#1301 = DIRECTION('',(-0.707106781187,0.,-0.707106781187));
#1302 = DIRECTION('',(-0.,-1.,-0.));
#1303 = ADVANCED_FACE('',(#1304),#1329,.F.);
#1304 = FACE_BOUND('',#1305,.T.);
#1305 = EDGE_LOOP('',(#1306,#1307,#1315,#1323));
#1306 = ORIENTED_EDGE('',*,*,#769,.T.);
#1307 = ORIENTED_EDGE('',*,*,#1308,.T.);
#1308 = EDGE_CURVE('',#772,#1309,#1311,.T.);
#1309 = VERTEX_POINT('',#1310);
#1310 = CARTESIAN_POINT('',(11.905,-24.76,11.71));
#1311 = LINE('',#1312,#1313);
#1312 = CARTESIAN_POINT('',(11.905,-27.46,9.01));
#1313 = VECTOR('',#1314,1.);
#1314 = DIRECTION('',(0.,0.707106781187,0.707106781187));
#1315 = ORIENTED_EDGE('',*,*,#1316,.F.);
#1316 = EDGE_CURVE('',#1317,#1309,#1319,.T.);
#1317 = VERTEX_POINT('',#1318);
#1318 = CARTESIAN_POINT('',(-11.905,-24.76,11.71));
#1319 = LINE('',#1320,#1321);
#1320 = CARTESIAN_POINT('',(-12.305,-24.76,11.71));
#1321 = VECTOR('',#1322,1.);
#1322 = DIRECTION('',(1.,2.02E-15,0.));
#1323 = ORIENTED_EDGE('',*,*,#1324,.F.);
#1324 = EDGE_CURVE('',#770,#1317,#1325,.T.);
#1325 = LINE('',#1326,#1327);
#1326 = CARTESIAN_POINT('',(-11.905,-27.46,9.01));
#1327 = VECTOR('',#1328,1.);
#1328 = DIRECTION('',(0.,0.707106781187,0.707106781187));
#1329 = PLANE('',#1330);
#1330 = AXIS2_PLACEMENT_3D('',#1331,#1332,#1333);
#1331 = CARTESIAN_POINT('',(-12.305,-26.11,10.36));
#1332 = DIRECTION('',(-1.52E-15,0.707106781187,-0.707106781187));
#1333 = DIRECTION('',(-1.,-2.084802307404E-15,6.480230740355E-17));
#1334 = ADVANCED_FACE('',(#1335),#1346,.T.);
#1335 = FACE_BOUND('',#1336,.T.);
#1336 = EDGE_LOOP('',(#1337,#1338,#1339,#1345));
#1337 = ORIENTED_EDGE('',*,*,#834,.F.);
#1338 = ORIENTED_EDGE('',*,*,#1324,.T.);
#1339 = ORIENTED_EDGE('',*,*,#1340,.T.);
#1340 = EDGE_CURVE('',#1317,#859,#1341,.T.);
#1341 = LINE('',#1342,#1343);
#1342 = CARTESIAN_POINT('',(-13.76567943929,-23.98928134101,
    9.849320560701));
#1343 = VECTOR('',#1344,1.);
#1344 = DIRECTION('',(-0.678598344546,0.281084637715,-0.678598344546));
#1345 = ORIENTED_EDGE('',*,*,#858,.F.);
#1346 = PLANE('',#1347);
#1347 = AXIS2_PLACEMENT_3D('',#1348,#1349,#1350);
#1348 = CARTESIAN_POINT('',(-12.105,-27.31857864376,8.868578643763));
#1349 = DIRECTION('',(-0.707106781187,-0.5,0.5));
#1350 = DIRECTION('',(1.942890293094E-16,0.707106781187,0.707106781187)
  );
#1351 = ADVANCED_FACE('',(#1352),#1363,.F.);
#1352 = FACE_BOUND('',#1353,.F.);
#1353 = EDGE_LOOP('',(#1354,#1355,#1356,#1362));
#1354 = ORIENTED_EDGE('',*,*,#905,.F.);
#1355 = ORIENTED_EDGE('',*,*,#932,.T.);
#1356 = ORIENTED_EDGE('',*,*,#1357,.T.);
#1357 = EDGE_CURVE('',#925,#875,#1358,.T.);
#1358 = LINE('',#1359,#1360);
#1359 = CARTESIAN_POINT('',(-9.489363428498,-5.699410570319,
    9.825636571502));
#1360 = VECTOR('',#1361,1.);
#1361 = DIRECTION('',(-0.678598344546,-0.281084637715,-0.678598344546));
#1362 = ORIENTED_EDGE('',*,*,#882,.F.);
#1363 = PLANE('',#1364);
#1364 = AXIS2_PLACEMENT_3D('',#1365,#1366,#1367);
#1365 = CARTESIAN_POINT('',(-12.105,20.56,7.21));
#1366 = DIRECTION('',(0.707106781187,-1.3E-16,-0.707106781187));
#1367 = DIRECTION('',(1.807611844575E-17,-1.,2.019238815543E-16));
#1368 = ADVANCED_FACE('',(#1369),#1387,.T.);
#1369 = FACE_BOUND('',#1370,.F.);
#1370 = EDGE_LOOP('',(#1371,#1379,#1385,#1386));
#1371 = ORIENTED_EDGE('',*,*,#1372,.F.);
#1372 = EDGE_CURVE('',#1373,#867,#1375,.T.);
#1373 = VERTEX_POINT('',#1374);
#1374 = CARTESIAN_POINT('',(-11.905,-11.,11.71));
#1375 = LINE('',#1376,#1377);
#1376 = CARTESIAN_POINT('',(-12.66916539357,-11.31652766991,
    10.945834606424));
#1377 = VECTOR('',#1378,1.);
#1378 = DIRECTION('',(-0.678598344546,-0.281084637715,-0.678598344546));
#1379 = ORIENTED_EDGE('',*,*,#1380,.T.);
#1380 = EDGE_CURVE('',#1373,#1317,#1381,.T.);
#1381 = LINE('',#1382,#1383);
#1382 = CARTESIAN_POINT('',(-11.905,-11.,11.71));
#1383 = VECTOR('',#1384,1.);
#1384 = DIRECTION('',(0.,-1.,0.));
#1385 = ORIENTED_EDGE('',*,*,#1340,.T.);
#1386 = ORIENTED_EDGE('',*,*,#866,.F.);
#1387 = PLANE('',#1388);
#1388 = AXIS2_PLACEMENT_3D('',#1389,#1390,#1391);
#1389 = CARTESIAN_POINT('',(-12.105,-11.,11.51));
#1390 = DIRECTION('',(-0.707106781187,0.,0.707106781187));
#1391 = DIRECTION('',(0.,1.,0.));
#1392 = ADVANCED_FACE('',(#1393),#1404,.F.);
#1393 = FACE_BOUND('',#1394,.F.);
#1394 = EDGE_LOOP('',(#1395,#1396,#1402,#1403));
#1395 = ORIENTED_EDGE('',*,*,#1357,.F.);
#1396 = ORIENTED_EDGE('',*,*,#1397,.T.);
#1397 = EDGE_CURVE('',#925,#1373,#1398,.T.);
#1398 = LINE('',#1399,#1400);
#1399 = CARTESIAN_POINT('',(-11.905,-6.7,7.41));
#1400 = VECTOR('',#1401,1.);
#1401 = DIRECTION('',(0.,-0.707106781187,0.707106781187));
#1402 = ORIENTED_EDGE('',*,*,#1372,.T.);
#1403 = ORIENTED_EDGE('',*,*,#874,.F.);
#1404 = PLANE('',#1405);
#1405 = AXIS2_PLACEMENT_3D('',#1406,#1407,#1408);
#1406 = CARTESIAN_POINT('',(-12.105,-6.841421356237,7.268578643763));
#1407 = DIRECTION('',(0.707106781187,-0.5,-0.5));
#1408 = DIRECTION('',(0.,-0.707106781187,0.707106781187));
#1409 = ADVANCED_FACE('',(#1410),#1428,.F.);
#1410 = FACE_BOUND('',#1411,.F.);
#1411 = EDGE_LOOP('',(#1412,#1413,#1421,#1427));
#1412 = ORIENTED_EDGE('',*,*,#922,.F.);
#1413 = ORIENTED_EDGE('',*,*,#1414,.F.);
#1414 = EDGE_CURVE('',#1415,#923,#1417,.T.);
#1415 = VERTEX_POINT('',#1416);
#1416 = CARTESIAN_POINT('',(11.905,-11.,11.71));
#1417 = LINE('',#1418,#1419);
#1418 = CARTESIAN_POINT('',(11.905,-11.,11.71));
#1419 = VECTOR('',#1420,1.);
#1420 = DIRECTION('',(0.,0.707106781187,-0.707106781187));
#1421 = ORIENTED_EDGE('',*,*,#1422,.F.);
#1422 = EDGE_CURVE('',#1373,#1415,#1423,.T.);
#1423 = LINE('',#1424,#1425);
#1424 = CARTESIAN_POINT('',(-11.305,-11.,11.71));
#1425 = VECTOR('',#1426,1.);
#1426 = DIRECTION('',(1.,0.,0.));
#1427 = ORIENTED_EDGE('',*,*,#1397,.F.);
#1428 = PLANE('',#1429);
#1429 = AXIS2_PLACEMENT_3D('',#1430,#1431,#1432);
#1430 = CARTESIAN_POINT('',(12.305,-11.,11.71));
#1431 = DIRECTION('',(0.,-0.707106781187,-0.707106781187));
#1432 = DIRECTION('',(0.,0.707106781187,-0.707106781187));
#1433 = ADVANCED_FACE('',(#1434),#1445,.F.);
#1434 = FACE_BOUND('',#1435,.T.);
#1435 = EDGE_LOOP('',(#1436,#1437,#1438,#1444));
#1436 = ORIENTED_EDGE('',*,*,#953,.F.);
#1437 = ORIENTED_EDGE('',*,*,#939,.T.);
#1438 = ORIENTED_EDGE('',*,*,#1439,.T.);
#1439 = EDGE_CURVE('',#923,#981,#1440,.T.);
#1440 = LINE('',#1441,#1442);
#1441 = CARTESIAN_POINT('',(8.90939632021,-5.459180328336,10.40560367979
    ));
#1442 = VECTOR('',#1443,1.);
#1443 = DIRECTION('',(0.678598344546,-0.281084637715,-0.678598344546));
#1444 = ORIENTED_EDGE('',*,*,#980,.F.);
#1445 = PLANE('',#1446);
#1446 = AXIS2_PLACEMENT_3D('',#1447,#1448,#1449);
#1447 = CARTESIAN_POINT('',(12.105,20.56,7.21));
#1448 = DIRECTION('',(-0.707106781187,-1.9E-16,-0.707106781187));
#1449 = DIRECTION('',(-2.435028842544E-17,1.,-2.443502884254E-16));
#1450 = ADVANCED_FACE('',(#1451),#1462,.T.);
#1451 = FACE_BOUND('',#1452,.F.);
#1452 = EDGE_LOOP('',(#1453,#1454,#1455,#1461));
#1453 = ORIENTED_EDGE('',*,*,#1028,.F.);
#1454 = ORIENTED_EDGE('',*,*,#1308,.T.);
#1455 = ORIENTED_EDGE('',*,*,#1456,.T.);
#1456 = EDGE_CURVE('',#1309,#997,#1457,.T.);
#1457 = LINE('',#1458,#1459);
#1458 = CARTESIAN_POINT('',(13.765679439299,-23.98928134101,
    9.849320560701));
#1459 = VECTOR('',#1460,1.);
#1460 = DIRECTION('',(0.678598344546,0.281084637715,-0.678598344546));
#1461 = ORIENTED_EDGE('',*,*,#1004,.F.);
#1462 = PLANE('',#1463);
#1463 = AXIS2_PLACEMENT_3D('',#1464,#1465,#1466);
#1464 = CARTESIAN_POINT('',(12.105,-27.31857864376,8.868578643763));
#1465 = DIRECTION('',(0.707106781187,-0.5,0.5));
#1466 = DIRECTION('',(-5.551115123126E-17,-0.707106781187,
    -0.707106781187));
#1467 = ADVANCED_FACE('',(#1468),#1484,.T.);
#1468 = FACE_BOUND('',#1469,.T.);
#1469 = EDGE_LOOP('',(#1470,#1476,#1482,#1483));
#1470 = ORIENTED_EDGE('',*,*,#1471,.F.);
#1471 = EDGE_CURVE('',#1415,#989,#1472,.T.);
#1472 = LINE('',#1473,#1474);
#1473 = CARTESIAN_POINT('',(12.089198285288,-11.07629742793,
    11.525801714712));
#1474 = VECTOR('',#1475,1.);
#1475 = DIRECTION('',(0.678598344546,-0.281084637715,-0.678598344546));
#1476 = ORIENTED_EDGE('',*,*,#1477,.T.);
#1477 = EDGE_CURVE('',#1415,#1309,#1478,.T.);
#1478 = LINE('',#1479,#1480);
#1479 = CARTESIAN_POINT('',(11.905,-11.,11.71));
#1480 = VECTOR('',#1481,1.);
#1481 = DIRECTION('',(0.,-1.,0.));
#1482 = ORIENTED_EDGE('',*,*,#1456,.T.);
#1483 = ORIENTED_EDGE('',*,*,#996,.F.);
#1484 = PLANE('',#1485);
#1485 = AXIS2_PLACEMENT_3D('',#1486,#1487,#1488);
#1486 = CARTESIAN_POINT('',(12.105,-11.,11.51));
#1487 = DIRECTION('',(0.707106781187,0.,0.707106781187));
#1488 = DIRECTION('',(0.,-1.,0.));
#1489 = ADVANCED_FACE('',(#1490),#1496,.F.);
#1490 = FACE_BOUND('',#1491,.F.);
#1491 = EDGE_LOOP('',(#1492,#1493,#1494,#1495));
#1492 = ORIENTED_EDGE('',*,*,#1471,.F.);
#1493 = ORIENTED_EDGE('',*,*,#1414,.T.);
#1494 = ORIENTED_EDGE('',*,*,#1439,.T.);
#1495 = ORIENTED_EDGE('',*,*,#988,.F.);
#1496 = PLANE('',#1497);
#1497 = AXIS2_PLACEMENT_3D('',#1498,#1499,#1500);
#1498 = CARTESIAN_POINT('',(12.105,-11.14142135623,11.568578643763));
#1499 = DIRECTION('',(-0.707106781187,-0.5,-0.5));
#1500 = DIRECTION('',(0.,0.707106781187,-0.707106781187));
#1501 = ADVANCED_FACE('',(#1502),#1513,.F.);
#1502 = FACE_BOUND('',#1503,.F.);
#1503 = EDGE_LOOP('',(#1504,#1505,#1506,#1512));
#1504 = ORIENTED_EDGE('',*,*,#1086,.T.);
#1505 = ORIENTED_EDGE('',*,*,#1116,.T.);
#1506 = ORIENTED_EDGE('',*,*,#1507,.F.);
#1507 = EDGE_CURVE('',#1154,#1109,#1508,.T.);
#1508 = LINE('',#1509,#1510);
#1509 = CARTESIAN_POINT('',(10.374841538983,5.,0.6));
#1510 = VECTOR('',#1511,1.);
#1511 = DIRECTION('',(0.,-1.,0.));
#1512 = ORIENTED_EDGE('',*,*,#1153,.F.);
#1513 = B_SPLINE_SURFACE_WITH_KNOTS('',1,1,(
    (#1514,#1515)
    ,(#1516,#1517
    )),.UNSPECIFIED.,.F.,.F.,.F.,(2,2),(2,2),(0.,10.),(0.,1.),
  .PIECEWISE_BEZIER_KNOTS.);
#1514 = CARTESIAN_POINT('',(10.305,5.,2.6));
#1515 = CARTESIAN_POINT('',(10.374841538983,4.930158461017,0.6));
#1516 = CARTESIAN_POINT('',(10.305,-5.,2.6));
#1517 = CARTESIAN_POINT('',(10.374841538983,-4.930158461017,0.6));
#1518 = ADVANCED_FACE('',(#1519),#1525,.T.);
#1519 = FACE_BOUND('',#1520,.F.);
#1520 = EDGE_LOOP('',(#1521,#1522,#1523,#1524));
#1521 = ORIENTED_EDGE('',*,*,#1507,.T.);
#1522 = ORIENTED_EDGE('',*,*,#1108,.T.);
#1523 = ORIENTED_EDGE('',*,*,#1137,.T.);
#1524 = ORIENTED_EDGE('',*,*,#1160,.T.);
#1525 = PLANE('',#1526);
#1526 = AXIS2_PLACEMENT_3D('',#1527,#1528,#1529);
#1527 = CARTESIAN_POINT('',(10.374841538983,4.930158461017,0.6));
#1528 = DIRECTION('',(0.,0.,-1.));
#1529 = DIRECTION('',(8.692021430932E-02,-0.996215276105,0.));
#1530 = ADVANCED_FACE('',(#1531),#1550,.T.);
#1531 = FACE_BOUND('',#1532,.T.);
#1532 = EDGE_LOOP('',(#1533,#1541,#1548,#1549));
#1533 = ORIENTED_EDGE('',*,*,#1534,.F.);
#1534 = EDGE_CURVE('',#1535,#1187,#1537,.T.);
#1535 = VERTEX_POINT('',#1536);
#1536 = CARTESIAN_POINT('',(9.005,-6.88,2.9));
#1537 = LINE('',#1538,#1539);
#1538 = CARTESIAN_POINT('',(9.005,-6.88,2.9));
#1539 = VECTOR('',#1540,1.);
#1540 = DIRECTION('',(0.,0.,1.));
#1541 = ORIENTED_EDGE('',*,*,#1542,.F.);
#1542 = EDGE_CURVE('',#1535,#1535,#1543,.T.);
#1543 = CIRCLE('',#1544,2.5);
#1544 = AXIS2_PLACEMENT_3D('',#1545,#1546,#1547);
#1545 = CARTESIAN_POINT('',(6.505,-6.88,2.9));
#1546 = DIRECTION('',(0.,0.,-1.));
#1547 = DIRECTION('',(1.,0.,0.));
#1548 = ORIENTED_EDGE('',*,*,#1534,.T.);
#1549 = ORIENTED_EDGE('',*,*,#1186,.T.);
#1550 = CYLINDRICAL_SURFACE('',#1551,2.5);
#1551 = AXIS2_PLACEMENT_3D('',#1552,#1553,#1554);
#1552 = CARTESIAN_POINT('',(6.505,-6.88,2.9));
#1553 = DIRECTION('',(0.,0.,-1.));
#1554 = DIRECTION('',(1.,0.,0.));
#1555 = ADVANCED_FACE('',(#1556),#1562,.T.);
#1556 = FACE_BOUND('',#1557,.T.);
#1557 = EDGE_LOOP('',(#1558,#1559,#1560,#1561));
#1558 = ORIENTED_EDGE('',*,*,#1316,.T.);
#1559 = ORIENTED_EDGE('',*,*,#1477,.F.);
#1560 = ORIENTED_EDGE('',*,*,#1422,.F.);
#1561 = ORIENTED_EDGE('',*,*,#1380,.T.);
#1562 = PLANE('',#1563);
#1563 = AXIS2_PLACEMENT_3D('',#1564,#1565,#1566);
#1564 = CARTESIAN_POINT('',(-4.56E-15,-2.34,11.71));
#1565 = DIRECTION('',(0.,0.,1.));
#1566 = DIRECTION('',(1.,0.,0.));
#1567 = ADVANCED_FACE('',(#1568,#1571),#1582,.F.);
#1568 = FACE_BOUND('',#1569,.F.);
#1569 = EDGE_LOOP('',(#1570));
#1570 = ORIENTED_EDGE('',*,*,#1542,.F.);
#1571 = FACE_BOUND('',#1572,.F.);
#1572 = EDGE_LOOP('',(#1573));
#1573 = ORIENTED_EDGE('',*,*,#1574,.F.);
#1574 = EDGE_CURVE('',#1575,#1575,#1577,.T.);
#1575 = VERTEX_POINT('',#1576);
#1576 = CARTESIAN_POINT('',(5.63,-6.88,2.9));
#1577 = CIRCLE('',#1578,0.875);
#1578 = AXIS2_PLACEMENT_3D('',#1579,#1580,#1581);
#1579 = CARTESIAN_POINT('',(6.505,-6.88,2.9));
#1580 = DIRECTION('',(0.,-0.,1.));
#1581 = DIRECTION('',(-1.,0.,0.));
#1582 = PLANE('',#1583);
#1583 = AXIS2_PLACEMENT_3D('',#1584,#1585,#1586);
#1584 = CARTESIAN_POINT('',(6.505,-6.88,2.9));
#1585 = DIRECTION('',(0.,0.,1.));
#1586 = DIRECTION('',(1.,0.,0.));
#1587 = ADVANCED_FACE('',(#1588),#1607,.F.);
#1588 = FACE_BOUND('',#1589,.T.);
#1589 = EDGE_LOOP('',(#1590,#1591,#1599,#1606));
#1590 = ORIENTED_EDGE('',*,*,#1574,.F.);
#1591 = ORIENTED_EDGE('',*,*,#1592,.T.);
#1592 = EDGE_CURVE('',#1575,#1593,#1595,.T.);
#1593 = VERTEX_POINT('',#1594);
#1594 = CARTESIAN_POINT('',(5.63,-6.88,5.6));
#1595 = LINE('',#1596,#1597);
#1596 = CARTESIAN_POINT('',(5.63,-6.88,-3.4));
#1597 = VECTOR('',#1598,1.);
#1598 = DIRECTION('',(6.167905692362E-17,0.,1.));
#1599 = ORIENTED_EDGE('',*,*,#1600,.F.);
#1600 = EDGE_CURVE('',#1593,#1593,#1601,.T.);
#1601 = CIRCLE('',#1602,0.875);
#1602 = AXIS2_PLACEMENT_3D('',#1603,#1604,#1605);
#1603 = CARTESIAN_POINT('',(6.505,-6.88,5.6));
#1604 = DIRECTION('',(0.,0.,-1.));
#1605 = DIRECTION('',(-1.,0.,0.));
#1606 = ORIENTED_EDGE('',*,*,#1592,.F.);
#1607 = CYLINDRICAL_SURFACE('',#1608,0.875);
#1608 = AXIS2_PLACEMENT_3D('',#1609,#1610,#1611);
#1609 = CARTESIAN_POINT('',(6.505,-6.88,-3.4));
#1610 = DIRECTION('',(0.,0.,1.));
#1611 = DIRECTION('',(-1.,0.,0.));
#1612 = ADVANCED_FACE('',(#1613),#1625,.F.);
#1613 = FACE_BOUND('',#1614,.T.);
#1614 = EDGE_LOOP('',(#1615,#1616,#1624));
#1615 = ORIENTED_EDGE('',*,*,#1600,.T.);
#1616 = ORIENTED_EDGE('',*,*,#1617,.T.);
#1617 = EDGE_CURVE('',#1593,#1618,#1620,.T.);
#1618 = VERTEX_POINT('',#1619);
#1619 = CARTESIAN_POINT('',(6.505,-6.88,6.125753041649));
#1620 = LINE('',#1621,#1622);
#1621 = CARTESIAN_POINT('',(5.63,-6.88,5.6));
#1622 = VECTOR('',#1623,1.);
#1623 = DIRECTION('',(0.857167300702,0.,0.51503807491));
#1624 = ORIENTED_EDGE('',*,*,#1617,.F.);
#1625 = CONICAL_SURFACE('',#1626,0.875,1.029744258677);
#1626 = AXIS2_PLACEMENT_3D('',#1627,#1628,#1629);
#1627 = CARTESIAN_POINT('',(6.505,-6.88,5.6));
#1628 = DIRECTION('',(-0.,-0.,-1.));
#1629 = DIRECTION('',(-1.,0.,0.));
#1630 = ( GEOMETRIC_REPRESENTATION_CONTEXT(3) 
GLOBAL_UNCERTAINTY_ASSIGNED_CONTEXT((#1634)) 
GLOBAL_UNIT_ASSIGNED_CONTEXT((#1631,#1632,#1633)) REPRESENTATION_CONTEXT
('Context #1','3D Context with UNIT and UNCERTAINTY') );
#1631 = ( LENGTH_UNIT() NAMED_UNIT(*) SI_UNIT(.MILLI.,.METRE.) );
#1632 = ( NAMED_UNIT(*) PLANE_ANGLE_UNIT() SI_UNIT($,.RADIAN.) );
#1633 = ( NAMED_UNIT(*) SI_UNIT($,.STERADIAN.) SOLID_ANGLE_UNIT() );
#1634 = UNCERTAINTY_MEASURE_WITH_UNIT(LENGTH_MEASURE(1.E-07),#1631,
  'distance_accuracy_value','confusion accuracy');
#1635 = PRODUCT_RELATED_PRODUCT_CATEGORY('part',$,(#7));
#1636 = MECHANICAL_DESIGN_GEOMETRIC_PRESENTATION_REPRESENTATION('',(
    #1637),#1630);
#1637 = STYLED_ITEM('color',(#1638),#15);
#1638 = PRESENTATION_STYLE_ASSIGNMENT((#1639,#1645));
#1639 = SURFACE_STYLE_USAGE(.BOTH.,#1640);
#1640 = SURFACE_SIDE_STYLE('',(#1641));
#1641 = SURFACE_STYLE_FILL_AREA(#1642);
#1642 = FILL_AREA_STYLE('',(#1643));
#1643 = FILL_AREA_STYLE_COLOUR('',#1644);
#1644 = COLOUR_RGB('',0.301960791261,0.301960791261,0.301960791261);
#1645 = CURVE_STYLE('',#1646,POSITIVE_LENGTH_MEASURE(0.1),#1647);
#1646 = DRAUGHTING_PRE_DEFINED_CURVE_FONT('continuous');
#1647 = COLOUR_RGB('',9.803921802644E-02,9.803921802644E-02,
  9.803921802644E-02);
ENDSEC;
END-ISO-10303-21;
