ISO-10303-21;
HEADER;
FILE_DESCRIPTION(('FreeCAD Model'),'2;1');
FILE_NAME('Open CASCADE Shape Model','2026-10-07T18:27:30',(''),(''),
  'Open CASCADE STEP processor 7.8','FreeCAD','Unknown');
FILE_SCHEMA(('AUTOMOTIVE_DESIGN { 1 0 10303 214 1 1 1 1 }'));
ENDSEC;
DATA;
#1 = APPLICATION_PROTOCOL_DEFINITION('international standard',
  'automotive_design',2000,#2);
#2 = APPLICATION_CONTEXT(
  'core data for automotive mechanical design processes');
#3 = SHAPE_DEFINITION_REPRESENTATION(#4,#10);
#4 = PRODUCT_DEFINITION_SHAPE('','',#5);
#5 = PRODUCT_DEFINITION('design','',#6,#9);
#6 = PRODUCT_DEFINITION_FORMATION('','',#7);
#7 = PRODUCT('Bottom','Bottom','',(#8));
#8 = PRODUCT_CONTEXT('',#2,'mechanical');
#9 = PRODUCT_DEFINITION_CONTEXT('part definition',#2,'design');
#10 = ADVANCED_BREP_SHAPE_REPRESENTATION('',(#11,#15),#2123);
#11 = AXIS2_PLACEMENT_3D('',#12,#13,#14);
#12 = CARTESIAN_POINT('',(0.,0.,0.));
#13 = DIRECTION('',(0.,0.,1.));
#14 = DIRECTION('',(1.,0.,-0.));
#15 = MANIFOLD_SOLID_BREP('',#16);
#16 = CLOSED_SHELL('',(#17,#105,#136,#167,#198,#302,#470,#494,#518,#542,
    #566,#583,#607,#631,#673,#706,#739,#763,#810,#834,#881,#976,#1000,
    #1024,#1041,#1071,#1088,#1120,#1144,#1168,#1192,#1255,#1279,#1303,
    #1320,#1344,#1368,#1392,#1433,#1450,#1467,#1484,#1506,#1531,#1543,
    #1555,#1567,#1584,#1601,#1682,#1706,#1781,#1798,#1810,#1822,#1858,
    #1875,#1892,#1912,#1929,#1946,#1958,#1970,#1995,#2012,#2037,#2062,
    #2087,#2105));
#17 = ADVANCED_FACE('',(#18),#100,.T.);
#18 = FACE_BOUND('',#19,.T.);
#19 = EDGE_LOOP('',(#20,#30,#38,#46,#54,#62,#70,#78,#86,#94));
#20 = ORIENTED_EDGE('',*,*,#21,.T.);
#21 = EDGE_CURVE('',#22,#24,#26,.T.);
#22 = VERTEX_POINT('',#23);
#23 = CARTESIAN_POINT('',(11.905,22.78,1.E-15));
#24 = VERTEX_POINT('',#25);
#25 = CARTESIAN_POINT('',(-11.905,22.78,1.E-15));
#26 = LINE('',#27,#28);
#27 = CARTESIAN_POINT('',(12.305,22.78,8.9E-16));
#28 = VECTOR('',#29,1.);
#29 = DIRECTION('',(-1.,0.,0.));
#30 = ORIENTED_EDGE('',*,*,#31,.F.);
#31 = EDGE_CURVE('',#32,#24,#34,.T.);
#32 = VERTEX_POINT('',#33);
#33 = CARTESIAN_POINT('',(-11.905,22.78,2.6));
#34 = LINE('',#35,#36);
#35 = CARTESIAN_POINT('',(-11.905,22.78,2.6));
#36 = VECTOR('',#37,1.);
#37 = DIRECTION('',(-0.,-0.,-1.));
#38 = ORIENTED_EDGE('',*,*,#39,.F.);
#39 = EDGE_CURVE('',#40,#32,#42,.T.);
#40 = VERTEX_POINT('',#41);
#41 = CARTESIAN_POINT('',(-6.095,22.78,2.6));
#42 = LINE('',#43,#44);
#43 = CARTESIAN_POINT('',(12.305,22.78,2.6));
#44 = VECTOR('',#45,1.);
#45 = DIRECTION('',(-1.,0.,0.));
#46 = ORIENTED_EDGE('',*,*,#47,.T.);
#47 = EDGE_CURVE('',#40,#48,#50,.T.);
#48 = VERTEX_POINT('',#49);
#49 = CARTESIAN_POINT('',(-6.095,22.78,0.55));
#50 = LINE('',#51,#52);
#51 = CARTESIAN_POINT('',(-6.095,22.78,2.6));
#52 = VECTOR('',#53,1.);
#53 = DIRECTION('',(-0.,-0.,-1.));
#54 = ORIENTED_EDGE('',*,*,#55,.F.);
#55 = EDGE_CURVE('',#56,#48,#58,.T.);
#56 = VERTEX_POINT('',#57);
#57 = CARTESIAN_POINT('',(-5.795,22.78,0.25));
#58 = LINE('',#59,#60);
#59 = CARTESIAN_POINT('',(-1.9325,22.78,-3.6125));
#60 = VECTOR('',#61,1.);
#61 = DIRECTION('',(-0.707106781187,0.,0.707106781187));
#62 = ORIENTED_EDGE('',*,*,#63,.T.);
#63 = EDGE_CURVE('',#56,#64,#66,.T.);
#64 = VERTEX_POINT('',#65);
#65 = CARTESIAN_POINT('',(5.805,22.78,0.25));
#66 = LINE('',#67,#68);
#67 = CARTESIAN_POINT('',(-6.095,22.78,0.25));
#68 = VECTOR('',#69,1.);
#69 = DIRECTION('',(1.,0.,0.));
#70 = ORIENTED_EDGE('',*,*,#71,.F.);
#71 = EDGE_CURVE('',#72,#64,#74,.T.);
#72 = VERTEX_POINT('',#73);
#73 = CARTESIAN_POINT('',(6.105,22.78,0.55));
#74 = LINE('',#75,#76);
#75 = CARTESIAN_POINT('',(8.0925,22.78,2.5375));
#76 = VECTOR('',#77,1.);
#77 = DIRECTION('',(-0.707106781187,0.,-0.707106781187));
#78 = ORIENTED_EDGE('',*,*,#79,.F.);
#79 = EDGE_CURVE('',#80,#72,#82,.T.);
#80 = VERTEX_POINT('',#81);
#81 = CARTESIAN_POINT('',(6.105,22.78,2.6));
#82 = LINE('',#83,#84);
#83 = CARTESIAN_POINT('',(6.105,22.78,2.6));
#84 = VECTOR('',#85,1.);
#85 = DIRECTION('',(-0.,-0.,-1.));
#86 = ORIENTED_EDGE('',*,*,#87,.F.);
#87 = EDGE_CURVE('',#88,#80,#90,.T.);
#88 = VERTEX_POINT('',#89);
#89 = CARTESIAN_POINT('',(11.905,22.78,2.6));
#90 = LINE('',#91,#92);
#91 = CARTESIAN_POINT('',(12.305,22.78,2.6));
#92 = VECTOR('',#93,1.);
#93 = DIRECTION('',(-1.,0.,0.));
#94 = ORIENTED_EDGE('',*,*,#95,.T.);
#95 = EDGE_CURVE('',#88,#22,#96,.T.);
#96 = LINE('',#97,#98);
#97 = CARTESIAN_POINT('',(11.905,22.78,2.6));
#98 = VECTOR('',#99,1.);
#99 = DIRECTION('',(-0.,-0.,-1.));
#100 = PLANE('',#101);
#101 = AXIS2_PLACEMENT_3D('',#102,#103,#104);
#102 = CARTESIAN_POINT('',(12.305,22.78,2.6));
#103 = DIRECTION('',(0.,1.,0.));
#104 = DIRECTION('',(-1.,0.,0.));
#105 = ADVANCED_FACE('',(#106),#131,.F.);
#106 = FACE_BOUND('',#107,.F.);
#107 = EDGE_LOOP('',(#108,#109,#117,#125));
#108 = ORIENTED_EDGE('',*,*,#21,.T.);
#109 = ORIENTED_EDGE('',*,*,#110,.T.);
#110 = EDGE_CURVE('',#24,#111,#113,.T.);
#111 = VERTEX_POINT('',#112);
#112 = CARTESIAN_POINT('',(-11.905,18.08,-4.7));
#113 = LINE('',#114,#115);
#114 = CARTESIAN_POINT('',(-11.905,22.78,-3.28E-15));
#115 = VECTOR('',#116,1.);
#116 = DIRECTION('',(-2.1E-14,-0.707106781187,-0.707106781187));
#117 = ORIENTED_EDGE('',*,*,#118,.F.);
#118 = EDGE_CURVE('',#119,#111,#121,.T.);
#119 = VERTEX_POINT('',#120);
#120 = CARTESIAN_POINT('',(11.905,18.08,-4.7));
#121 = LINE('',#122,#123);
#122 = CARTESIAN_POINT('',(12.305,18.08,-4.7));
#123 = VECTOR('',#124,1.);
#124 = DIRECTION('',(-1.,0.,0.));
#125 = ORIENTED_EDGE('',*,*,#126,.F.);
#126 = EDGE_CURVE('',#22,#119,#127,.T.);
#127 = LINE('',#128,#129);
#128 = CARTESIAN_POINT('',(11.905,22.78,1.78E-15));
#129 = VECTOR('',#130,1.);
#130 = DIRECTION('',(0.,-0.707106781187,-0.707106781187));
#131 = PLANE('',#132);
#132 = AXIS2_PLACEMENT_3D('',#133,#134,#135);
#133 = CARTESIAN_POINT('',(12.305,20.43,-2.35));
#134 = DIRECTION('',(0.,-0.707106781187,0.707106781187));
#135 = DIRECTION('',(-1.,0.,0.));
#136 = ADVANCED_FACE('',(#137),#162,.T.);
#137 = FACE_BOUND('',#138,.F.);
#138 = EDGE_LOOP('',(#139,#147,#148,#156));
#139 = ORIENTED_EDGE('',*,*,#140,.F.);
#140 = EDGE_CURVE('',#88,#141,#143,.T.);
#141 = VERTEX_POINT('',#142);
#142 = CARTESIAN_POINT('',(12.305,22.38,2.6));
#143 = LINE('',#144,#145);
#144 = CARTESIAN_POINT('',(15.30875,19.37625,2.6));
#145 = VECTOR('',#146,1.);
#146 = DIRECTION('',(0.707106781187,-0.707106781187,0.));
#147 = ORIENTED_EDGE('',*,*,#95,.T.);
#148 = ORIENTED_EDGE('',*,*,#149,.T.);
#149 = EDGE_CURVE('',#22,#150,#152,.T.);
#150 = VERTEX_POINT('',#151);
#151 = CARTESIAN_POINT('',(12.305,22.38,0.165685424949));
#152 = LINE('',#153,#154);
#153 = CARTESIAN_POINT('',(12.337164926068,22.347835073932,
    0.179008573559));
#154 = VECTOR('',#155,1.);
#155 = DIRECTION('',(0.678598344546,-0.678598344546,0.281084637715));
#156 = ORIENTED_EDGE('',*,*,#157,.F.);
#157 = EDGE_CURVE('',#141,#150,#158,.T.);
#158 = LINE('',#159,#160);
#159 = CARTESIAN_POINT('',(12.305,22.38,2.6));
#160 = VECTOR('',#161,1.);
#161 = DIRECTION('',(-0.,-0.,-1.));
#162 = PLANE('',#163);
#163 = AXIS2_PLACEMENT_3D('',#164,#165,#166);
#164 = CARTESIAN_POINT('',(12.105,22.58,2.6));
#165 = DIRECTION('',(0.707106781187,0.707106781187,0.));
#166 = DIRECTION('',(0.,0.,1.));
#167 = ADVANCED_FACE('',(#168),#193,.T.);
#168 = FACE_BOUND('',#169,.T.);
#169 = EDGE_LOOP('',(#170,#178,#179,#187));
#170 = ORIENTED_EDGE('',*,*,#171,.F.);
#171 = EDGE_CURVE('',#32,#172,#174,.T.);
#172 = VERTEX_POINT('',#173);
#173 = CARTESIAN_POINT('',(-12.305,22.38,2.6));
#174 = LINE('',#175,#176);
#175 = CARTESIAN_POINT('',(-15.30875,19.37625,2.6));
#176 = VECTOR('',#177,1.);
#177 = DIRECTION('',(-0.707106781187,-0.707106781187,0.));
#178 = ORIENTED_EDGE('',*,*,#31,.T.);
#179 = ORIENTED_EDGE('',*,*,#180,.T.);
#180 = EDGE_CURVE('',#24,#181,#183,.T.);
#181 = VERTEX_POINT('',#182);
#182 = CARTESIAN_POINT('',(-12.305,22.38,0.165685424949));
#183 = LINE('',#184,#185);
#184 = CARTESIAN_POINT('',(-12.33716492606,22.347835073932,
    0.179008573559));
#185 = VECTOR('',#186,1.);
#186 = DIRECTION('',(-0.678598344546,-0.678598344546,0.281084637715));
#187 = ORIENTED_EDGE('',*,*,#188,.F.);
#188 = EDGE_CURVE('',#172,#181,#189,.T.);
#189 = LINE('',#190,#191);
#190 = CARTESIAN_POINT('',(-12.305,22.38,2.6));
#191 = VECTOR('',#192,1.);
#192 = DIRECTION('',(-0.,-0.,-1.));
#193 = PLANE('',#194);
#194 = AXIS2_PLACEMENT_3D('',#195,#196,#197);
#195 = CARTESIAN_POINT('',(-12.105,22.58,2.6));
#196 = DIRECTION('',(-0.707106781187,0.707106781187,0.));
#197 = DIRECTION('',(0.,0.,-1.));
#198 = ADVANCED_FACE('',(#199),#297,.T.);
#199 = FACE_BOUND('',#200,.T.);
#200 = EDGE_LOOP('',(#201,#202,#203,#211,#219,#227,#235,#243,#251,#259,
    #267,#275,#283,#291));
#201 = ORIENTED_EDGE('',*,*,#140,.F.);
#202 = ORIENTED_EDGE('',*,*,#87,.T.);
#203 = ORIENTED_EDGE('',*,*,#204,.T.);
#204 = EDGE_CURVE('',#80,#205,#207,.T.);
#205 = VERTEX_POINT('',#206);
#206 = CARTESIAN_POINT('',(6.105,20.78,2.6));
#207 = LINE('',#208,#209);
#208 = CARTESIAN_POINT('',(6.105,22.78,2.6));
#209 = VECTOR('',#210,1.);
#210 = DIRECTION('',(1.78E-15,-1.,0.));
#211 = ORIENTED_EDGE('',*,*,#212,.F.);
#212 = EDGE_CURVE('',#213,#205,#215,.T.);
#213 = VERTEX_POINT('',#214);
#214 = CARTESIAN_POINT('',(10.305,20.78,2.6));
#215 = LINE('',#216,#217);
#216 = CARTESIAN_POINT('',(12.305,20.78,2.6));
#217 = VECTOR('',#218,1.);
#218 = DIRECTION('',(-1.,0.,0.));
#219 = ORIENTED_EDGE('',*,*,#220,.F.);
#220 = EDGE_CURVE('',#221,#213,#223,.T.);
#221 = VERTEX_POINT('',#222);
#222 = CARTESIAN_POINT('',(10.305,5.,2.6));
#223 = LINE('',#224,#225);
#224 = CARTESIAN_POINT('',(10.305,-27.46,2.6));
#225 = VECTOR('',#226,1.);
#226 = DIRECTION('',(0.,1.,0.));
#227 = ORIENTED_EDGE('',*,*,#228,.F.);
#228 = EDGE_CURVE('',#229,#221,#231,.T.);
#229 = VERTEX_POINT('',#230);
#230 = CARTESIAN_POINT('',(11.305,5.,2.6));
#231 = LINE('',#232,#233);
#232 = CARTESIAN_POINT('',(11.305,5.,2.6));
#233 = VECTOR('',#234,1.);
#234 = DIRECTION('',(-1.,0.,0.));
#235 = ORIENTED_EDGE('',*,*,#236,.T.);
#236 = EDGE_CURVE('',#229,#237,#239,.T.);
#237 = VERTEX_POINT('',#238);
#238 = CARTESIAN_POINT('',(11.305,-5.,2.6));
#239 = LINE('',#240,#241);
#240 = CARTESIAN_POINT('',(11.305,5.,2.6));
#241 = VECTOR('',#242,1.);
#242 = DIRECTION('',(0.,-1.,0.));
#243 = ORIENTED_EDGE('',*,*,#244,.T.);
#244 = EDGE_CURVE('',#237,#245,#247,.T.);
#245 = VERTEX_POINT('',#246);
#246 = CARTESIAN_POINT('',(10.305,-5.,2.6));
#247 = LINE('',#248,#249);
#248 = CARTESIAN_POINT('',(11.305,-5.,2.6));
#249 = VECTOR('',#250,1.);
#250 = DIRECTION('',(-1.,0.,0.));
#251 = ORIENTED_EDGE('',*,*,#252,.F.);
#252 = EDGE_CURVE('',#253,#245,#255,.T.);
#253 = VERTEX_POINT('',#254);
#254 = CARTESIAN_POINT('',(10.305,-25.46,2.6));
#255 = LINE('',#256,#257);
#256 = CARTESIAN_POINT('',(10.305,-27.46,2.6));
#257 = VECTOR('',#258,1.);
#258 = DIRECTION('',(0.,1.,0.));
#259 = ORIENTED_EDGE('',*,*,#260,.F.);
#260 = EDGE_CURVE('',#261,#253,#263,.T.);
#261 = VERTEX_POINT('',#262);
#262 = CARTESIAN_POINT('',(6.65,-25.46,2.6));
#263 = LINE('',#264,#265);
#264 = CARTESIAN_POINT('',(-12.305,-25.46,2.6));
#265 = VECTOR('',#266,1.);
#266 = DIRECTION('',(1.,0.,0.));
#267 = ORIENTED_EDGE('',*,*,#268,.F.);
#268 = EDGE_CURVE('',#269,#261,#271,.T.);
#269 = VERTEX_POINT('',#270);
#270 = CARTESIAN_POINT('',(6.65,-27.46,2.6));
#271 = LINE('',#272,#273);
#272 = CARTESIAN_POINT('',(6.65,-27.46,2.6));
#273 = VECTOR('',#274,1.);
#274 = DIRECTION('',(0.,1.,0.));
#275 = ORIENTED_EDGE('',*,*,#276,.T.);
#276 = EDGE_CURVE('',#269,#277,#279,.T.);
#277 = VERTEX_POINT('',#278);
#278 = CARTESIAN_POINT('',(11.905,-27.46,2.6));
#279 = LINE('',#280,#281);
#280 = CARTESIAN_POINT('',(-12.305,-27.46,2.6));
#281 = VECTOR('',#282,1.);
#282 = DIRECTION('',(1.,0.,0.));
#283 = ORIENTED_EDGE('',*,*,#284,.F.);
#284 = EDGE_CURVE('',#285,#277,#287,.T.);
#285 = VERTEX_POINT('',#286);
#286 = CARTESIAN_POINT('',(12.305,-27.06,2.6));
#287 = LINE('',#288,#289);
#288 = CARTESIAN_POINT('',(15.30875,-24.05625,2.6));
#289 = VECTOR('',#290,1.);
#290 = DIRECTION('',(-0.707106781187,-0.707106781187,0.));
#291 = ORIENTED_EDGE('',*,*,#292,.T.);
#292 = EDGE_CURVE('',#285,#141,#293,.T.);
#293 = LINE('',#294,#295);
#294 = CARTESIAN_POINT('',(12.305,-27.46,2.6));
#295 = VECTOR('',#296,1.);
#296 = DIRECTION('',(0.,1.,0.));
#297 = PLANE('',#298);
#298 = AXIS2_PLACEMENT_3D('',#299,#300,#301);
#299 = CARTESIAN_POINT('',(-3.7364E-13,-2.34,2.6));
#300 = DIRECTION('',(0.,0.,1.));
#301 = DIRECTION('',(1.,0.,0.));
#302 = ADVANCED_FACE('',(#303),#465,.T.);
#303 = FACE_BOUND('',#304,.T.);
#304 = EDGE_LOOP('',(#305,#315,#323,#331,#339,#347,#355,#363,#371,#379,
    #387,#395,#403,#411,#419,#427,#435,#443,#451,#457,#458,#459));
#305 = ORIENTED_EDGE('',*,*,#306,.T.);
#306 = EDGE_CURVE('',#307,#309,#311,.T.);
#307 = VERTEX_POINT('',#308);
#308 = CARTESIAN_POINT('',(-12.305,-27.06,2.6));
#309 = VERTEX_POINT('',#310);
#310 = CARTESIAN_POINT('',(-11.905,-27.46,2.6));
#311 = LINE('',#312,#313);
#312 = CARTESIAN_POINT('',(-15.30875,-24.05625,2.6));
#313 = VECTOR('',#314,1.);
#314 = DIRECTION('',(0.707106781187,-0.707106781187,0.));
#315 = ORIENTED_EDGE('',*,*,#316,.T.);
#316 = EDGE_CURVE('',#309,#317,#319,.T.);
#317 = VERTEX_POINT('',#318);
#318 = CARTESIAN_POINT('',(-6.64,-27.46,2.6));
#319 = LINE('',#320,#321);
#320 = CARTESIAN_POINT('',(-12.305,-27.46,2.6));
#321 = VECTOR('',#322,1.);
#322 = DIRECTION('',(1.,0.,0.));
#323 = ORIENTED_EDGE('',*,*,#324,.F.);
#324 = EDGE_CURVE('',#325,#317,#327,.T.);
#325 = VERTEX_POINT('',#326);
#326 = CARTESIAN_POINT('',(-6.64,-25.46,2.6));
#327 = LINE('',#328,#329);
#328 = CARTESIAN_POINT('',(-6.64,-25.46,2.6));
#329 = VECTOR('',#330,1.);
#330 = DIRECTION('',(0.,-1.,0.));
#331 = ORIENTED_EDGE('',*,*,#332,.F.);
#332 = EDGE_CURVE('',#333,#325,#335,.T.);
#333 = VERTEX_POINT('',#334);
#334 = CARTESIAN_POINT('',(-10.305,-25.46,2.6));
#335 = LINE('',#336,#337);
#336 = CARTESIAN_POINT('',(-12.305,-25.46,2.6));
#337 = VECTOR('',#338,1.);
#338 = DIRECTION('',(1.,0.,0.));
#339 = ORIENTED_EDGE('',*,*,#340,.F.);
#340 = EDGE_CURVE('',#341,#333,#343,.T.);
#341 = VERTEX_POINT('',#342);
#342 = CARTESIAN_POINT('',(-10.305,-12.62,2.6));
#343 = LINE('',#344,#345);
#344 = CARTESIAN_POINT('',(-10.305,22.78,2.6));
#345 = VECTOR('',#346,1.);
#346 = DIRECTION('',(-2.97E-14,-1.,0.));
#347 = ORIENTED_EDGE('',*,*,#348,.T.);
#348 = EDGE_CURVE('',#341,#349,#351,.T.);
#349 = VERTEX_POINT('',#350);
#350 = CARTESIAN_POINT('',(-7.905,-12.62,2.6));
#351 = LINE('',#352,#353);
#352 = CARTESIAN_POINT('',(-10.305,-12.62,2.6));
#353 = VECTOR('',#354,1.);
#354 = DIRECTION('',(1.,0.,0.));
#355 = ORIENTED_EDGE('',*,*,#356,.F.);
#356 = EDGE_CURVE('',#357,#349,#359,.T.);
#357 = VERTEX_POINT('',#358);
#358 = CARTESIAN_POINT('',(-7.905,-11.32,2.6));
#359 = LINE('',#360,#361);
#360 = CARTESIAN_POINT('',(-7.905,-11.32,2.6));
#361 = VECTOR('',#362,1.);
#362 = DIRECTION('',(0.,-1.,0.));
#363 = ORIENTED_EDGE('',*,*,#364,.F.);
#364 = EDGE_CURVE('',#365,#357,#367,.T.);
#365 = VERTEX_POINT('',#366);
#366 = CARTESIAN_POINT('',(-10.305,-11.32,2.6));
#367 = LINE('',#368,#369);
#368 = CARTESIAN_POINT('',(-10.305,-11.32,2.6));
#369 = VECTOR('',#370,1.);
#370 = DIRECTION('',(1.,0.,0.));
#371 = ORIENTED_EDGE('',*,*,#372,.F.);
#372 = EDGE_CURVE('',#373,#365,#375,.T.);
#373 = VERTEX_POINT('',#374);
#374 = CARTESIAN_POINT('',(-10.305,-5.,2.6));
#375 = LINE('',#376,#377);
#376 = CARTESIAN_POINT('',(-10.305,22.78,2.6));
#377 = VECTOR('',#378,1.);
#378 = DIRECTION('',(-2.97E-14,-1.,0.));
#379 = ORIENTED_EDGE('',*,*,#380,.F.);
#380 = EDGE_CURVE('',#381,#373,#383,.T.);
#381 = VERTEX_POINT('',#382);
#382 = CARTESIAN_POINT('',(-11.305,-5.,2.6));
#383 = LINE('',#384,#385);
#384 = CARTESIAN_POINT('',(-11.305,-5.,2.6));
#385 = VECTOR('',#386,1.);
#386 = DIRECTION('',(1.,0.,0.));
#387 = ORIENTED_EDGE('',*,*,#388,.F.);
#388 = EDGE_CURVE('',#389,#381,#391,.T.);
#389 = VERTEX_POINT('',#390);
#390 = CARTESIAN_POINT('',(-11.305,5.,2.6));
#391 = LINE('',#392,#393);
#392 = CARTESIAN_POINT('',(-11.305,5.,2.6));
#393 = VECTOR('',#394,1.);
#394 = DIRECTION('',(0.,-1.,0.));
#395 = ORIENTED_EDGE('',*,*,#396,.T.);
#396 = EDGE_CURVE('',#389,#397,#399,.T.);
#397 = VERTEX_POINT('',#398);
#398 = CARTESIAN_POINT('',(-10.305,5.,2.6));
#399 = LINE('',#400,#401);
#400 = CARTESIAN_POINT('',(-11.305,5.,2.6));
#401 = VECTOR('',#402,1.);
#402 = DIRECTION('',(1.,0.,0.));
#403 = ORIENTED_EDGE('',*,*,#404,.F.);
#404 = EDGE_CURVE('',#405,#397,#407,.T.);
#405 = VERTEX_POINT('',#406);
#406 = CARTESIAN_POINT('',(-10.305,15.53,2.6));
#407 = LINE('',#408,#409);
#408 = CARTESIAN_POINT('',(-10.305,22.78,2.6));
#409 = VECTOR('',#410,1.);
#410 = DIRECTION('',(-2.97E-14,-1.,0.));
#411 = ORIENTED_EDGE('',*,*,#412,.T.);
#412 = EDGE_CURVE('',#405,#413,#415,.T.);
#413 = VERTEX_POINT('',#414);
#414 = CARTESIAN_POINT('',(-7.905,15.53,2.6));
#415 = LINE('',#416,#417);
#416 = CARTESIAN_POINT('',(-10.305,15.53,2.6));
#417 = VECTOR('',#418,1.);
#418 = DIRECTION('',(1.,1.48E-15,0.));
#419 = ORIENTED_EDGE('',*,*,#420,.F.);
#420 = EDGE_CURVE('',#421,#413,#423,.T.);
#421 = VERTEX_POINT('',#422);
#422 = CARTESIAN_POINT('',(-7.905,16.83,2.6));
#423 = LINE('',#424,#425);
#424 = CARTESIAN_POINT('',(-7.905,16.83,2.6));
#425 = VECTOR('',#426,1.);
#426 = DIRECTION('',(0.,-1.,0.));
#427 = ORIENTED_EDGE('',*,*,#428,.F.);
#428 = EDGE_CURVE('',#429,#421,#431,.T.);
#429 = VERTEX_POINT('',#430);
#430 = CARTESIAN_POINT('',(-10.305,16.83,2.6));
#431 = LINE('',#432,#433);
#432 = CARTESIAN_POINT('',(-10.305,16.83,2.6));
#433 = VECTOR('',#434,1.);
#434 = DIRECTION('',(1.,0.,0.));
#435 = ORIENTED_EDGE('',*,*,#436,.F.);
#436 = EDGE_CURVE('',#437,#429,#439,.T.);
#437 = VERTEX_POINT('',#438);
#438 = CARTESIAN_POINT('',(-10.305,20.78,2.6));
#439 = LINE('',#440,#441);
#440 = CARTESIAN_POINT('',(-10.305,22.78,2.6));
#441 = VECTOR('',#442,1.);
#442 = DIRECTION('',(-2.97E-14,-1.,0.));
#443 = ORIENTED_EDGE('',*,*,#444,.F.);
#444 = EDGE_CURVE('',#445,#437,#447,.T.);
#445 = VERTEX_POINT('',#446);
#446 = CARTESIAN_POINT('',(-6.095,20.78,2.6));
#447 = LINE('',#448,#449);
#448 = CARTESIAN_POINT('',(12.305,20.78,2.6));
#449 = VECTOR('',#450,1.);
#450 = DIRECTION('',(-1.,0.,0.));
#451 = ORIENTED_EDGE('',*,*,#452,.F.);
#452 = EDGE_CURVE('',#40,#445,#453,.T.);
#453 = LINE('',#454,#455);
#454 = CARTESIAN_POINT('',(-6.095,22.78,2.6));
#455 = VECTOR('',#456,1.);
#456 = DIRECTION('',(0.,-1.,0.));
#457 = ORIENTED_EDGE('',*,*,#39,.T.);
#458 = ORIENTED_EDGE('',*,*,#171,.T.);
#459 = ORIENTED_EDGE('',*,*,#460,.T.);
#460 = EDGE_CURVE('',#172,#307,#461,.T.);
#461 = LINE('',#462,#463);
#462 = CARTESIAN_POINT('',(-12.305,22.78,2.6));
#463 = VECTOR('',#464,1.);
#464 = DIRECTION('',(-2.97E-14,-1.,0.));
#465 = PLANE('',#466);
#466 = AXIS2_PLACEMENT_3D('',#467,#468,#469);
#467 = CARTESIAN_POINT('',(-3.7364E-13,-2.34,2.6));
#468 = DIRECTION('',(0.,0.,1.));
#469 = DIRECTION('',(1.,0.,0.));
#470 = ADVANCED_FACE('',(#471),#489,.T.);
#471 = FACE_BOUND('',#472,.T.);
#472 = EDGE_LOOP('',(#473,#474,#482,#488));
#473 = ORIENTED_EDGE('',*,*,#79,.T.);
#474 = ORIENTED_EDGE('',*,*,#475,.T.);
#475 = EDGE_CURVE('',#72,#476,#478,.T.);
#476 = VERTEX_POINT('',#477);
#477 = CARTESIAN_POINT('',(6.105,20.78,0.55));
#478 = LINE('',#479,#480);
#479 = CARTESIAN_POINT('',(6.105,22.78,0.55));
#480 = VECTOR('',#481,1.);
#481 = DIRECTION('',(1.78E-15,-1.,0.));
#482 = ORIENTED_EDGE('',*,*,#483,.F.);
#483 = EDGE_CURVE('',#205,#476,#484,.T.);
#484 = LINE('',#485,#486);
#485 = CARTESIAN_POINT('',(6.105,20.78,2.6));
#486 = VECTOR('',#487,1.);
#487 = DIRECTION('',(-0.,-0.,-1.));
#488 = ORIENTED_EDGE('',*,*,#204,.F.);
#489 = PLANE('',#490);
#490 = AXIS2_PLACEMENT_3D('',#491,#492,#493);
#491 = CARTESIAN_POINT('',(6.105,22.78,2.6));
#492 = DIRECTION('',(-1.,-1.78E-15,0.));
#493 = DIRECTION('',(1.78E-15,-1.,0.));
#494 = ADVANCED_FACE('',(#495),#513,.F.);
#495 = FACE_BOUND('',#496,.F.);
#496 = EDGE_LOOP('',(#497,#498,#506,#512));
#497 = ORIENTED_EDGE('',*,*,#47,.T.);
#498 = ORIENTED_EDGE('',*,*,#499,.T.);
#499 = EDGE_CURVE('',#48,#500,#502,.T.);
#500 = VERTEX_POINT('',#501);
#501 = CARTESIAN_POINT('',(-6.095,20.78,0.55));
#502 = LINE('',#503,#504);
#503 = CARTESIAN_POINT('',(-6.095,22.78,0.55));
#504 = VECTOR('',#505,1.);
#505 = DIRECTION('',(0.,-1.,0.));
#506 = ORIENTED_EDGE('',*,*,#507,.F.);
#507 = EDGE_CURVE('',#445,#500,#508,.T.);
#508 = LINE('',#509,#510);
#509 = CARTESIAN_POINT('',(-6.095,20.78,2.6));
#510 = VECTOR('',#511,1.);
#511 = DIRECTION('',(-0.,-0.,-1.));
#512 = ORIENTED_EDGE('',*,*,#452,.F.);
#513 = PLANE('',#514);
#514 = AXIS2_PLACEMENT_3D('',#515,#516,#517);
#515 = CARTESIAN_POINT('',(-6.095,22.78,2.6));
#516 = DIRECTION('',(-1.,0.,0.));
#517 = DIRECTION('',(0.,-1.,0.));
#518 = ADVANCED_FACE('',(#519),#537,.F.);
#519 = FACE_BOUND('',#520,.F.);
#520 = EDGE_LOOP('',(#521,#522,#523,#531));
#521 = ORIENTED_EDGE('',*,*,#71,.F.);
#522 = ORIENTED_EDGE('',*,*,#475,.T.);
#523 = ORIENTED_EDGE('',*,*,#524,.T.);
#524 = EDGE_CURVE('',#476,#525,#527,.T.);
#525 = VERTEX_POINT('',#526);
#526 = CARTESIAN_POINT('',(5.805,20.78,0.25));
#527 = LINE('',#528,#529);
#528 = CARTESIAN_POINT('',(8.0925,20.78,2.5375));
#529 = VECTOR('',#530,1.);
#530 = DIRECTION('',(-0.707106781187,0.,-0.707106781187));
#531 = ORIENTED_EDGE('',*,*,#532,.F.);
#532 = EDGE_CURVE('',#64,#525,#533,.T.);
#533 = LINE('',#534,#535);
#534 = CARTESIAN_POINT('',(5.805,22.78,0.25));
#535 = VECTOR('',#536,1.);
#536 = DIRECTION('',(1.78E-15,-1.,0.));
#537 = PLANE('',#538);
#538 = AXIS2_PLACEMENT_3D('',#539,#540,#541);
#539 = CARTESIAN_POINT('',(5.955,22.78,0.4));
#540 = DIRECTION('',(0.707106781187,1.25E-15,-0.707106781187));
#541 = DIRECTION('',(1.768883476483E-15,-1.,1.116523516816E-18));
#542 = ADVANCED_FACE('',(#543),#561,.T.);
#543 = FACE_BOUND('',#544,.F.);
#544 = EDGE_LOOP('',(#545,#546,#554,#560));
#545 = ORIENTED_EDGE('',*,*,#55,.F.);
#546 = ORIENTED_EDGE('',*,*,#547,.T.);
#547 = EDGE_CURVE('',#56,#548,#550,.T.);
#548 = VERTEX_POINT('',#549);
#549 = CARTESIAN_POINT('',(-5.795,20.78,0.25));
#550 = LINE('',#551,#552);
#551 = CARTESIAN_POINT('',(-5.795,22.78,0.25));
#552 = VECTOR('',#553,1.);
#553 = DIRECTION('',(0.,-1.,0.));
#554 = ORIENTED_EDGE('',*,*,#555,.T.);
#555 = EDGE_CURVE('',#548,#500,#556,.T.);
#556 = LINE('',#557,#558);
#557 = CARTESIAN_POINT('',(-1.9325,20.78,-3.6125));
#558 = VECTOR('',#559,1.);
#559 = DIRECTION('',(-0.707106781187,0.,0.707106781187));
#560 = ORIENTED_EDGE('',*,*,#499,.F.);
#561 = PLANE('',#562);
#562 = AXIS2_PLACEMENT_3D('',#563,#564,#565);
#563 = CARTESIAN_POINT('',(-5.945,22.78,0.4));
#564 = DIRECTION('',(0.707106781187,0.,0.707106781187));
#565 = DIRECTION('',(0.,1.,0.));
#566 = ADVANCED_FACE('',(#567),#578,.T.);
#567 = FACE_BOUND('',#568,.T.);
#568 = EDGE_LOOP('',(#569,#570,#571,#577));
#569 = ORIENTED_EDGE('',*,*,#63,.F.);
#570 = ORIENTED_EDGE('',*,*,#547,.T.);
#571 = ORIENTED_EDGE('',*,*,#572,.T.);
#572 = EDGE_CURVE('',#548,#525,#573,.T.);
#573 = LINE('',#574,#575);
#574 = CARTESIAN_POINT('',(-6.095,20.78,0.25));
#575 = VECTOR('',#576,1.);
#576 = DIRECTION('',(1.,0.,0.));
#577 = ORIENTED_EDGE('',*,*,#532,.F.);
#578 = PLANE('',#579);
#579 = AXIS2_PLACEMENT_3D('',#580,#581,#582);
#580 = CARTESIAN_POINT('',(4.999999999999E-03,21.78,0.25));
#581 = DIRECTION('',(0.,0.,1.));
#582 = DIRECTION('',(1.,0.,0.));
#583 = ADVANCED_FACE('',(#584),#602,.F.);
#584 = FACE_BOUND('',#585,.T.);
#585 = EDGE_LOOP('',(#586,#587,#595,#601));
#586 = ORIENTED_EDGE('',*,*,#149,.T.);
#587 = ORIENTED_EDGE('',*,*,#588,.T.);
#588 = EDGE_CURVE('',#150,#589,#591,.T.);
#589 = VERTEX_POINT('',#590);
#590 = CARTESIAN_POINT('',(12.305,17.914314575051,-4.3));
#591 = LINE('',#592,#593);
#592 = CARTESIAN_POINT('',(12.305,22.497157287525,0.282842712475));
#593 = VECTOR('',#594,1.);
#594 = DIRECTION('',(0.,-0.707106781187,-0.707106781187));
#595 = ORIENTED_EDGE('',*,*,#596,.T.);
#596 = EDGE_CURVE('',#589,#119,#597,.T.);
#597 = LINE('',#598,#599);
#598 = CARTESIAN_POINT('',(16.417818769872,16.210729260987,
    -0.187181230128));
#599 = VECTOR('',#600,1.);
#600 = DIRECTION('',(-0.678598344546,0.281084637715,-0.678598344546));
#601 = ORIENTED_EDGE('',*,*,#126,.F.);
#602 = PLANE('',#603);
#603 = AXIS2_PLACEMENT_3D('',#604,#605,#606);
#604 = CARTESIAN_POINT('',(12.105,22.638578643763,0.141421356237));
#605 = DIRECTION('',(-0.707106781187,-0.5,0.5));
#606 = DIRECTION('',(2.775557561563E-17,0.707106781187,0.707106781187));
#607 = ADVANCED_FACE('',(#608),#626,.F.);
#608 = FACE_BOUND('',#609,.T.);
#609 = EDGE_LOOP('',(#610,#611,#612,#620));
#610 = ORIENTED_EDGE('',*,*,#180,.F.);
#611 = ORIENTED_EDGE('',*,*,#110,.T.);
#612 = ORIENTED_EDGE('',*,*,#613,.T.);
#613 = EDGE_CURVE('',#111,#614,#616,.T.);
#614 = VERTEX_POINT('',#615);
#615 = CARTESIAN_POINT('',(-12.305,17.914314575051,-4.3));
#616 = LINE('',#617,#618);
#617 = CARTESIAN_POINT('',(-12.72311582225,17.74112533083,
    -3.881884177746));
#618 = VECTOR('',#619,1.);
#619 = DIRECTION('',(-0.678598344546,-0.281084637715,0.678598344546));
#620 = ORIENTED_EDGE('',*,*,#621,.F.);
#621 = EDGE_CURVE('',#181,#614,#622,.T.);
#622 = LINE('',#623,#624);
#623 = CARTESIAN_POINT('',(-12.305,22.497157287525,0.282842712475));
#624 = VECTOR('',#625,1.);
#625 = DIRECTION('',(-2.1E-14,-0.707106781187,-0.707106781187));
#626 = PLANE('',#627);
#627 = AXIS2_PLACEMENT_3D('',#628,#629,#630);
#628 = CARTESIAN_POINT('',(-12.105,22.638578643763,0.141421356237));
#629 = DIRECTION('',(0.707106781187,-0.5,0.5));
#630 = DIRECTION('',(2.092770401418E-14,0.707106781187,0.707106781187));
#631 = ADVANCED_FACE('',(#632,#657),#668,.F.);
#632 = FACE_BOUND('',#633,.F.);
#633 = EDGE_LOOP('',(#634,#635,#643,#651));
#634 = ORIENTED_EDGE('',*,*,#118,.T.);
#635 = ORIENTED_EDGE('',*,*,#636,.T.);
#636 = EDGE_CURVE('',#111,#637,#639,.T.);
#637 = VERTEX_POINT('',#638);
#638 = CARTESIAN_POINT('',(-11.905,-20.66,-4.7));
#639 = LINE('',#640,#641);
#640 = CARTESIAN_POINT('',(-11.905,18.08,-4.7));
#641 = VECTOR('',#642,1.);
#642 = DIRECTION('',(-2.97E-14,-1.,0.));
#643 = ORIENTED_EDGE('',*,*,#644,.T.);
#644 = EDGE_CURVE('',#637,#645,#647,.T.);
#645 = VERTEX_POINT('',#646);
#646 = CARTESIAN_POINT('',(11.905,-20.66,-4.7));
#647 = LINE('',#648,#649);
#648 = CARTESIAN_POINT('',(-12.305,-20.66,-4.7));
#649 = VECTOR('',#650,1.);
#650 = DIRECTION('',(1.,0.,0.));
#651 = ORIENTED_EDGE('',*,*,#652,.T.);
#652 = EDGE_CURVE('',#645,#119,#653,.T.);
#653 = LINE('',#654,#655);
#654 = CARTESIAN_POINT('',(11.905,-20.66,-4.7));
#655 = VECTOR('',#656,1.);
#656 = DIRECTION('',(0.,1.,0.));
#657 = FACE_BOUND('',#658,.F.);
#658 = EDGE_LOOP('',(#659));
#659 = ORIENTED_EDGE('',*,*,#660,.T.);
#660 = EDGE_CURVE('',#661,#661,#663,.T.);
#661 = VERTEX_POINT('',#662);
#662 = CARTESIAN_POINT('',(4.465,-6.88,-4.7));
#663 = CIRCLE('',#664,2.04);
#664 = AXIS2_PLACEMENT_3D('',#665,#666,#667);
#665 = CARTESIAN_POINT('',(6.505,-6.88,-4.7));
#666 = DIRECTION('',(0.,0.,-1.));
#667 = DIRECTION('',(-1.,0.,0.));
#668 = PLANE('',#669);
#669 = AXIS2_PLACEMENT_3D('',#670,#671,#672);
#670 = CARTESIAN_POINT('',(-3.7364E-13,-2.34,-4.7));
#671 = DIRECTION('',(0.,0.,1.));
#672 = DIRECTION('',(1.,0.,0.));
#673 = ADVANCED_FACE('',(#674),#701,.T.);
#674 = FACE_BOUND('',#675,.T.);
#675 = EDGE_LOOP('',(#676,#677,#685,#693,#699,#700));
#676 = ORIENTED_EDGE('',*,*,#292,.F.);
#677 = ORIENTED_EDGE('',*,*,#678,.T.);
#678 = EDGE_CURVE('',#285,#679,#681,.T.);
#679 = VERTEX_POINT('',#680);
#680 = CARTESIAN_POINT('',(12.305,-27.06,2.265685424949));
#681 = LINE('',#682,#683);
#682 = CARTESIAN_POINT('',(12.305,-27.06,2.6));
#683 = VECTOR('',#684,1.);
#684 = DIRECTION('',(-0.,-0.,-1.));
#685 = ORIENTED_EDGE('',*,*,#686,.T.);
#686 = EDGE_CURVE('',#679,#687,#689,.T.);
#687 = VERTEX_POINT('',#688);
#688 = CARTESIAN_POINT('',(12.305,-20.49431457505,-4.3));
#689 = LINE('',#690,#691);
#690 = CARTESIAN_POINT('',(12.305,-27.17715728752,2.382842712475));
#691 = VECTOR('',#692,1.);
#692 = DIRECTION('',(0.,0.707106781187,-0.707106781187));
#693 = ORIENTED_EDGE('',*,*,#694,.T.);
#694 = EDGE_CURVE('',#687,#589,#695,.T.);
#695 = LINE('',#696,#697);
#696 = CARTESIAN_POINT('',(12.305,-20.66,-4.3));
#697 = VECTOR('',#698,1.);
#698 = DIRECTION('',(0.,1.,0.));
#699 = ORIENTED_EDGE('',*,*,#588,.F.);
#700 = ORIENTED_EDGE('',*,*,#157,.F.);
#701 = PLANE('',#702);
#702 = AXIS2_PLACEMENT_3D('',#703,#704,#705);
#703 = CARTESIAN_POINT('',(12.305,-27.46,2.6));
#704 = DIRECTION('',(1.,0.,0.));
#705 = DIRECTION('',(0.,1.,0.));
#706 = ADVANCED_FACE('',(#707),#734,.T.);
#707 = FACE_BOUND('',#708,.T.);
#708 = EDGE_LOOP('',(#709,#710,#711,#712,#720,#728));
#709 = ORIENTED_EDGE('',*,*,#460,.F.);
#710 = ORIENTED_EDGE('',*,*,#188,.T.);
#711 = ORIENTED_EDGE('',*,*,#621,.T.);
#712 = ORIENTED_EDGE('',*,*,#713,.T.);
#713 = EDGE_CURVE('',#614,#714,#716,.T.);
#714 = VERTEX_POINT('',#715);
#715 = CARTESIAN_POINT('',(-12.305,-20.49431457505,-4.3));
#716 = LINE('',#717,#718);
#717 = CARTESIAN_POINT('',(-12.305,18.08,-4.3));
#718 = VECTOR('',#719,1.);
#719 = DIRECTION('',(-2.97E-14,-1.,0.));
#720 = ORIENTED_EDGE('',*,*,#721,.F.);
#721 = EDGE_CURVE('',#722,#714,#724,.T.);
#722 = VERTEX_POINT('',#723);
#723 = CARTESIAN_POINT('',(-12.305,-27.06,2.265685424949));
#724 = LINE('',#725,#726);
#725 = CARTESIAN_POINT('',(-12.305,-27.17715728752,2.382842712475));
#726 = VECTOR('',#727,1.);
#727 = DIRECTION('',(2.1E-14,0.707106781187,-0.707106781187));
#728 = ORIENTED_EDGE('',*,*,#729,.F.);
#729 = EDGE_CURVE('',#307,#722,#730,.T.);
#730 = LINE('',#731,#732);
#731 = CARTESIAN_POINT('',(-12.305,-27.06,2.6));
#732 = VECTOR('',#733,1.);
#733 = DIRECTION('',(-0.,-0.,-1.));
#734 = PLANE('',#735);
#735 = AXIS2_PLACEMENT_3D('',#736,#737,#738);
#736 = CARTESIAN_POINT('',(-12.305,22.78,2.6));
#737 = DIRECTION('',(-1.,2.97E-14,0.));
#738 = DIRECTION('',(-2.97E-14,-1.,0.));
#739 = ADVANCED_FACE('',(#740),#758,.T.);
#740 = FACE_BOUND('',#741,.F.);
#741 = EDGE_LOOP('',(#742,#743,#744,#752));
#742 = ORIENTED_EDGE('',*,*,#284,.F.);
#743 = ORIENTED_EDGE('',*,*,#678,.T.);
#744 = ORIENTED_EDGE('',*,*,#745,.T.);
#745 = EDGE_CURVE('',#679,#746,#748,.T.);
#746 = VERTEX_POINT('',#747);
#747 = CARTESIAN_POINT('',(11.905,-27.46,2.1));
#748 = LINE('',#749,#750);
#749 = CARTESIAN_POINT('',(12.136884177746,-27.22811582225,
    2.196049571322));
#750 = VECTOR('',#751,1.);
#751 = DIRECTION('',(-0.678598344546,-0.678598344546,-0.281084637715));
#752 = ORIENTED_EDGE('',*,*,#753,.F.);
#753 = EDGE_CURVE('',#277,#746,#754,.T.);
#754 = LINE('',#755,#756);
#755 = CARTESIAN_POINT('',(11.905,-27.46,2.6));
#756 = VECTOR('',#757,1.);
#757 = DIRECTION('',(-0.,-0.,-1.));
#758 = PLANE('',#759);
#759 = AXIS2_PLACEMENT_3D('',#760,#761,#762);
#760 = CARTESIAN_POINT('',(12.105,-27.26,2.6));
#761 = DIRECTION('',(0.707106781187,-0.707106781187,-3.065E-14));
#762 = DIRECTION('',(2.167282284337E-14,-2.167282284337E-14,1.));
#763 = ADVANCED_FACE('',(#764),#805,.T.);
#764 = FACE_BOUND('',#765,.T.);
#765 = EDGE_LOOP('',(#766,#774,#775,#776,#784,#792,#798,#799));
#766 = ORIENTED_EDGE('',*,*,#767,.T.);
#767 = EDGE_CURVE('',#768,#746,#770,.T.);
#768 = VERTEX_POINT('',#769);
#769 = CARTESIAN_POINT('',(-11.905,-27.46,2.1));
#770 = LINE('',#771,#772);
#771 = CARTESIAN_POINT('',(-12.305,-27.46,2.1));
#772 = VECTOR('',#773,1.);
#773 = DIRECTION('',(1.,0.,0.));
#774 = ORIENTED_EDGE('',*,*,#753,.F.);
#775 = ORIENTED_EDGE('',*,*,#276,.F.);
#776 = ORIENTED_EDGE('',*,*,#777,.F.);
#777 = EDGE_CURVE('',#778,#269,#780,.T.);
#778 = VERTEX_POINT('',#779);
#779 = CARTESIAN_POINT('',(6.65,-27.46,2.82));
#780 = LINE('',#781,#782);
#781 = CARTESIAN_POINT('',(6.65,-27.46,2.82));
#782 = VECTOR('',#783,1.);
#783 = DIRECTION('',(0.,0.,-1.));
#784 = ORIENTED_EDGE('',*,*,#785,.F.);
#785 = EDGE_CURVE('',#786,#778,#788,.T.);
#786 = VERTEX_POINT('',#787);
#787 = CARTESIAN_POINT('',(-6.64,-27.46,2.82));
#788 = LINE('',#789,#790);
#789 = CARTESIAN_POINT('',(6.57,-27.46,2.82));
#790 = VECTOR('',#791,1.);
#791 = DIRECTION('',(1.,0.,0.));
#792 = ORIENTED_EDGE('',*,*,#793,.F.);
#793 = EDGE_CURVE('',#317,#786,#794,.T.);
#794 = LINE('',#795,#796);
#795 = CARTESIAN_POINT('',(-6.64,-27.46,2.6));
#796 = VECTOR('',#797,1.);
#797 = DIRECTION('',(0.,0.,1.));
#798 = ORIENTED_EDGE('',*,*,#316,.F.);
#799 = ORIENTED_EDGE('',*,*,#800,.T.);
#800 = EDGE_CURVE('',#309,#768,#801,.T.);
#801 = LINE('',#802,#803);
#802 = CARTESIAN_POINT('',(-11.905,-27.46,2.6));
#803 = VECTOR('',#804,1.);
#804 = DIRECTION('',(-0.,-0.,-1.));
#805 = PLANE('',#806);
#806 = AXIS2_PLACEMENT_3D('',#807,#808,#809);
#807 = CARTESIAN_POINT('',(4.342676594057E-05,-27.46,2.410840900118));
#808 = DIRECTION('',(-0.,-1.,-4.35E-14));
#809 = DIRECTION('',(0.,4.35E-14,-1.));
#810 = ADVANCED_FACE('',(#811),#829,.T.);
#811 = FACE_BOUND('',#812,.T.);
#812 = EDGE_LOOP('',(#813,#814,#815,#823));
#813 = ORIENTED_EDGE('',*,*,#777,.T.);
#814 = ORIENTED_EDGE('',*,*,#268,.T.);
#815 = ORIENTED_EDGE('',*,*,#816,.T.);
#816 = EDGE_CURVE('',#261,#817,#819,.T.);
#817 = VERTEX_POINT('',#818);
#818 = CARTESIAN_POINT('',(6.65,-25.46,2.82));
#819 = LINE('',#820,#821);
#820 = CARTESIAN_POINT('',(6.65,-25.46,2.6));
#821 = VECTOR('',#822,1.);
#822 = DIRECTION('',(0.,0.,1.));
#823 = ORIENTED_EDGE('',*,*,#824,.T.);
#824 = EDGE_CURVE('',#817,#778,#825,.T.);
#825 = LINE('',#826,#827);
#826 = CARTESIAN_POINT('',(6.65,-25.46,2.82));
#827 = VECTOR('',#828,1.);
#828 = DIRECTION('',(0.,-1.,0.));
#829 = PLANE('',#830);
#830 = AXIS2_PLACEMENT_3D('',#831,#832,#833);
#831 = CARTESIAN_POINT('',(6.65,-26.46,2.71));
#832 = DIRECTION('',(1.,0.,0.));
#833 = DIRECTION('',(0.,0.,1.));
#834 = ADVANCED_FACE('',(#835),#876,.T.);
#835 = FACE_BOUND('',#836,.T.);
#836 = EDGE_LOOP('',(#837,#845,#853,#859,#860,#868,#874,#875));
#837 = ORIENTED_EDGE('',*,*,#838,.F.);
#838 = EDGE_CURVE('',#839,#253,#841,.T.);
#839 = VERTEX_POINT('',#840);
#840 = CARTESIAN_POINT('',(10.305,-25.46,2.1));
#841 = LINE('',#842,#843);
#842 = CARTESIAN_POINT('',(10.305,-25.46,2.6));
#843 = VECTOR('',#844,1.);
#844 = DIRECTION('',(0.,0.,1.));
#845 = ORIENTED_EDGE('',*,*,#846,.T.);
#846 = EDGE_CURVE('',#839,#847,#849,.T.);
#847 = VERTEX_POINT('',#848);
#848 = CARTESIAN_POINT('',(-10.305,-25.46,2.1));
#849 = LINE('',#850,#851);
#850 = CARTESIAN_POINT('',(10.305,-25.46,2.1));
#851 = VECTOR('',#852,1.);
#852 = DIRECTION('',(-1.,0.,0.));
#853 = ORIENTED_EDGE('',*,*,#854,.T.);
#854 = EDGE_CURVE('',#847,#333,#855,.T.);
#855 = LINE('',#856,#857);
#856 = CARTESIAN_POINT('',(-10.305,-25.46,2.6));
#857 = VECTOR('',#858,1.);
#858 = DIRECTION('',(0.,0.,1.));
#859 = ORIENTED_EDGE('',*,*,#332,.T.);
#860 = ORIENTED_EDGE('',*,*,#861,.F.);
#861 = EDGE_CURVE('',#862,#325,#864,.T.);
#862 = VERTEX_POINT('',#863);
#863 = CARTESIAN_POINT('',(-6.64,-25.46,2.82));
#864 = LINE('',#865,#866);
#865 = CARTESIAN_POINT('',(-6.64,-25.46,2.82));
#866 = VECTOR('',#867,1.);
#867 = DIRECTION('',(0.,0.,-1.));
#868 = ORIENTED_EDGE('',*,*,#869,.F.);
#869 = EDGE_CURVE('',#817,#862,#870,.T.);
#870 = LINE('',#871,#872);
#871 = CARTESIAN_POINT('',(-6.56,-25.46,2.82));
#872 = VECTOR('',#873,1.);
#873 = DIRECTION('',(-1.,0.,0.));
#874 = ORIENTED_EDGE('',*,*,#816,.F.);
#875 = ORIENTED_EDGE('',*,*,#260,.T.);
#876 = PLANE('',#877);
#877 = AXIS2_PLACEMENT_3D('',#878,#879,#880);
#878 = CARTESIAN_POINT('',(5.157055719075E-05,-25.46,2.422250351617));
#879 = DIRECTION('',(0.,1.,6.87E-15));
#880 = DIRECTION('',(0.,-6.87E-15,1.));
#881 = ADVANCED_FACE('',(#882),#971,.F.);
#882 = FACE_BOUND('',#883,.F.);
#883 = EDGE_LOOP('',(#884,#894,#900,#901,#909,#917,#923,#924,#925,#933,
    #941,#949,#957,#965));
#884 = ORIENTED_EDGE('',*,*,#885,.F.);
#885 = EDGE_CURVE('',#886,#888,#890,.T.);
#886 = VERTEX_POINT('',#887);
#887 = CARTESIAN_POINT('',(10.305,20.78,1.E-15));
#888 = VERTEX_POINT('',#889);
#889 = CARTESIAN_POINT('',(10.305,18.08,-2.7));
#890 = LINE('',#891,#892);
#891 = CARTESIAN_POINT('',(10.305,8.695,-12.085));
#892 = VECTOR('',#893,1.);
#893 = DIRECTION('',(0.,-0.707106781187,-0.707106781187));
#894 = ORIENTED_EDGE('',*,*,#895,.T.);
#895 = EDGE_CURVE('',#886,#213,#896,.T.);
#896 = LINE('',#897,#898);
#897 = CARTESIAN_POINT('',(10.305,20.78,2.6));
#898 = VECTOR('',#899,1.);
#899 = DIRECTION('',(0.,0.,1.));
#900 = ORIENTED_EDGE('',*,*,#220,.F.);
#901 = ORIENTED_EDGE('',*,*,#902,.T.);
#902 = EDGE_CURVE('',#221,#903,#905,.T.);
#903 = VERTEX_POINT('',#904);
#904 = CARTESIAN_POINT('',(10.305,5.,0.6));
#905 = LINE('',#906,#907);
#906 = CARTESIAN_POINT('',(10.305,5.,2.6));
#907 = VECTOR('',#908,1.);
#908 = DIRECTION('',(-0.,-0.,-1.));
#909 = ORIENTED_EDGE('',*,*,#910,.F.);
#910 = EDGE_CURVE('',#911,#903,#913,.T.);
#911 = VERTEX_POINT('',#912);
#912 = CARTESIAN_POINT('',(10.305,-5.,0.6));
#913 = LINE('',#914,#915);
#914 = CARTESIAN_POINT('',(10.305,-5.,0.6));
#915 = VECTOR('',#916,1.);
#916 = DIRECTION('',(0.,1.,0.));
#917 = ORIENTED_EDGE('',*,*,#918,.F.);
#918 = EDGE_CURVE('',#245,#911,#919,.T.);
#919 = LINE('',#920,#921);
#920 = CARTESIAN_POINT('',(10.305,-5.,2.6));
#921 = VECTOR('',#922,1.);
#922 = DIRECTION('',(-0.,-0.,-1.));
#923 = ORIENTED_EDGE('',*,*,#252,.F.);
#924 = ORIENTED_EDGE('',*,*,#838,.F.);
#925 = ORIENTED_EDGE('',*,*,#926,.F.);
#926 = EDGE_CURVE('',#927,#839,#929,.T.);
#927 = VERTEX_POINT('',#928);
#928 = CARTESIAN_POINT('',(10.305,-20.66,-2.7));
#929 = LINE('',#930,#931);
#930 = CARTESIAN_POINT('',(10.305,-24.885,1.525));
#931 = VECTOR('',#932,1.);
#932 = DIRECTION('',(0.,-0.707106781187,0.707106781187));
#933 = ORIENTED_EDGE('',*,*,#934,.F.);
#934 = EDGE_CURVE('',#935,#927,#937,.T.);
#935 = VERTEX_POINT('',#936);
#936 = CARTESIAN_POINT('',(10.305,-13.38,-2.7));
#937 = LINE('',#938,#939);
#938 = CARTESIAN_POINT('',(10.305,-14.9,-2.7));
#939 = VECTOR('',#940,1.);
#940 = DIRECTION('',(0.,-1.,0.));
#941 = ORIENTED_EDGE('',*,*,#942,.T.);
#942 = EDGE_CURVE('',#935,#943,#945,.T.);
#943 = VERTEX_POINT('',#944);
#944 = CARTESIAN_POINT('',(10.305,-13.38,-0.1));
#945 = LINE('',#946,#947);
#946 = CARTESIAN_POINT('',(10.305,-13.38,-2.7));
#947 = VECTOR('',#948,1.);
#948 = DIRECTION('',(0.,0.,1.));
#949 = ORIENTED_EDGE('',*,*,#950,.F.);
#950 = EDGE_CURVE('',#951,#943,#953,.T.);
#951 = VERTEX_POINT('',#952);
#952 = CARTESIAN_POINT('',(10.305,13.37,-0.1));
#953 = LINE('',#954,#955);
#954 = CARTESIAN_POINT('',(10.305,13.37,-0.1));
#955 = VECTOR('',#956,1.);
#956 = DIRECTION('',(0.,-1.,0.));
#957 = ORIENTED_EDGE('',*,*,#958,.F.);
#958 = EDGE_CURVE('',#959,#951,#961,.T.);
#959 = VERTEX_POINT('',#960);
#960 = CARTESIAN_POINT('',(10.305,13.37,-2.7));
#961 = LINE('',#962,#963);
#962 = CARTESIAN_POINT('',(10.305,13.37,-2.7));
#963 = VECTOR('',#964,1.);
#964 = DIRECTION('',(0.,0.,1.));
#965 = ORIENTED_EDGE('',*,*,#966,.F.);
#966 = EDGE_CURVE('',#888,#959,#967,.T.);
#967 = LINE('',#968,#969);
#968 = CARTESIAN_POINT('',(10.305,-14.9,-2.7));
#969 = VECTOR('',#970,1.);
#970 = DIRECTION('',(0.,-1.,0.));
#971 = PLANE('',#972);
#972 = AXIS2_PLACEMENT_3D('',#973,#974,#975);
#973 = CARTESIAN_POINT('',(10.305,-27.46,2.6));
#974 = DIRECTION('',(1.,0.,0.));
#975 = DIRECTION('',(0.,1.,0.));
#976 = ADVANCED_FACE('',(#977),#995,.T.);
#977 = FACE_BOUND('',#978,.T.);
#978 = EDGE_LOOP('',(#979,#987,#993,#994));
#979 = ORIENTED_EDGE('',*,*,#980,.T.);
#980 = EDGE_CURVE('',#237,#981,#983,.T.);
#981 = VERTEX_POINT('',#982);
#982 = CARTESIAN_POINT('',(11.305,-5.,0.6));
#983 = LINE('',#984,#985);
#984 = CARTESIAN_POINT('',(11.305,-5.,2.6));
#985 = VECTOR('',#986,1.);
#986 = DIRECTION('',(-0.,-0.,-1.));
#987 = ORIENTED_EDGE('',*,*,#988,.T.);
#988 = EDGE_CURVE('',#981,#911,#989,.T.);
#989 = LINE('',#990,#991);
#990 = CARTESIAN_POINT('',(11.305,-5.,0.6));
#991 = VECTOR('',#992,1.);
#992 = DIRECTION('',(-1.,0.,0.));
#993 = ORIENTED_EDGE('',*,*,#918,.F.);
#994 = ORIENTED_EDGE('',*,*,#244,.F.);
#995 = PLANE('',#996);
#996 = AXIS2_PLACEMENT_3D('',#997,#998,#999);
#997 = CARTESIAN_POINT('',(11.305,-5.,2.6));
#998 = DIRECTION('',(0.,1.,0.));
#999 = DIRECTION('',(-1.,0.,0.));
#1000 = ADVANCED_FACE('',(#1001),#1019,.T.);
#1001 = FACE_BOUND('',#1002,.T.);
#1002 = EDGE_LOOP('',(#1003,#1011,#1017,#1018));
#1003 = ORIENTED_EDGE('',*,*,#1004,.T.);
#1004 = EDGE_CURVE('',#229,#1005,#1007,.T.);
#1005 = VERTEX_POINT('',#1006);
#1006 = CARTESIAN_POINT('',(11.305,5.,0.6));
#1007 = LINE('',#1008,#1009);
#1008 = CARTESIAN_POINT('',(11.305,5.,2.6));
#1009 = VECTOR('',#1010,1.);
#1010 = DIRECTION('',(-0.,-0.,-1.));
#1011 = ORIENTED_EDGE('',*,*,#1012,.T.);
#1012 = EDGE_CURVE('',#1005,#981,#1013,.T.);
#1013 = LINE('',#1014,#1015);
#1014 = CARTESIAN_POINT('',(11.305,5.,0.6));
#1015 = VECTOR('',#1016,1.);
#1016 = DIRECTION('',(0.,-1.,0.));
#1017 = ORIENTED_EDGE('',*,*,#980,.F.);
#1018 = ORIENTED_EDGE('',*,*,#236,.F.);
#1019 = PLANE('',#1020);
#1020 = AXIS2_PLACEMENT_3D('',#1021,#1022,#1023);
#1021 = CARTESIAN_POINT('',(11.305,5.,2.6));
#1022 = DIRECTION('',(-1.,0.,0.));
#1023 = DIRECTION('',(0.,-1.,0.));
#1024 = ADVANCED_FACE('',(#1025),#1036,.F.);
#1025 = FACE_BOUND('',#1026,.F.);
#1026 = EDGE_LOOP('',(#1027,#1028,#1034,#1035));
#1027 = ORIENTED_EDGE('',*,*,#1004,.T.);
#1028 = ORIENTED_EDGE('',*,*,#1029,.T.);
#1029 = EDGE_CURVE('',#1005,#903,#1030,.T.);
#1030 = LINE('',#1031,#1032);
#1031 = CARTESIAN_POINT('',(11.305,5.,0.6));
#1032 = VECTOR('',#1033,1.);
#1033 = DIRECTION('',(-1.,0.,0.));
#1034 = ORIENTED_EDGE('',*,*,#902,.F.);
#1035 = ORIENTED_EDGE('',*,*,#228,.F.);
#1036 = PLANE('',#1037);
#1037 = AXIS2_PLACEMENT_3D('',#1038,#1039,#1040);
#1038 = CARTESIAN_POINT('',(11.305,5.,2.6));
#1039 = DIRECTION('',(0.,1.,0.));
#1040 = DIRECTION('',(-1.,0.,0.));
#1041 = ADVANCED_FACE('',(#1042),#1066,.F.);
#1042 = FACE_BOUND('',#1043,.F.);
#1043 = EDGE_LOOP('',(#1044,#1045,#1053,#1059,#1060,#1061,#1062,#1063,
    #1064,#1065));
#1044 = ORIENTED_EDGE('',*,*,#895,.F.);
#1045 = ORIENTED_EDGE('',*,*,#1046,.F.);
#1046 = EDGE_CURVE('',#1047,#886,#1049,.T.);
#1047 = VERTEX_POINT('',#1048);
#1048 = CARTESIAN_POINT('',(-10.305,20.78,1.E-15));
#1049 = LINE('',#1050,#1051);
#1050 = CARTESIAN_POINT('',(-10.305,20.78,0.));
#1051 = VECTOR('',#1052,1.);
#1052 = DIRECTION('',(1.,0.,0.));
#1053 = ORIENTED_EDGE('',*,*,#1054,.F.);
#1054 = EDGE_CURVE('',#437,#1047,#1055,.T.);
#1055 = LINE('',#1056,#1057);
#1056 = CARTESIAN_POINT('',(-10.305,20.78,2.6));
#1057 = VECTOR('',#1058,1.);
#1058 = DIRECTION('',(0.,0.,-1.));
#1059 = ORIENTED_EDGE('',*,*,#444,.F.);
#1060 = ORIENTED_EDGE('',*,*,#507,.T.);
#1061 = ORIENTED_EDGE('',*,*,#555,.F.);
#1062 = ORIENTED_EDGE('',*,*,#572,.T.);
#1063 = ORIENTED_EDGE('',*,*,#524,.F.);
#1064 = ORIENTED_EDGE('',*,*,#483,.F.);
#1065 = ORIENTED_EDGE('',*,*,#212,.F.);
#1066 = PLANE('',#1067);
#1067 = AXIS2_PLACEMENT_3D('',#1068,#1069,#1070);
#1068 = CARTESIAN_POINT('',(12.305,20.78,2.6));
#1069 = DIRECTION('',(0.,1.,0.));
#1070 = DIRECTION('',(-1.,0.,0.));
#1071 = ADVANCED_FACE('',(#1072),#1083,.T.);
#1072 = FACE_BOUND('',#1073,.T.);
#1073 = EDGE_LOOP('',(#1074,#1075,#1076,#1082));
#1074 = ORIENTED_EDGE('',*,*,#306,.F.);
#1075 = ORIENTED_EDGE('',*,*,#729,.T.);
#1076 = ORIENTED_EDGE('',*,*,#1077,.T.);
#1077 = EDGE_CURVE('',#722,#768,#1078,.T.);
#1078 = LINE('',#1079,#1080);
#1079 = CARTESIAN_POINT('',(-12.13688417774,-27.22811582225,
    2.196049571322));
#1080 = VECTOR('',#1081,1.);
#1081 = DIRECTION('',(0.678598344546,-0.678598344546,-0.281084637715));
#1082 = ORIENTED_EDGE('',*,*,#800,.F.);
#1083 = PLANE('',#1084);
#1084 = AXIS2_PLACEMENT_3D('',#1085,#1086,#1087);
#1085 = CARTESIAN_POINT('',(-12.105,-27.26,2.6));
#1086 = DIRECTION('',(-0.707106781187,-0.707106781187,-3.09E-14));
#1087 = DIRECTION('',(2.184959953866E-14,2.184959953866E-14,-1.));
#1088 = ADVANCED_FACE('',(#1089),#1115,.F.);
#1089 = FACE_BOUND('',#1090,.F.);
#1090 = EDGE_LOOP('',(#1091,#1101,#1107,#1108,#1109));
#1091 = ORIENTED_EDGE('',*,*,#1092,.F.);
#1092 = EDGE_CURVE('',#1093,#1095,#1097,.T.);
#1093 = VERTEX_POINT('',#1094);
#1094 = CARTESIAN_POINT('',(-10.305,16.83,-2.7));
#1095 = VERTEX_POINT('',#1096);
#1096 = CARTESIAN_POINT('',(-10.305,18.08,-2.7));
#1097 = LINE('',#1098,#1099);
#1098 = CARTESIAN_POINT('',(-10.305,10.22,-2.7));
#1099 = VECTOR('',#1100,1.);
#1100 = DIRECTION('',(2.97E-14,1.,0.));
#1101 = ORIENTED_EDGE('',*,*,#1102,.T.);
#1102 = EDGE_CURVE('',#1093,#429,#1103,.T.);
#1103 = LINE('',#1104,#1105);
#1104 = CARTESIAN_POINT('',(-10.305,16.83,-2.7));
#1105 = VECTOR('',#1106,1.);
#1106 = DIRECTION('',(0.,0.,1.));
#1107 = ORIENTED_EDGE('',*,*,#436,.F.);
#1108 = ORIENTED_EDGE('',*,*,#1054,.T.);
#1109 = ORIENTED_EDGE('',*,*,#1110,.T.);
#1110 = EDGE_CURVE('',#1047,#1095,#1111,.T.);
#1111 = LINE('',#1112,#1113);
#1112 = CARTESIAN_POINT('',(-10.305,21.255,0.475));
#1113 = VECTOR('',#1114,1.);
#1114 = DIRECTION('',(-2.1E-14,-0.707106781187,-0.707106781187));
#1115 = PLANE('',#1116);
#1116 = AXIS2_PLACEMENT_3D('',#1117,#1118,#1119);
#1117 = CARTESIAN_POINT('',(-10.305,22.78,2.6));
#1118 = DIRECTION('',(-1.,2.97E-14,0.));
#1119 = DIRECTION('',(-2.97E-14,-1.,0.));
#1120 = ADVANCED_FACE('',(#1121),#1139,.T.);
#1121 = FACE_BOUND('',#1122,.T.);
#1122 = EDGE_LOOP('',(#1123,#1124,#1125,#1133));
#1123 = ORIENTED_EDGE('',*,*,#1102,.T.);
#1124 = ORIENTED_EDGE('',*,*,#428,.T.);
#1125 = ORIENTED_EDGE('',*,*,#1126,.F.);
#1126 = EDGE_CURVE('',#1127,#421,#1129,.T.);
#1127 = VERTEX_POINT('',#1128);
#1128 = CARTESIAN_POINT('',(-7.905,16.83,-2.7));
#1129 = LINE('',#1130,#1131);
#1130 = CARTESIAN_POINT('',(-7.905,16.83,-2.7));
#1131 = VECTOR('',#1132,1.);
#1132 = DIRECTION('',(0.,0.,1.));
#1133 = ORIENTED_EDGE('',*,*,#1134,.F.);
#1134 = EDGE_CURVE('',#1093,#1127,#1135,.T.);
#1135 = LINE('',#1136,#1137);
#1136 = CARTESIAN_POINT('',(-10.305,16.83,-2.7));
#1137 = VECTOR('',#1138,1.);
#1138 = DIRECTION('',(1.,0.,0.));
#1139 = PLANE('',#1140);
#1140 = AXIS2_PLACEMENT_3D('',#1141,#1142,#1143);
#1141 = CARTESIAN_POINT('',(-10.305,16.83,-2.7));
#1142 = DIRECTION('',(0.,1.,0.));
#1143 = DIRECTION('',(1.,0.,0.));
#1144 = ADVANCED_FACE('',(#1145),#1163,.T.);
#1145 = FACE_BOUND('',#1146,.T.);
#1146 = EDGE_LOOP('',(#1147,#1148,#1149,#1157));
#1147 = ORIENTED_EDGE('',*,*,#1126,.T.);
#1148 = ORIENTED_EDGE('',*,*,#420,.T.);
#1149 = ORIENTED_EDGE('',*,*,#1150,.F.);
#1150 = EDGE_CURVE('',#1151,#413,#1153,.T.);
#1151 = VERTEX_POINT('',#1152);
#1152 = CARTESIAN_POINT('',(-7.905,15.53,-2.7));
#1153 = LINE('',#1154,#1155);
#1154 = CARTESIAN_POINT('',(-7.905,15.53,-2.7));
#1155 = VECTOR('',#1156,1.);
#1156 = DIRECTION('',(0.,0.,1.));
#1157 = ORIENTED_EDGE('',*,*,#1158,.F.);
#1158 = EDGE_CURVE('',#1127,#1151,#1159,.T.);
#1159 = LINE('',#1160,#1161);
#1160 = CARTESIAN_POINT('',(-7.905,16.83,-2.7));
#1161 = VECTOR('',#1162,1.);
#1162 = DIRECTION('',(0.,-1.,0.));
#1163 = PLANE('',#1164);
#1164 = AXIS2_PLACEMENT_3D('',#1165,#1166,#1167);
#1165 = CARTESIAN_POINT('',(-7.905,16.83,-2.7));
#1166 = DIRECTION('',(1.,0.,0.));
#1167 = DIRECTION('',(0.,-1.,0.));
#1168 = ADVANCED_FACE('',(#1169),#1187,.F.);
#1169 = FACE_BOUND('',#1170,.F.);
#1170 = EDGE_LOOP('',(#1171,#1179,#1180,#1181));
#1171 = ORIENTED_EDGE('',*,*,#1172,.T.);
#1172 = EDGE_CURVE('',#1173,#405,#1175,.T.);
#1173 = VERTEX_POINT('',#1174);
#1174 = CARTESIAN_POINT('',(-10.305,15.53,-2.7));
#1175 = LINE('',#1176,#1177);
#1176 = CARTESIAN_POINT('',(-10.305,15.53,-2.7));
#1177 = VECTOR('',#1178,1.);
#1178 = DIRECTION('',(0.,0.,1.));
#1179 = ORIENTED_EDGE('',*,*,#412,.T.);
#1180 = ORIENTED_EDGE('',*,*,#1150,.F.);
#1181 = ORIENTED_EDGE('',*,*,#1182,.F.);
#1182 = EDGE_CURVE('',#1173,#1151,#1183,.T.);
#1183 = LINE('',#1184,#1185);
#1184 = CARTESIAN_POINT('',(-10.305,15.53,-2.7));
#1185 = VECTOR('',#1186,1.);
#1186 = DIRECTION('',(1.,1.48E-15,0.));
#1187 = PLANE('',#1188);
#1188 = AXIS2_PLACEMENT_3D('',#1189,#1190,#1191);
#1189 = CARTESIAN_POINT('',(-10.305,15.53,-2.7));
#1190 = DIRECTION('',(-1.48E-15,1.,0.));
#1191 = DIRECTION('',(1.,1.48E-15,0.));
#1192 = ADVANCED_FACE('',(#1193),#1250,.F.);
#1193 = FACE_BOUND('',#1194,.F.);
#1194 = EDGE_LOOP('',(#1195,#1196,#1197,#1205,#1213,#1221,#1227,#1228,
    #1236,#1244));
#1195 = ORIENTED_EDGE('',*,*,#404,.F.);
#1196 = ORIENTED_EDGE('',*,*,#1172,.F.);
#1197 = ORIENTED_EDGE('',*,*,#1198,.F.);
#1198 = EDGE_CURVE('',#1199,#1173,#1201,.T.);
#1199 = VERTEX_POINT('',#1200);
#1200 = CARTESIAN_POINT('',(-10.305,-7.47,-2.7));
#1201 = LINE('',#1202,#1203);
#1202 = CARTESIAN_POINT('',(-10.305,10.22,-2.7));
#1203 = VECTOR('',#1204,1.);
#1204 = DIRECTION('',(2.97E-14,1.,0.));
#1205 = ORIENTED_EDGE('',*,*,#1206,.T.);
#1206 = EDGE_CURVE('',#1199,#1207,#1209,.T.);
#1207 = VERTEX_POINT('',#1208);
#1208 = CARTESIAN_POINT('',(-10.305,-7.47,-0.1));
#1209 = LINE('',#1210,#1211);
#1210 = CARTESIAN_POINT('',(-10.305,-7.47,-2.7));
#1211 = VECTOR('',#1212,1.);
#1212 = DIRECTION('',(0.,0.,1.));
#1213 = ORIENTED_EDGE('',*,*,#1214,.T.);
#1214 = EDGE_CURVE('',#1207,#1215,#1217,.T.);
#1215 = VERTEX_POINT('',#1216);
#1216 = CARTESIAN_POINT('',(-10.305,-11.32,-0.1));
#1217 = LINE('',#1218,#1219);
#1218 = CARTESIAN_POINT('',(-10.305,-7.47,-0.1));
#1219 = VECTOR('',#1220,1.);
#1220 = DIRECTION('',(-2.98E-14,-1.,0.));
#1221 = ORIENTED_EDGE('',*,*,#1222,.T.);
#1222 = EDGE_CURVE('',#1215,#365,#1223,.T.);
#1223 = LINE('',#1224,#1225);
#1224 = CARTESIAN_POINT('',(-10.305,-11.32,-2.7));
#1225 = VECTOR('',#1226,1.);
#1226 = DIRECTION('',(0.,0.,1.));
#1227 = ORIENTED_EDGE('',*,*,#372,.F.);
#1228 = ORIENTED_EDGE('',*,*,#1229,.T.);
#1229 = EDGE_CURVE('',#373,#1230,#1232,.T.);
#1230 = VERTEX_POINT('',#1231);
#1231 = CARTESIAN_POINT('',(-10.305,-5.,0.6));
#1232 = LINE('',#1233,#1234);
#1233 = CARTESIAN_POINT('',(-10.305,-5.,2.6));
#1234 = VECTOR('',#1235,1.);
#1235 = DIRECTION('',(-0.,-0.,-1.));
#1236 = ORIENTED_EDGE('',*,*,#1237,.T.);
#1237 = EDGE_CURVE('',#1230,#1238,#1240,.T.);
#1238 = VERTEX_POINT('',#1239);
#1239 = CARTESIAN_POINT('',(-10.305,5.,0.6));
#1240 = LINE('',#1241,#1242);
#1241 = CARTESIAN_POINT('',(-10.305,-5.,0.6));
#1242 = VECTOR('',#1243,1.);
#1243 = DIRECTION('',(2.984279490192E-14,1.,0.));
#1244 = ORIENTED_EDGE('',*,*,#1245,.F.);
#1245 = EDGE_CURVE('',#397,#1238,#1246,.T.);
#1246 = LINE('',#1247,#1248);
#1247 = CARTESIAN_POINT('',(-10.305,5.,2.6));
#1248 = VECTOR('',#1249,1.);
#1249 = DIRECTION('',(-0.,-0.,-1.));
#1250 = PLANE('',#1251);
#1251 = AXIS2_PLACEMENT_3D('',#1252,#1253,#1254);
#1252 = CARTESIAN_POINT('',(-10.305,22.78,2.6));
#1253 = DIRECTION('',(-1.,2.97E-14,0.));
#1254 = DIRECTION('',(-2.97E-14,-1.,0.));
#1255 = ADVANCED_FACE('',(#1256),#1274,.T.);
#1256 = FACE_BOUND('',#1257,.T.);
#1257 = EDGE_LOOP('',(#1258,#1266,#1272,#1273));
#1258 = ORIENTED_EDGE('',*,*,#1259,.T.);
#1259 = EDGE_CURVE('',#389,#1260,#1262,.T.);
#1260 = VERTEX_POINT('',#1261);
#1261 = CARTESIAN_POINT('',(-11.305,5.,0.6));
#1262 = LINE('',#1263,#1264);
#1263 = CARTESIAN_POINT('',(-11.305,5.,2.6));
#1264 = VECTOR('',#1265,1.);
#1265 = DIRECTION('',(-0.,-0.,-1.));
#1266 = ORIENTED_EDGE('',*,*,#1267,.T.);
#1267 = EDGE_CURVE('',#1260,#1238,#1268,.T.);
#1268 = LINE('',#1269,#1270);
#1269 = CARTESIAN_POINT('',(-11.305,5.,0.6));
#1270 = VECTOR('',#1271,1.);
#1271 = DIRECTION('',(1.,0.,0.));
#1272 = ORIENTED_EDGE('',*,*,#1245,.F.);
#1273 = ORIENTED_EDGE('',*,*,#396,.F.);
#1274 = PLANE('',#1275);
#1275 = AXIS2_PLACEMENT_3D('',#1276,#1277,#1278);
#1276 = CARTESIAN_POINT('',(-11.305,5.,2.6));
#1277 = DIRECTION('',(0.,-1.,0.));
#1278 = DIRECTION('',(1.,0.,0.));
#1279 = ADVANCED_FACE('',(#1280),#1298,.F.);
#1280 = FACE_BOUND('',#1281,.F.);
#1281 = EDGE_LOOP('',(#1282,#1283,#1291,#1297));
#1282 = ORIENTED_EDGE('',*,*,#1259,.T.);
#1283 = ORIENTED_EDGE('',*,*,#1284,.T.);
#1284 = EDGE_CURVE('',#1260,#1285,#1287,.T.);
#1285 = VERTEX_POINT('',#1286);
#1286 = CARTESIAN_POINT('',(-11.305,-5.,0.6));
#1287 = LINE('',#1288,#1289);
#1288 = CARTESIAN_POINT('',(-11.305,5.,0.6));
#1289 = VECTOR('',#1290,1.);
#1290 = DIRECTION('',(0.,-1.,0.));
#1291 = ORIENTED_EDGE('',*,*,#1292,.F.);
#1292 = EDGE_CURVE('',#381,#1285,#1293,.T.);
#1293 = LINE('',#1294,#1295);
#1294 = CARTESIAN_POINT('',(-11.305,-5.,2.6));
#1295 = VECTOR('',#1296,1.);
#1296 = DIRECTION('',(-0.,-0.,-1.));
#1297 = ORIENTED_EDGE('',*,*,#388,.F.);
#1298 = PLANE('',#1299);
#1299 = AXIS2_PLACEMENT_3D('',#1300,#1301,#1302);
#1300 = CARTESIAN_POINT('',(-11.305,5.,2.6));
#1301 = DIRECTION('',(-1.,0.,0.));
#1302 = DIRECTION('',(0.,-1.,0.));
#1303 = ADVANCED_FACE('',(#1304),#1315,.F.);
#1304 = FACE_BOUND('',#1305,.F.);
#1305 = EDGE_LOOP('',(#1306,#1307,#1313,#1314));
#1306 = ORIENTED_EDGE('',*,*,#1292,.T.);
#1307 = ORIENTED_EDGE('',*,*,#1308,.T.);
#1308 = EDGE_CURVE('',#1285,#1230,#1309,.T.);
#1309 = LINE('',#1310,#1311);
#1310 = CARTESIAN_POINT('',(-11.305,-5.,0.6));
#1311 = VECTOR('',#1312,1.);
#1312 = DIRECTION('',(1.,0.,0.));
#1313 = ORIENTED_EDGE('',*,*,#1229,.F.);
#1314 = ORIENTED_EDGE('',*,*,#380,.F.);
#1315 = PLANE('',#1316);
#1316 = AXIS2_PLACEMENT_3D('',#1317,#1318,#1319);
#1317 = CARTESIAN_POINT('',(-11.305,-5.,2.6));
#1318 = DIRECTION('',(0.,-1.,0.));
#1319 = DIRECTION('',(1.,0.,0.));
#1320 = ADVANCED_FACE('',(#1321),#1339,.T.);
#1321 = FACE_BOUND('',#1322,.T.);
#1322 = EDGE_LOOP('',(#1323,#1331,#1332,#1333));
#1323 = ORIENTED_EDGE('',*,*,#1324,.F.);
#1324 = EDGE_CURVE('',#1215,#1325,#1327,.T.);
#1325 = VERTEX_POINT('',#1326);
#1326 = CARTESIAN_POINT('',(-7.905,-11.32,-0.1));
#1327 = LINE('',#1328,#1329);
#1328 = CARTESIAN_POINT('',(-9.293285125445,-11.32,-1.E-01));
#1329 = VECTOR('',#1330,1.);
#1330 = DIRECTION('',(1.,0.,0.));
#1331 = ORIENTED_EDGE('',*,*,#1222,.T.);
#1332 = ORIENTED_EDGE('',*,*,#364,.T.);
#1333 = ORIENTED_EDGE('',*,*,#1334,.F.);
#1334 = EDGE_CURVE('',#1325,#357,#1335,.T.);
#1335 = LINE('',#1336,#1337);
#1336 = CARTESIAN_POINT('',(-7.905,-11.32,-2.7));
#1337 = VECTOR('',#1338,1.);
#1338 = DIRECTION('',(0.,0.,1.));
#1339 = PLANE('',#1340);
#1340 = AXIS2_PLACEMENT_3D('',#1341,#1342,#1343);
#1341 = CARTESIAN_POINT('',(-10.305,-11.32,-2.7));
#1342 = DIRECTION('',(0.,1.,0.));
#1343 = DIRECTION('',(1.,0.,0.));
#1344 = ADVANCED_FACE('',(#1345),#1363,.T.);
#1345 = FACE_BOUND('',#1346,.T.);
#1346 = EDGE_LOOP('',(#1347,#1355,#1356,#1357));
#1347 = ORIENTED_EDGE('',*,*,#1348,.F.);
#1348 = EDGE_CURVE('',#1325,#1349,#1351,.T.);
#1349 = VERTEX_POINT('',#1350);
#1350 = CARTESIAN_POINT('',(-7.905,-12.62,-0.1));
#1351 = LINE('',#1352,#1353);
#1352 = CARTESIAN_POINT('',(-7.905,-11.645,-1.E-01));
#1353 = VECTOR('',#1354,1.);
#1354 = DIRECTION('',(0.,-1.,0.));
#1355 = ORIENTED_EDGE('',*,*,#1334,.T.);
#1356 = ORIENTED_EDGE('',*,*,#356,.T.);
#1357 = ORIENTED_EDGE('',*,*,#1358,.F.);
#1358 = EDGE_CURVE('',#1349,#349,#1359,.T.);
#1359 = LINE('',#1360,#1361);
#1360 = CARTESIAN_POINT('',(-7.905,-12.62,-2.7));
#1361 = VECTOR('',#1362,1.);
#1362 = DIRECTION('',(0.,0.,1.));
#1363 = PLANE('',#1364);
#1364 = AXIS2_PLACEMENT_3D('',#1365,#1366,#1367);
#1365 = CARTESIAN_POINT('',(-7.905,-11.32,-2.7));
#1366 = DIRECTION('',(1.,0.,0.));
#1367 = DIRECTION('',(0.,-1.,0.));
#1368 = ADVANCED_FACE('',(#1369),#1387,.F.);
#1369 = FACE_BOUND('',#1370,.F.);
#1370 = EDGE_LOOP('',(#1371,#1379,#1385,#1386));
#1371 = ORIENTED_EDGE('',*,*,#1372,.F.);
#1372 = EDGE_CURVE('',#1373,#1349,#1375,.T.);
#1373 = VERTEX_POINT('',#1374);
#1374 = CARTESIAN_POINT('',(-10.305,-12.62,-0.1));
#1375 = LINE('',#1376,#1377);
#1376 = CARTESIAN_POINT('',(-9.293285125445,-12.62,-1.E-01));
#1377 = VECTOR('',#1378,1.);
#1378 = DIRECTION('',(1.,0.,0.));
#1379 = ORIENTED_EDGE('',*,*,#1380,.T.);
#1380 = EDGE_CURVE('',#1373,#341,#1381,.T.);
#1381 = LINE('',#1382,#1383);
#1382 = CARTESIAN_POINT('',(-10.305,-12.62,-2.7));
#1383 = VECTOR('',#1384,1.);
#1384 = DIRECTION('',(0.,0.,1.));
#1385 = ORIENTED_EDGE('',*,*,#348,.T.);
#1386 = ORIENTED_EDGE('',*,*,#1358,.F.);
#1387 = PLANE('',#1388);
#1388 = AXIS2_PLACEMENT_3D('',#1389,#1390,#1391);
#1389 = CARTESIAN_POINT('',(-10.305,-12.62,-2.7));
#1390 = DIRECTION('',(0.,1.,0.));
#1391 = DIRECTION('',(1.,0.,0.));
#1392 = ADVANCED_FACE('',(#1393),#1428,.F.);
#1393 = FACE_BOUND('',#1394,.F.);
#1394 = EDGE_LOOP('',(#1395,#1396,#1397,#1398,#1406,#1414,#1422));
#1395 = ORIENTED_EDGE('',*,*,#854,.T.);
#1396 = ORIENTED_EDGE('',*,*,#340,.F.);
#1397 = ORIENTED_EDGE('',*,*,#1380,.F.);
#1398 = ORIENTED_EDGE('',*,*,#1399,.T.);
#1399 = EDGE_CURVE('',#1373,#1400,#1402,.T.);
#1400 = VERTEX_POINT('',#1401);
#1401 = CARTESIAN_POINT('',(-10.305,-16.47,-0.1));
#1402 = LINE('',#1403,#1404);
#1403 = CARTESIAN_POINT('',(-10.305,-7.47,-0.1));
#1404 = VECTOR('',#1405,1.);
#1405 = DIRECTION('',(-2.98E-14,-1.,0.));
#1406 = ORIENTED_EDGE('',*,*,#1407,.F.);
#1407 = EDGE_CURVE('',#1408,#1400,#1410,.T.);
#1408 = VERTEX_POINT('',#1409);
#1409 = CARTESIAN_POINT('',(-10.305,-16.47,-2.7));
#1410 = LINE('',#1411,#1412);
#1411 = CARTESIAN_POINT('',(-10.305,-16.47,-2.7));
#1412 = VECTOR('',#1413,1.);
#1413 = DIRECTION('',(0.,0.,1.));
#1414 = ORIENTED_EDGE('',*,*,#1415,.F.);
#1415 = EDGE_CURVE('',#1416,#1408,#1418,.T.);
#1416 = VERTEX_POINT('',#1417);
#1417 = CARTESIAN_POINT('',(-10.305,-20.66,-2.7));
#1418 = LINE('',#1419,#1420);
#1419 = CARTESIAN_POINT('',(-10.305,10.22,-2.7));
#1420 = VECTOR('',#1421,1.);
#1421 = DIRECTION('',(2.97E-14,1.,0.));
#1422 = ORIENTED_EDGE('',*,*,#1423,.T.);
#1423 = EDGE_CURVE('',#1416,#847,#1424,.T.);
#1424 = LINE('',#1425,#1426);
#1425 = CARTESIAN_POINT('',(-10.305,-12.325,-11.035));
#1426 = VECTOR('',#1427,1.);
#1427 = DIRECTION('',(-2.1E-14,-0.707106781187,0.707106781187));
#1428 = PLANE('',#1429);
#1429 = AXIS2_PLACEMENT_3D('',#1430,#1431,#1432);
#1430 = CARTESIAN_POINT('',(-10.305,22.78,2.6));
#1431 = DIRECTION('',(-1.,2.97E-14,0.));
#1432 = DIRECTION('',(-2.97E-14,-1.,0.));
#1433 = ADVANCED_FACE('',(#1434),#1445,.F.);
#1434 = FACE_BOUND('',#1435,.T.);
#1435 = EDGE_LOOP('',(#1436,#1437,#1438,#1439));
#1436 = ORIENTED_EDGE('',*,*,#861,.T.);
#1437 = ORIENTED_EDGE('',*,*,#324,.T.);
#1438 = ORIENTED_EDGE('',*,*,#793,.T.);
#1439 = ORIENTED_EDGE('',*,*,#1440,.T.);
#1440 = EDGE_CURVE('',#786,#862,#1441,.T.);
#1441 = LINE('',#1442,#1443);
#1442 = CARTESIAN_POINT('',(-6.64,-27.46,2.82));
#1443 = VECTOR('',#1444,1.);
#1444 = DIRECTION('',(0.,1.,0.));
#1445 = PLANE('',#1446);
#1446 = AXIS2_PLACEMENT_3D('',#1447,#1448,#1449);
#1447 = CARTESIAN_POINT('',(-6.64,-26.46,2.71));
#1448 = DIRECTION('',(1.,0.,0.));
#1449 = DIRECTION('',(0.,0.,1.));
#1450 = ADVANCED_FACE('',(#1451),#1462,.F.);
#1451 = FACE_BOUND('',#1452,.F.);
#1452 = EDGE_LOOP('',(#1453,#1459,#1460,#1461));
#1453 = ORIENTED_EDGE('',*,*,#1454,.F.);
#1454 = EDGE_CURVE('',#687,#645,#1455,.T.);
#1455 = LINE('',#1456,#1457);
#1456 = CARTESIAN_POINT('',(13.006355572814,-20.20380358474,
    -3.598644427186));
#1457 = VECTOR('',#1458,1.);
#1458 = DIRECTION('',(-0.678598344546,-0.281084637715,-0.678598344546));
#1459 = ORIENTED_EDGE('',*,*,#694,.T.);
#1460 = ORIENTED_EDGE('',*,*,#596,.T.);
#1461 = ORIENTED_EDGE('',*,*,#652,.F.);
#1462 = PLANE('',#1463);
#1463 = AXIS2_PLACEMENT_3D('',#1464,#1465,#1466);
#1464 = CARTESIAN_POINT('',(12.105,-20.66,-4.5));
#1465 = DIRECTION('',(-0.707106781187,0.,0.707106781187));
#1466 = DIRECTION('',(0.,1.,0.));
#1467 = ADVANCED_FACE('',(#1468),#1479,.F.);
#1468 = FACE_BOUND('',#1469,.F.);
#1469 = EDGE_LOOP('',(#1470,#1471,#1472,#1478));
#1470 = ORIENTED_EDGE('',*,*,#613,.T.);
#1471 = ORIENTED_EDGE('',*,*,#713,.T.);
#1472 = ORIENTED_EDGE('',*,*,#1473,.T.);
#1473 = EDGE_CURVE('',#714,#637,#1474,.T.);
#1474 = LINE('',#1475,#1476);
#1475 = CARTESIAN_POINT('',(-16.70105852043,-18.6734075149,
    9.605852043104E-02));
#1476 = VECTOR('',#1477,1.);
#1477 = DIRECTION('',(0.678598344546,-0.281084637715,-0.678598344546));
#1478 = ORIENTED_EDGE('',*,*,#636,.F.);
#1479 = PLANE('',#1480);
#1480 = AXIS2_PLACEMENT_3D('',#1481,#1482,#1483);
#1481 = CARTESIAN_POINT('',(-12.105,18.08,-4.5));
#1482 = DIRECTION('',(0.707106781187,-2.11E-14,0.707106781187));
#1483 = DIRECTION('',(-2.976995308304E-14,-1.,-6.995308303615E-17));
#1484 = ADVANCED_FACE('',(#1485),#1501,.F.);
#1485 = FACE_BOUND('',#1486,.F.);
#1486 = EDGE_LOOP('',(#1487,#1488,#1494,#1495));
#1487 = ORIENTED_EDGE('',*,*,#767,.T.);
#1488 = ORIENTED_EDGE('',*,*,#1489,.T.);
#1489 = EDGE_CURVE('',#746,#645,#1490,.T.);
#1490 = LINE('',#1491,#1492);
#1491 = CARTESIAN_POINT('',(11.905,-27.46,2.1));
#1492 = VECTOR('',#1493,1.);
#1493 = DIRECTION('',(0.,0.707106781187,-0.707106781187));
#1494 = ORIENTED_EDGE('',*,*,#644,.F.);
#1495 = ORIENTED_EDGE('',*,*,#1496,.F.);
#1496 = EDGE_CURVE('',#768,#637,#1497,.T.);
#1497 = LINE('',#1498,#1499);
#1498 = CARTESIAN_POINT('',(-11.905,-27.46,2.1));
#1499 = VECTOR('',#1500,1.);
#1500 = DIRECTION('',(2.1E-14,0.707106781187,-0.707106781187));
#1501 = PLANE('',#1502);
#1502 = AXIS2_PLACEMENT_3D('',#1503,#1504,#1505);
#1503 = CARTESIAN_POINT('',(-12.305,-24.06,-1.3));
#1504 = DIRECTION('',(0.,0.707106781187,0.707106781187));
#1505 = DIRECTION('',(1.,0.,0.));
#1506 = ADVANCED_FACE('',(#1507),#1526,.F.);
#1507 = FACE_BOUND('',#1508,.T.);
#1508 = EDGE_LOOP('',(#1509,#1517,#1518,#1519));
#1509 = ORIENTED_EDGE('',*,*,#1510,.F.);
#1510 = EDGE_CURVE('',#661,#1511,#1513,.T.);
#1511 = VERTEX_POINT('',#1512);
#1512 = CARTESIAN_POINT('',(4.465,-6.88,-3.4));
#1513 = LINE('',#1514,#1515);
#1514 = CARTESIAN_POINT('',(4.465,-6.88,-4.7));
#1515 = VECTOR('',#1516,1.);
#1516 = DIRECTION('',(0.,0.,1.));
#1517 = ORIENTED_EDGE('',*,*,#660,.T.);
#1518 = ORIENTED_EDGE('',*,*,#1510,.T.);
#1519 = ORIENTED_EDGE('',*,*,#1520,.F.);
#1520 = EDGE_CURVE('',#1511,#1511,#1521,.T.);
#1521 = CIRCLE('',#1522,2.04);
#1522 = AXIS2_PLACEMENT_3D('',#1523,#1524,#1525);
#1523 = CARTESIAN_POINT('',(6.505,-6.88,-3.4));
#1524 = DIRECTION('',(0.,0.,-1.));
#1525 = DIRECTION('',(-1.,0.,0.));
#1526 = CYLINDRICAL_SURFACE('',#1527,2.04);
#1527 = AXIS2_PLACEMENT_3D('',#1528,#1529,#1530);
#1528 = CARTESIAN_POINT('',(6.505,-6.88,-4.7));
#1529 = DIRECTION('',(0.,0.,1.));
#1530 = DIRECTION('',(-1.,0.,0.));
#1531 = ADVANCED_FACE('',(#1532),#1538,.F.);
#1532 = FACE_BOUND('',#1533,.F.);
#1533 = EDGE_LOOP('',(#1534,#1535,#1536,#1537));
#1534 = ORIENTED_EDGE('',*,*,#745,.F.);
#1535 = ORIENTED_EDGE('',*,*,#686,.T.);
#1536 = ORIENTED_EDGE('',*,*,#1454,.T.);
#1537 = ORIENTED_EDGE('',*,*,#1489,.F.);
#1538 = PLANE('',#1539);
#1539 = AXIS2_PLACEMENT_3D('',#1540,#1541,#1542);
#1540 = CARTESIAN_POINT('',(12.105,-27.31857864376,2.241421356237));
#1541 = DIRECTION('',(-0.707106781187,0.5,0.5));
#1542 = DIRECTION('',(-1.110223024625E-16,0.707106781187,-0.707106781187
    ));
#1543 = ADVANCED_FACE('',(#1544),#1550,.F.);
#1544 = FACE_BOUND('',#1545,.T.);
#1545 = EDGE_LOOP('',(#1546,#1547,#1548,#1549));
#1546 = ORIENTED_EDGE('',*,*,#1077,.F.);
#1547 = ORIENTED_EDGE('',*,*,#721,.T.);
#1548 = ORIENTED_EDGE('',*,*,#1473,.T.);
#1549 = ORIENTED_EDGE('',*,*,#1496,.F.);
#1550 = PLANE('',#1551);
#1551 = AXIS2_PLACEMENT_3D('',#1552,#1553,#1554);
#1552 = CARTESIAN_POINT('',(-12.105,-27.31857864376,2.241421356237));
#1553 = DIRECTION('',(0.707106781187,0.5,0.5));
#1554 = DIRECTION('',(-2.103872631665E-14,-0.707106781187,0.707106781187
    ));
#1555 = ADVANCED_FACE('',(#1556),#1562,.T.);
#1556 = FACE_BOUND('',#1557,.T.);
#1557 = EDGE_LOOP('',(#1558,#1559,#1560,#1561));
#1558 = ORIENTED_EDGE('',*,*,#785,.T.);
#1559 = ORIENTED_EDGE('',*,*,#824,.F.);
#1560 = ORIENTED_EDGE('',*,*,#869,.T.);
#1561 = ORIENTED_EDGE('',*,*,#1440,.F.);
#1562 = PLANE('',#1563);
#1563 = AXIS2_PLACEMENT_3D('',#1564,#1565,#1566);
#1564 = CARTESIAN_POINT('',(5.00000000001E-03,-26.46,2.82));
#1565 = DIRECTION('',(0.,0.,1.));
#1566 = DIRECTION('',(1.,0.,0.));
#1567 = ADVANCED_FACE('',(#1568),#1579,.F.);
#1568 = FACE_BOUND('',#1569,.T.);
#1569 = EDGE_LOOP('',(#1570,#1571,#1577,#1578));
#1570 = ORIENTED_EDGE('',*,*,#926,.F.);
#1571 = ORIENTED_EDGE('',*,*,#1572,.T.);
#1572 = EDGE_CURVE('',#927,#1416,#1573,.T.);
#1573 = LINE('',#1574,#1575);
#1574 = CARTESIAN_POINT('',(10.305,-20.66,-2.7));
#1575 = VECTOR('',#1576,1.);
#1576 = DIRECTION('',(-1.,0.,0.));
#1577 = ORIENTED_EDGE('',*,*,#1423,.T.);
#1578 = ORIENTED_EDGE('',*,*,#846,.F.);
#1579 = PLANE('',#1580);
#1580 = AXIS2_PLACEMENT_3D('',#1581,#1582,#1583);
#1581 = CARTESIAN_POINT('',(10.305,-23.06,-0.3));
#1582 = DIRECTION('',(7.E-17,-0.707106781187,-0.707106781187));
#1583 = DIRECTION('',(1.,4.949747468306E-17,4.949747468306E-17));
#1584 = ADVANCED_FACE('',(#1585),#1596,.T.);
#1585 = FACE_BOUND('',#1586,.F.);
#1586 = EDGE_LOOP('',(#1587,#1588,#1589,#1590));
#1587 = ORIENTED_EDGE('',*,*,#1110,.F.);
#1588 = ORIENTED_EDGE('',*,*,#1046,.T.);
#1589 = ORIENTED_EDGE('',*,*,#885,.T.);
#1590 = ORIENTED_EDGE('',*,*,#1591,.F.);
#1591 = EDGE_CURVE('',#1095,#888,#1592,.T.);
#1592 = LINE('',#1593,#1594);
#1593 = CARTESIAN_POINT('',(-10.305,18.08,-2.7));
#1594 = VECTOR('',#1595,1.);
#1595 = DIRECTION('',(1.,0.,0.));
#1596 = PLANE('',#1597);
#1597 = AXIS2_PLACEMENT_3D('',#1598,#1599,#1600);
#1598 = CARTESIAN_POINT('',(-10.305,19.43,-1.35));
#1599 = DIRECTION('',(0.,-0.707106781187,0.707106781187));
#1600 = DIRECTION('',(-1.,-0.,-0.));
#1601 = ADVANCED_FACE('',(#1602),#1677,.T.);
#1602 = FACE_BOUND('',#1603,.T.);
#1603 = EDGE_LOOP('',(#1604,#1605,#1606,#1607,#1608,#1609,#1610,#1611,
    #1619,#1628,#1634,#1635,#1636,#1637,#1645,#1654,#1662,#1671));
#1604 = ORIENTED_EDGE('',*,*,#966,.F.);
#1605 = ORIENTED_EDGE('',*,*,#1591,.F.);
#1606 = ORIENTED_EDGE('',*,*,#1092,.F.);
#1607 = ORIENTED_EDGE('',*,*,#1134,.T.);
#1608 = ORIENTED_EDGE('',*,*,#1158,.T.);
#1609 = ORIENTED_EDGE('',*,*,#1182,.F.);
#1610 = ORIENTED_EDGE('',*,*,#1198,.F.);
#1611 = ORIENTED_EDGE('',*,*,#1612,.T.);
#1612 = EDGE_CURVE('',#1199,#1613,#1615,.T.);
#1613 = VERTEX_POINT('',#1614);
#1614 = CARTESIAN_POINT('',(-9.305000000001,-7.47,-2.7));
#1615 = LINE('',#1616,#1617);
#1616 = CARTESIAN_POINT('',(-10.305,-7.47,-2.7));
#1617 = VECTOR('',#1618,1.);
#1618 = DIRECTION('',(1.,0.,0.));
#1619 = ORIENTED_EDGE('',*,*,#1620,.F.);
#1620 = EDGE_CURVE('',#1621,#1613,#1623,.T.);
#1621 = VERTEX_POINT('',#1622);
#1622 = CARTESIAN_POINT('',(-9.305000000001,-16.47,-2.7));
#1623 = CIRCLE('',#1624,4.5);
#1624 = AXIS2_PLACEMENT_3D('',#1625,#1626,#1627);
#1625 = CARTESIAN_POINT('',(-9.305000000001,-11.97,-2.7));
#1626 = DIRECTION('',(0.,0.,1.));
#1627 = DIRECTION('',(1.,0.,0.));
#1628 = ORIENTED_EDGE('',*,*,#1629,.F.);
#1629 = EDGE_CURVE('',#1408,#1621,#1630,.T.);
#1630 = LINE('',#1631,#1632);
#1631 = CARTESIAN_POINT('',(-10.305,-16.47,-2.7));
#1632 = VECTOR('',#1633,1.);
#1633 = DIRECTION('',(1.,0.,0.));
#1634 = ORIENTED_EDGE('',*,*,#1415,.F.);
#1635 = ORIENTED_EDGE('',*,*,#1572,.F.);
#1636 = ORIENTED_EDGE('',*,*,#934,.F.);
#1637 = ORIENTED_EDGE('',*,*,#1638,.T.);
#1638 = EDGE_CURVE('',#935,#1639,#1641,.T.);
#1639 = VERTEX_POINT('',#1640);
#1640 = CARTESIAN_POINT('',(6.505,-13.38,-2.7));
#1641 = LINE('',#1642,#1643);
#1642 = CARTESIAN_POINT('',(10.305,-13.38,-2.7));
#1643 = VECTOR('',#1644,1.);
#1644 = DIRECTION('',(-1.,0.,0.));
#1645 = ORIENTED_EDGE('',*,*,#1646,.F.);
#1646 = EDGE_CURVE('',#1647,#1639,#1649,.T.);
#1647 = VERTEX_POINT('',#1648);
#1648 = CARTESIAN_POINT('',(4.005000000041,-10.87998566921,-2.7));
#1649 = CIRCLE('',#1650,2.5);
#1650 = AXIS2_PLACEMENT_3D('',#1651,#1652,#1653);
#1651 = CARTESIAN_POINT('',(6.505,-10.88,-2.7));
#1652 = DIRECTION('',(0.,0.,1.));
#1653 = DIRECTION('',(1.,0.,0.));
#1654 = ORIENTED_EDGE('',*,*,#1655,.F.);
#1655 = EDGE_CURVE('',#1656,#1647,#1658,.T.);
#1656 = VERTEX_POINT('',#1657);
#1657 = CARTESIAN_POINT('',(4.005000000021,10.87,-2.7));
#1658 = LINE('',#1659,#1660);
#1659 = CARTESIAN_POINT('',(4.005000000041,10.87,-2.7));
#1660 = VECTOR('',#1661,1.);
#1661 = DIRECTION('',(0.,-1.,0.));
#1662 = ORIENTED_EDGE('',*,*,#1663,.F.);
#1663 = EDGE_CURVE('',#1664,#1656,#1666,.T.);
#1664 = VERTEX_POINT('',#1665);
#1665 = CARTESIAN_POINT('',(6.505,13.37,-2.7));
#1666 = CIRCLE('',#1667,2.5);
#1667 = AXIS2_PLACEMENT_3D('',#1668,#1669,#1670);
#1668 = CARTESIAN_POINT('',(6.505,10.87,-2.7));
#1669 = DIRECTION('',(0.,0.,1.));
#1670 = DIRECTION('',(1.,0.,0.));
#1671 = ORIENTED_EDGE('',*,*,#1672,.T.);
#1672 = EDGE_CURVE('',#1664,#959,#1673,.T.);
#1673 = LINE('',#1674,#1675);
#1674 = CARTESIAN_POINT('',(6.505,13.37,-2.7));
#1675 = VECTOR('',#1676,1.);
#1676 = DIRECTION('',(1.,0.,0.));
#1677 = PLANE('',#1678);
#1678 = AXIS2_PLACEMENT_3D('',#1679,#1680,#1681);
#1679 = CARTESIAN_POINT('',(-3.7364E-13,-2.34,-2.7));
#1680 = DIRECTION('',(0.,0.,1.));
#1681 = DIRECTION('',(1.,0.,0.));
#1682 = ADVANCED_FACE('',(#1683),#1701,.T.);
#1683 = FACE_BOUND('',#1684,.T.);
#1684 = EDGE_LOOP('',(#1685,#1693,#1699,#1700));
#1685 = ORIENTED_EDGE('',*,*,#1686,.T.);
#1686 = EDGE_CURVE('',#1664,#1687,#1689,.T.);
#1687 = VERTEX_POINT('',#1688);
#1688 = CARTESIAN_POINT('',(6.505,13.37,-0.1));
#1689 = LINE('',#1690,#1691);
#1690 = CARTESIAN_POINT('',(6.505,13.37,-2.7));
#1691 = VECTOR('',#1692,1.);
#1692 = DIRECTION('',(0.,0.,1.));
#1693 = ORIENTED_EDGE('',*,*,#1694,.T.);
#1694 = EDGE_CURVE('',#1687,#951,#1695,.T.);
#1695 = LINE('',#1696,#1697);
#1696 = CARTESIAN_POINT('',(6.505,13.37,-0.1));
#1697 = VECTOR('',#1698,1.);
#1698 = DIRECTION('',(1.,0.,0.));
#1699 = ORIENTED_EDGE('',*,*,#958,.F.);
#1700 = ORIENTED_EDGE('',*,*,#1672,.F.);
#1701 = PLANE('',#1702);
#1702 = AXIS2_PLACEMENT_3D('',#1703,#1704,#1705);
#1703 = CARTESIAN_POINT('',(6.505,13.37,-2.7));
#1704 = DIRECTION('',(0.,1.,0.));
#1705 = DIRECTION('',(1.,0.,0.));
#1706 = ADVANCED_FACE('',(#1707,#1743,#1754,#1765),#1776,.T.);
#1707 = FACE_BOUND('',#1708,.T.);
#1708 = EDGE_LOOP('',(#1709,#1710,#1719,#1727,#1736,#1742));
#1709 = ORIENTED_EDGE('',*,*,#1694,.F.);
#1710 = ORIENTED_EDGE('',*,*,#1711,.T.);
#1711 = EDGE_CURVE('',#1687,#1712,#1714,.T.);
#1712 = VERTEX_POINT('',#1713);
#1713 = CARTESIAN_POINT('',(4.005000000021,10.87,-0.1));
#1714 = CIRCLE('',#1715,2.5);
#1715 = AXIS2_PLACEMENT_3D('',#1716,#1717,#1718);
#1716 = CARTESIAN_POINT('',(6.505,10.87,-0.1));
#1717 = DIRECTION('',(0.,0.,1.));
#1718 = DIRECTION('',(1.,0.,0.));
#1719 = ORIENTED_EDGE('',*,*,#1720,.T.);
#1720 = EDGE_CURVE('',#1712,#1721,#1723,.T.);
#1721 = VERTEX_POINT('',#1722);
#1722 = CARTESIAN_POINT('',(4.005000000041,-10.87998566921,-0.1));
#1723 = LINE('',#1724,#1725);
#1724 = CARTESIAN_POINT('',(4.005000000041,10.87,-0.1));
#1725 = VECTOR('',#1726,1.);
#1726 = DIRECTION('',(0.,-1.,0.));
#1727 = ORIENTED_EDGE('',*,*,#1728,.T.);
#1728 = EDGE_CURVE('',#1721,#1729,#1731,.T.);
#1729 = VERTEX_POINT('',#1730);
#1730 = CARTESIAN_POINT('',(6.505,-13.38,-0.1));
#1731 = CIRCLE('',#1732,2.5);
#1732 = AXIS2_PLACEMENT_3D('',#1733,#1734,#1735);
#1733 = CARTESIAN_POINT('',(6.505,-10.88,-0.1));
#1734 = DIRECTION('',(0.,0.,1.));
#1735 = DIRECTION('',(1.,0.,0.));
#1736 = ORIENTED_EDGE('',*,*,#1737,.F.);
#1737 = EDGE_CURVE('',#943,#1729,#1738,.T.);
#1738 = LINE('',#1739,#1740);
#1739 = CARTESIAN_POINT('',(10.305,-13.38,-0.1));
#1740 = VECTOR('',#1741,1.);
#1741 = DIRECTION('',(-1.,0.,0.));
#1742 = ORIENTED_EDGE('',*,*,#950,.F.);
#1743 = FACE_BOUND('',#1744,.T.);
#1744 = EDGE_LOOP('',(#1745));
#1745 = ORIENTED_EDGE('',*,*,#1746,.F.);
#1746 = EDGE_CURVE('',#1747,#1747,#1749,.T.);
#1747 = VERTEX_POINT('',#1748);
#1748 = CARTESIAN_POINT('',(7.755,-10.88,-0.1));
#1749 = CIRCLE('',#1750,1.25);
#1750 = AXIS2_PLACEMENT_3D('',#1751,#1752,#1753);
#1751 = CARTESIAN_POINT('',(6.505,-10.88,-0.1));
#1752 = DIRECTION('',(0.,0.,1.));
#1753 = DIRECTION('',(1.,0.,0.));
#1754 = FACE_BOUND('',#1755,.T.);
#1755 = EDGE_LOOP('',(#1756));
#1756 = ORIENTED_EDGE('',*,*,#1757,.F.);
#1757 = EDGE_CURVE('',#1758,#1758,#1760,.T.);
#1758 = VERTEX_POINT('',#1759);
#1759 = CARTESIAN_POINT('',(5.63,-6.88,-0.1));
#1760 = CIRCLE('',#1761,0.875);
#1761 = AXIS2_PLACEMENT_3D('',#1762,#1763,#1764);
#1762 = CARTESIAN_POINT('',(6.505,-6.88,-1.E-01));
#1763 = DIRECTION('',(0.,0.,1.));
#1764 = DIRECTION('',(-1.,0.,0.));
#1765 = FACE_BOUND('',#1766,.T.);
#1766 = EDGE_LOOP('',(#1767));
#1767 = ORIENTED_EDGE('',*,*,#1768,.F.);
#1768 = EDGE_CURVE('',#1769,#1769,#1771,.T.);
#1769 = VERTEX_POINT('',#1770);
#1770 = CARTESIAN_POINT('',(7.755,10.87,-0.1));
#1771 = CIRCLE('',#1772,1.25);
#1772 = AXIS2_PLACEMENT_3D('',#1773,#1774,#1775);
#1773 = CARTESIAN_POINT('',(6.505,10.87,-0.1));
#1774 = DIRECTION('',(0.,0.,1.));
#1775 = DIRECTION('',(1.,0.,0.));
#1776 = PLANE('',#1777);
#1777 = AXIS2_PLACEMENT_3D('',#1778,#1779,#1780);
#1778 = CARTESIAN_POINT('',(7.282284326292,-4.999892650429E-03,-1.E-01)
  );
#1779 = DIRECTION('',(0.,0.,1.));
#1780 = DIRECTION('',(1.,0.,0.));
#1781 = ADVANCED_FACE('',(#1782),#1793,.T.);
#1782 = FACE_BOUND('',#1783,.T.);
#1783 = EDGE_LOOP('',(#1784,#1785,#1786,#1792));
#1784 = ORIENTED_EDGE('',*,*,#942,.T.);
#1785 = ORIENTED_EDGE('',*,*,#1737,.T.);
#1786 = ORIENTED_EDGE('',*,*,#1787,.F.);
#1787 = EDGE_CURVE('',#1639,#1729,#1788,.T.);
#1788 = LINE('',#1789,#1790);
#1789 = CARTESIAN_POINT('',(6.505,-13.38,-2.7));
#1790 = VECTOR('',#1791,1.);
#1791 = DIRECTION('',(0.,0.,1.));
#1792 = ORIENTED_EDGE('',*,*,#1638,.F.);
#1793 = PLANE('',#1794);
#1794 = AXIS2_PLACEMENT_3D('',#1795,#1796,#1797);
#1795 = CARTESIAN_POINT('',(10.305,-13.38,-2.7));
#1796 = DIRECTION('',(0.,-1.,0.));
#1797 = DIRECTION('',(-1.,0.,0.));
#1798 = ADVANCED_FACE('',(#1799),#1805,.T.);
#1799 = FACE_BOUND('',#1800,.F.);
#1800 = EDGE_LOOP('',(#1801,#1802,#1803,#1804));
#1801 = ORIENTED_EDGE('',*,*,#1012,.T.);
#1802 = ORIENTED_EDGE('',*,*,#988,.T.);
#1803 = ORIENTED_EDGE('',*,*,#910,.T.);
#1804 = ORIENTED_EDGE('',*,*,#1029,.F.);
#1805 = PLANE('',#1806);
#1806 = AXIS2_PLACEMENT_3D('',#1807,#1808,#1809);
#1807 = CARTESIAN_POINT('',(1.645552381226E-13,3.395263868036E-14,0.6));
#1808 = DIRECTION('',(0.,0.,1.));
#1809 = DIRECTION('',(1.,0.,0.));
#1810 = ADVANCED_FACE('',(#1811),#1817,.T.);
#1811 = FACE_BOUND('',#1812,.T.);
#1812 = EDGE_LOOP('',(#1813,#1814,#1815,#1816));
#1813 = ORIENTED_EDGE('',*,*,#1284,.T.);
#1814 = ORIENTED_EDGE('',*,*,#1308,.T.);
#1815 = ORIENTED_EDGE('',*,*,#1237,.T.);
#1816 = ORIENTED_EDGE('',*,*,#1267,.F.);
#1817 = PLANE('',#1818);
#1818 = AXIS2_PLACEMENT_3D('',#1819,#1820,#1821);
#1819 = CARTESIAN_POINT('',(1.645552381226E-13,3.395263868036E-14,0.6));
#1820 = DIRECTION('',(0.,0.,1.));
#1821 = DIRECTION('',(1.,0.,0.));
#1822 = ADVANCED_FACE('',(#1823),#1853,.T.);
#1823 = FACE_BOUND('',#1824,.T.);
#1824 = EDGE_LOOP('',(#1825,#1833,#1842,#1848,#1849,#1850,#1851,#1852));
#1825 = ORIENTED_EDGE('',*,*,#1826,.T.);
#1826 = EDGE_CURVE('',#1400,#1827,#1829,.T.);
#1827 = VERTEX_POINT('',#1828);
#1828 = CARTESIAN_POINT('',(-9.305000000001,-16.47,-0.1));
#1829 = LINE('',#1830,#1831);
#1830 = CARTESIAN_POINT('',(-10.305,-16.47,-0.1));
#1831 = VECTOR('',#1832,1.);
#1832 = DIRECTION('',(1.,0.,0.));
#1833 = ORIENTED_EDGE('',*,*,#1834,.T.);
#1834 = EDGE_CURVE('',#1827,#1835,#1837,.T.);
#1835 = VERTEX_POINT('',#1836);
#1836 = CARTESIAN_POINT('',(-9.305000000001,-7.47,-0.1));
#1837 = CIRCLE('',#1838,4.5);
#1838 = AXIS2_PLACEMENT_3D('',#1839,#1840,#1841);
#1839 = CARTESIAN_POINT('',(-9.305000000001,-11.97,-0.1));
#1840 = DIRECTION('',(0.,0.,1.));
#1841 = DIRECTION('',(1.,0.,0.));
#1842 = ORIENTED_EDGE('',*,*,#1843,.F.);
#1843 = EDGE_CURVE('',#1207,#1835,#1844,.T.);
#1844 = LINE('',#1845,#1846);
#1845 = CARTESIAN_POINT('',(-10.305,-7.47,-0.1));
#1846 = VECTOR('',#1847,1.);
#1847 = DIRECTION('',(1.,0.,0.));
#1848 = ORIENTED_EDGE('',*,*,#1214,.T.);
#1849 = ORIENTED_EDGE('',*,*,#1324,.T.);
#1850 = ORIENTED_EDGE('',*,*,#1348,.T.);
#1851 = ORIENTED_EDGE('',*,*,#1372,.F.);
#1852 = ORIENTED_EDGE('',*,*,#1399,.T.);
#1853 = PLANE('',#1854);
#1854 = AXIS2_PLACEMENT_3D('',#1855,#1856,#1857);
#1855 = CARTESIAN_POINT('',(-8.281570250888,-11.97,-1.E-01));
#1856 = DIRECTION('',(0.,0.,1.));
#1857 = DIRECTION('',(1.,0.,0.));
#1858 = ADVANCED_FACE('',(#1859),#1870,.T.);
#1859 = FACE_BOUND('',#1860,.T.);
#1860 = EDGE_LOOP('',(#1861,#1862,#1863,#1869));
#1861 = ORIENTED_EDGE('',*,*,#1206,.T.);
#1862 = ORIENTED_EDGE('',*,*,#1843,.T.);
#1863 = ORIENTED_EDGE('',*,*,#1864,.F.);
#1864 = EDGE_CURVE('',#1613,#1835,#1865,.T.);
#1865 = LINE('',#1866,#1867);
#1866 = CARTESIAN_POINT('',(-9.305000000001,-7.47,-2.7));
#1867 = VECTOR('',#1868,1.);
#1868 = DIRECTION('',(0.,0.,1.));
#1869 = ORIENTED_EDGE('',*,*,#1612,.F.);
#1870 = PLANE('',#1871);
#1871 = AXIS2_PLACEMENT_3D('',#1872,#1873,#1874);
#1872 = CARTESIAN_POINT('',(-10.305,-7.47,-2.7));
#1873 = DIRECTION('',(0.,1.,0.));
#1874 = DIRECTION('',(1.,0.,0.));
#1875 = ADVANCED_FACE('',(#1876),#1887,.F.);
#1876 = FACE_BOUND('',#1877,.F.);
#1877 = EDGE_LOOP('',(#1878,#1879,#1880,#1886));
#1878 = ORIENTED_EDGE('',*,*,#1407,.T.);
#1879 = ORIENTED_EDGE('',*,*,#1826,.T.);
#1880 = ORIENTED_EDGE('',*,*,#1881,.F.);
#1881 = EDGE_CURVE('',#1621,#1827,#1882,.T.);
#1882 = LINE('',#1883,#1884);
#1883 = CARTESIAN_POINT('',(-9.305000000001,-16.47,-2.7));
#1884 = VECTOR('',#1885,1.);
#1885 = DIRECTION('',(0.,0.,1.));
#1886 = ORIENTED_EDGE('',*,*,#1629,.F.);
#1887 = PLANE('',#1888);
#1888 = AXIS2_PLACEMENT_3D('',#1889,#1890,#1891);
#1889 = CARTESIAN_POINT('',(-10.305,-16.47,-2.7));
#1890 = DIRECTION('',(0.,1.,0.));
#1891 = DIRECTION('',(1.,0.,0.));
#1892 = ADVANCED_FACE('',(#1893,#1896),#1907,.T.);
#1893 = FACE_BOUND('',#1894,.T.);
#1894 = EDGE_LOOP('',(#1895));
#1895 = ORIENTED_EDGE('',*,*,#1520,.T.);
#1896 = FACE_BOUND('',#1897,.T.);
#1897 = EDGE_LOOP('',(#1898));
#1898 = ORIENTED_EDGE('',*,*,#1899,.F.);
#1899 = EDGE_CURVE('',#1900,#1900,#1902,.T.);
#1900 = VERTEX_POINT('',#1901);
#1901 = CARTESIAN_POINT('',(5.63,-6.88,-3.4));
#1902 = CIRCLE('',#1903,0.875);
#1903 = AXIS2_PLACEMENT_3D('',#1904,#1905,#1906);
#1904 = CARTESIAN_POINT('',(6.505,-6.88,-3.4));
#1905 = DIRECTION('',(0.,0.,-1.));
#1906 = DIRECTION('',(-1.,0.,0.));
#1907 = PLANE('',#1908);
#1908 = AXIS2_PLACEMENT_3D('',#1909,#1910,#1911);
#1909 = CARTESIAN_POINT('',(6.505,-6.88,-3.4));
#1910 = DIRECTION('',(0.,0.,-1.));
#1911 = DIRECTION('',(-1.,0.,0.));
#1912 = ADVANCED_FACE('',(#1913),#1924,.T.);
#1913 = FACE_BOUND('',#1914,.F.);
#1914 = EDGE_LOOP('',(#1915,#1916,#1917,#1923));
#1915 = ORIENTED_EDGE('',*,*,#1686,.T.);
#1916 = ORIENTED_EDGE('',*,*,#1711,.T.);
#1917 = ORIENTED_EDGE('',*,*,#1918,.F.);
#1918 = EDGE_CURVE('',#1656,#1712,#1919,.T.);
#1919 = LINE('',#1920,#1921);
#1920 = CARTESIAN_POINT('',(4.005000000021,10.87,-2.7));
#1921 = VECTOR('',#1922,1.);
#1922 = DIRECTION('',(0.,0.,1.));
#1923 = ORIENTED_EDGE('',*,*,#1663,.F.);
#1924 = CYLINDRICAL_SURFACE('',#1925,2.5);
#1925 = AXIS2_PLACEMENT_3D('',#1926,#1927,#1928);
#1926 = CARTESIAN_POINT('',(6.505,10.87,-2.7));
#1927 = DIRECTION('',(-0.,-0.,-1.));
#1928 = DIRECTION('',(1.,0.,0.));
#1929 = ADVANCED_FACE('',(#1930),#1941,.F.);
#1930 = FACE_BOUND('',#1931,.F.);
#1931 = EDGE_LOOP('',(#1932,#1933,#1934,#1940));
#1932 = ORIENTED_EDGE('',*,*,#1918,.T.);
#1933 = ORIENTED_EDGE('',*,*,#1720,.T.);
#1934 = ORIENTED_EDGE('',*,*,#1935,.F.);
#1935 = EDGE_CURVE('',#1647,#1721,#1936,.T.);
#1936 = LINE('',#1937,#1938);
#1937 = CARTESIAN_POINT('',(4.005000000041,-10.87998566921,-2.7));
#1938 = VECTOR('',#1939,1.);
#1939 = DIRECTION('',(0.,0.,1.));
#1940 = ORIENTED_EDGE('',*,*,#1655,.F.);
#1941 = PLANE('',#1942);
#1942 = AXIS2_PLACEMENT_3D('',#1943,#1944,#1945);
#1943 = CARTESIAN_POINT('',(4.005000000041,10.87,-2.7));
#1944 = DIRECTION('',(1.,0.,0.));
#1945 = DIRECTION('',(0.,-1.,0.));
#1946 = ADVANCED_FACE('',(#1947),#1953,.T.);
#1947 = FACE_BOUND('',#1948,.F.);
#1948 = EDGE_LOOP('',(#1949,#1950,#1951,#1952));
#1949 = ORIENTED_EDGE('',*,*,#1935,.T.);
#1950 = ORIENTED_EDGE('',*,*,#1728,.T.);
#1951 = ORIENTED_EDGE('',*,*,#1787,.F.);
#1952 = ORIENTED_EDGE('',*,*,#1646,.F.);
#1953 = CYLINDRICAL_SURFACE('',#1954,2.5);
#1954 = AXIS2_PLACEMENT_3D('',#1955,#1956,#1957);
#1955 = CARTESIAN_POINT('',(6.505,-10.88,-2.7));
#1956 = DIRECTION('',(-0.,-0.,-1.));
#1957 = DIRECTION('',(1.,0.,0.));
#1958 = ADVANCED_FACE('',(#1959),#1965,.T.);
#1959 = FACE_BOUND('',#1960,.F.);
#1960 = EDGE_LOOP('',(#1961,#1962,#1963,#1964));
#1961 = ORIENTED_EDGE('',*,*,#1881,.T.);
#1962 = ORIENTED_EDGE('',*,*,#1834,.T.);
#1963 = ORIENTED_EDGE('',*,*,#1864,.F.);
#1964 = ORIENTED_EDGE('',*,*,#1620,.F.);
#1965 = CYLINDRICAL_SURFACE('',#1966,4.5);
#1966 = AXIS2_PLACEMENT_3D('',#1967,#1968,#1969);
#1967 = CARTESIAN_POINT('',(-9.305000000001,-11.97,-2.7));
#1968 = DIRECTION('',(-0.,-0.,-1.));
#1969 = DIRECTION('',(1.,0.,0.));
#1970 = ADVANCED_FACE('',(#1971),#1990,.F.);
#1971 = FACE_BOUND('',#1972,.T.);
#1972 = EDGE_LOOP('',(#1973,#1981,#1982,#1983));
#1973 = ORIENTED_EDGE('',*,*,#1974,.F.);
#1974 = EDGE_CURVE('',#1747,#1975,#1977,.T.);
#1975 = VERTEX_POINT('',#1976);
#1976 = CARTESIAN_POINT('',(7.38,-10.88,-0.475));
#1977 = LINE('',#1978,#1979);
#1978 = CARTESIAN_POINT('',(7.755,-10.88,-0.1));
#1979 = VECTOR('',#1980,1.);
#1980 = DIRECTION('',(-0.707106781187,0.,-0.707106781187));
#1981 = ORIENTED_EDGE('',*,*,#1746,.T.);
#1982 = ORIENTED_EDGE('',*,*,#1974,.T.);
#1983 = ORIENTED_EDGE('',*,*,#1984,.F.);
#1984 = EDGE_CURVE('',#1975,#1975,#1985,.T.);
#1985 = CIRCLE('',#1986,0.875);
#1986 = AXIS2_PLACEMENT_3D('',#1987,#1988,#1989);
#1987 = CARTESIAN_POINT('',(6.505,-10.88,-0.475));
#1988 = DIRECTION('',(0.,0.,1.));
#1989 = DIRECTION('',(1.,0.,0.));
#1990 = CONICAL_SURFACE('',#1991,1.25,0.785398163397);
#1991 = AXIS2_PLACEMENT_3D('',#1992,#1993,#1994);
#1992 = CARTESIAN_POINT('',(6.505,-10.88,-0.1));
#1993 = DIRECTION('',(0.,0.,1.));
#1994 = DIRECTION('',(1.,0.,0.));
#1995 = ADVANCED_FACE('',(#1996),#2007,.F.);
#1996 = FACE_BOUND('',#1997,.T.);
#1997 = EDGE_LOOP('',(#1998,#2004,#2005,#2006));
#1998 = ORIENTED_EDGE('',*,*,#1999,.F.);
#1999 = EDGE_CURVE('',#1900,#1758,#2000,.T.);
#2000 = LINE('',#2001,#2002);
#2001 = CARTESIAN_POINT('',(5.63,-6.88,-3.4));
#2002 = VECTOR('',#2003,1.);
#2003 = DIRECTION('',(6.E-17,0.,1.));
#2004 = ORIENTED_EDGE('',*,*,#1899,.T.);
#2005 = ORIENTED_EDGE('',*,*,#1999,.T.);
#2006 = ORIENTED_EDGE('',*,*,#1757,.T.);
#2007 = CYLINDRICAL_SURFACE('',#2008,0.875);
#2008 = AXIS2_PLACEMENT_3D('',#2009,#2010,#2011);
#2009 = CARTESIAN_POINT('',(6.505,-6.88,-3.4));
#2010 = DIRECTION('',(0.,0.,1.));
#2011 = DIRECTION('',(-1.,0.,0.));
#2012 = ADVANCED_FACE('',(#2013),#2032,.F.);
#2013 = FACE_BOUND('',#2014,.T.);
#2014 = EDGE_LOOP('',(#2015,#2023,#2024,#2025));
#2015 = ORIENTED_EDGE('',*,*,#2016,.F.);
#2016 = EDGE_CURVE('',#1769,#2017,#2019,.T.);
#2017 = VERTEX_POINT('',#2018);
#2018 = CARTESIAN_POINT('',(7.38,10.87,-0.475));
#2019 = LINE('',#2020,#2021);
#2020 = CARTESIAN_POINT('',(7.755,10.87,-0.1));
#2021 = VECTOR('',#2022,1.);
#2022 = DIRECTION('',(-0.707106781187,0.,-0.707106781187));
#2023 = ORIENTED_EDGE('',*,*,#1768,.T.);
#2024 = ORIENTED_EDGE('',*,*,#2016,.T.);
#2025 = ORIENTED_EDGE('',*,*,#2026,.F.);
#2026 = EDGE_CURVE('',#2017,#2017,#2027,.T.);
#2027 = CIRCLE('',#2028,0.875);
#2028 = AXIS2_PLACEMENT_3D('',#2029,#2030,#2031);
#2029 = CARTESIAN_POINT('',(6.505,10.87,-0.475));
#2030 = DIRECTION('',(0.,0.,1.));
#2031 = DIRECTION('',(1.,0.,0.));
#2032 = CONICAL_SURFACE('',#2033,1.25,0.785398163397);
#2033 = AXIS2_PLACEMENT_3D('',#2034,#2035,#2036);
#2034 = CARTESIAN_POINT('',(6.505,10.87,-0.1));
#2035 = DIRECTION('',(0.,0.,1.));
#2036 = DIRECTION('',(1.,0.,0.));
#2037 = ADVANCED_FACE('',(#2038),#2057,.F.);
#2038 = FACE_BOUND('',#2039,.T.);
#2039 = EDGE_LOOP('',(#2040,#2041,#2049,#2056));
#2040 = ORIENTED_EDGE('',*,*,#1984,.T.);
#2041 = ORIENTED_EDGE('',*,*,#2042,.T.);
#2042 = EDGE_CURVE('',#1975,#2043,#2045,.T.);
#2043 = VERTEX_POINT('',#2044);
#2044 = CARTESIAN_POINT('',(7.38,-10.88,-3.1));
#2045 = LINE('',#2046,#2047);
#2046 = CARTESIAN_POINT('',(7.38,-10.88,-0.475));
#2047 = VECTOR('',#2048,1.);
#2048 = DIRECTION('',(-8.E-17,0.,-1.));
#2049 = ORIENTED_EDGE('',*,*,#2050,.F.);
#2050 = EDGE_CURVE('',#2043,#2043,#2051,.T.);
#2051 = CIRCLE('',#2052,0.875);
#2052 = AXIS2_PLACEMENT_3D('',#2053,#2054,#2055);
#2053 = CARTESIAN_POINT('',(6.505,-10.88,-3.1));
#2054 = DIRECTION('',(0.,0.,1.));
#2055 = DIRECTION('',(1.,0.,0.));
#2056 = ORIENTED_EDGE('',*,*,#2042,.F.);
#2057 = CYLINDRICAL_SURFACE('',#2058,0.875);
#2058 = AXIS2_PLACEMENT_3D('',#2059,#2060,#2061);
#2059 = CARTESIAN_POINT('',(6.505,-10.88,-0.475));
#2060 = DIRECTION('',(-0.,-0.,-1.));
#2061 = DIRECTION('',(1.,0.,0.));
#2062 = ADVANCED_FACE('',(#2063),#2082,.F.);
#2063 = FACE_BOUND('',#2064,.T.);
#2064 = EDGE_LOOP('',(#2065,#2066,#2074,#2081));
#2065 = ORIENTED_EDGE('',*,*,#2026,.T.);
#2066 = ORIENTED_EDGE('',*,*,#2067,.T.);
#2067 = EDGE_CURVE('',#2017,#2068,#2070,.T.);
#2068 = VERTEX_POINT('',#2069);
#2069 = CARTESIAN_POINT('',(7.38,10.87,-3.1));
#2070 = LINE('',#2071,#2072);
#2071 = CARTESIAN_POINT('',(7.38,10.87,-0.475));
#2072 = VECTOR('',#2073,1.);
#2073 = DIRECTION('',(-8.E-17,0.,-1.));
#2074 = ORIENTED_EDGE('',*,*,#2075,.F.);
#2075 = EDGE_CURVE('',#2068,#2068,#2076,.T.);
#2076 = CIRCLE('',#2077,0.875);
#2077 = AXIS2_PLACEMENT_3D('',#2078,#2079,#2080);
#2078 = CARTESIAN_POINT('',(6.505,10.87,-3.1));
#2079 = DIRECTION('',(0.,0.,1.));
#2080 = DIRECTION('',(1.,0.,0.));
#2081 = ORIENTED_EDGE('',*,*,#2067,.F.);
#2082 = CYLINDRICAL_SURFACE('',#2083,0.875);
#2083 = AXIS2_PLACEMENT_3D('',#2084,#2085,#2086);
#2084 = CARTESIAN_POINT('',(6.505,10.87,-0.475));
#2085 = DIRECTION('',(-0.,-0.,-1.));
#2086 = DIRECTION('',(1.,0.,0.));
#2087 = ADVANCED_FACE('',(#2088),#2100,.F.);
#2088 = FACE_BOUND('',#2089,.T.);
#2089 = EDGE_LOOP('',(#2090,#2091,#2099));
#2090 = ORIENTED_EDGE('',*,*,#2050,.T.);
#2091 = ORIENTED_EDGE('',*,*,#2092,.T.);
#2092 = EDGE_CURVE('',#2043,#2093,#2095,.T.);
#2093 = VERTEX_POINT('',#2094);
#2094 = CARTESIAN_POINT('',(6.505,-10.88,-3.625753041649));
#2095 = LINE('',#2096,#2097);
#2096 = CARTESIAN_POINT('',(7.38,-10.88,-3.1));
#2097 = VECTOR('',#2098,1.);
#2098 = DIRECTION('',(-0.857167300702,-0.,-0.51503807491));
#2099 = ORIENTED_EDGE('',*,*,#2092,.F.);
#2100 = CONICAL_SURFACE('',#2101,0.875,1.029744258677);
#2101 = AXIS2_PLACEMENT_3D('',#2102,#2103,#2104);
#2102 = CARTESIAN_POINT('',(6.505,-10.88,-3.1));
#2103 = DIRECTION('',(0.,0.,1.));
#2104 = DIRECTION('',(1.,0.,0.));
#2105 = ADVANCED_FACE('',(#2106),#2118,.F.);
#2106 = FACE_BOUND('',#2107,.T.);
#2107 = EDGE_LOOP('',(#2108,#2109,#2117));
#2108 = ORIENTED_EDGE('',*,*,#2075,.T.);
#2109 = ORIENTED_EDGE('',*,*,#2110,.T.);
#2110 = EDGE_CURVE('',#2068,#2111,#2113,.T.);
#2111 = VERTEX_POINT('',#2112);
#2112 = CARTESIAN_POINT('',(6.505,10.87,-3.625753041649));
#2113 = LINE('',#2114,#2115);
#2114 = CARTESIAN_POINT('',(7.38,10.87,-3.1));
#2115 = VECTOR('',#2116,1.);
#2116 = DIRECTION('',(-0.857167300702,-0.,-0.51503807491));
#2117 = ORIENTED_EDGE('',*,*,#2110,.F.);
#2118 = CONICAL_SURFACE('',#2119,0.875,1.029744258677);
#2119 = AXIS2_PLACEMENT_3D('',#2120,#2121,#2122);
#2120 = CARTESIAN_POINT('',(6.505,10.87,-3.1));
#2121 = DIRECTION('',(0.,0.,1.));
#2122 = DIRECTION('',(1.,0.,0.));
#2123 = ( GEOMETRIC_REPRESENTATION_CONTEXT(3) 
GLOBAL_UNCERTAINTY_ASSIGNED_CONTEXT((#2127)) 
GLOBAL_UNIT_ASSIGNED_CONTEXT((#2124,#2125,#2126)) REPRESENTATION_CONTEXT
('Context #1','3D Context with UNIT and UNCERTAINTY') );
#2124 = ( LENGTH_UNIT() NAMED_UNIT(*) SI_UNIT(.MILLI.,.METRE.) );
#2125 = ( NAMED_UNIT(*) PLANE_ANGLE_UNIT() SI_UNIT($,.RADIAN.) );
#2126 = ( NAMED_UNIT(*) SI_UNIT($,.STERADIAN.) SOLID_ANGLE_UNIT() );
#2127 = UNCERTAINTY_MEASURE_WITH_UNIT(LENGTH_MEASURE(1.E-06),#2124,
  'distance_accuracy_value','confusion accuracy');
#2128 = PRODUCT_RELATED_PRODUCT_CATEGORY('part',$,(#7));
#2129 = MECHANICAL_DESIGN_GEOMETRIC_PRESENTATION_REPRESENTATION('',(
    #2130),#2123);
#2130 = STYLED_ITEM('color',(#2131),#15);
#2131 = PRESENTATION_STYLE_ASSIGNMENT((#2132,#2138));
#2132 = SURFACE_STYLE_USAGE(.BOTH.,#2133);
#2133 = SURFACE_SIDE_STYLE('',(#2134));
#2134 = SURFACE_STYLE_FILL_AREA(#2135);
#2135 = FILL_AREA_STYLE('',(#2136));
#2136 = FILL_AREA_STYLE_COLOUR('',#2137);
#2137 = COLOUR_RGB('',0.301960791261,0.301960791261,0.301960791261);
#2138 = CURVE_STYLE('',#2139,POSITIVE_LENGTH_MEASURE(0.1),#2140);
#2139 = DRAUGHTING_PRE_DEFINED_CURVE_FONT('continuous');
#2140 = COLOUR_RGB('',9.803921802644E-02,9.803921802644E-02,
  9.803921802644E-02);
ENDSEC;
END-ISO-10303-21;
